M48
; DRILL file {KiCad 7.0.5} date Sat Sep 16 15:34:56 2023
; FORMAT={-:-/ absolute / inch / decimal}
; #@! TF.CreationDate,2023-09-16T15:34:56-07:00
; #@! TF.GenerationSoftware,Kicad,Pcbnew,7.0.5
; #@! TF.FileFunction,Plated,1,2,PTH
FMAT,2
INCH
; #@! TA.AperFunction,Plated,PTH,ViaDrill
T1C0.0118
; #@! TA.AperFunction,Plated,PTH,ComponentDrill
T2C0.0394
; #@! TA.AperFunction,Plated,PTH,ComponentDrill
T3C0.0598
; #@! TA.AperFunction,Plated,PTH,ComponentDrill
T4C0.1260
%
G90
G05
T1
X5.6299Y-3.189
X5.9449Y-3.0906
X6.1024Y-2.5197
X6.1417Y-2.9528
X6.1417Y-3.1102
X6.2598Y-3.2874
X6.2992Y-3.2207
X6.437Y-2.7756
X6.4567Y-3.3071
X6.4764Y-2.5787
X6.5748Y-2.9528
X6.7913Y-2.815
T2
X6.0Y-2.25
X6.1Y-2.25
X6.2Y-2.25
T3
X5.7641Y-3.5108
X5.9641Y-3.5108
X6.3Y-3.5108
X6.5Y-3.5108
T4
X5.5Y-2.25
X5.5Y-3.5
X6.75Y-2.25
X6.75Y-3.5
T0
M30
