%TF.GenerationSoftware,KiCad,Pcbnew,7.0.5*%
%TF.CreationDate,2023-11-06T15:38:15-08:00*%
%TF.ProjectId,HighSideSwitchModule,48696768-5369-4646-9553-77697463684d,rev?*%
%TF.SameCoordinates,Original*%
%TF.FileFunction,Copper,L1,Top*%
%TF.FilePolarity,Positive*%
%FSLAX46Y46*%
G04 Gerber Fmt 4.6, Leading zero omitted, Abs format (unit mm)*
G04 Created by KiCad (PCBNEW 7.0.5) date 2023-11-06 15:38:15*
%MOMM*%
%LPD*%
G01*
G04 APERTURE LIST*
G04 Aperture macros list*
%AMRoundRect*
0 Rectangle with rounded corners*
0 $1 Rounding radius*
0 $2 $3 $4 $5 $6 $7 $8 $9 X,Y pos of 4 corners*
0 Add a 4 corners polygon primitive as box body*
4,1,4,$2,$3,$4,$5,$6,$7,$8,$9,$2,$3,0*
0 Add four circle primitives for the rounded corners*
1,1,$1+$1,$2,$3*
1,1,$1+$1,$4,$5*
1,1,$1+$1,$6,$7*
1,1,$1+$1,$8,$9*
0 Add four rect primitives between the rounded corners*
20,1,$1+$1,$2,$3,$4,$5,0*
20,1,$1+$1,$4,$5,$6,$7,0*
20,1,$1+$1,$6,$7,$8,$9,0*
20,1,$1+$1,$8,$9,$2,$3,0*%
G04 Aperture macros list end*
%TA.AperFunction,SMDPad,CuDef*%
%ADD10RoundRect,0.250000X-0.262500X-0.450000X0.262500X-0.450000X0.262500X0.450000X-0.262500X0.450000X0*%
%TD*%
%TA.AperFunction,SMDPad,CuDef*%
%ADD11RoundRect,0.250000X0.450000X-0.262500X0.450000X0.262500X-0.450000X0.262500X-0.450000X-0.262500X0*%
%TD*%
%TA.AperFunction,SMDPad,CuDef*%
%ADD12RoundRect,0.150000X-0.587500X-0.150000X0.587500X-0.150000X0.587500X0.150000X-0.587500X0.150000X0*%
%TD*%
%TA.AperFunction,SMDPad,CuDef*%
%ADD13RoundRect,0.250000X-0.250000X-0.475000X0.250000X-0.475000X0.250000X0.475000X-0.250000X0.475000X0*%
%TD*%
%TA.AperFunction,SMDPad,CuDef*%
%ADD14RoundRect,0.150000X-0.150000X0.587500X-0.150000X-0.587500X0.150000X-0.587500X0.150000X0.587500X0*%
%TD*%
%TA.AperFunction,ComponentPad*%
%ADD15C,5.600000*%
%TD*%
%TA.AperFunction,SMDPad,CuDef*%
%ADD16RoundRect,0.225000X0.375000X-0.225000X0.375000X0.225000X-0.375000X0.225000X-0.375000X-0.225000X0*%
%TD*%
%TA.AperFunction,SMDPad,CuDef*%
%ADD17RoundRect,0.150000X-0.150000X0.512500X-0.150000X-0.512500X0.150000X-0.512500X0.150000X0.512500X0*%
%TD*%
%TA.AperFunction,SMDPad,CuDef*%
%ADD18RoundRect,0.250000X-0.450000X0.262500X-0.450000X-0.262500X0.450000X-0.262500X0.450000X0.262500X0*%
%TD*%
%TA.AperFunction,SMDPad,CuDef*%
%ADD19RoundRect,0.243750X-0.243750X-0.456250X0.243750X-0.456250X0.243750X0.456250X-0.243750X0.456250X0*%
%TD*%
%TA.AperFunction,SMDPad,CuDef*%
%ADD20RoundRect,0.250000X0.262500X0.450000X-0.262500X0.450000X-0.262500X-0.450000X0.262500X-0.450000X0*%
%TD*%
%TA.AperFunction,SMDPad,CuDef*%
%ADD21RoundRect,0.250000X1.825000X0.700000X-1.825000X0.700000X-1.825000X-0.700000X1.825000X-0.700000X0*%
%TD*%
%TA.AperFunction,ComponentPad*%
%ADD22R,3.000000X3.000000*%
%TD*%
%TA.AperFunction,ComponentPad*%
%ADD23C,3.000000*%
%TD*%
%TA.AperFunction,SMDPad,CuDef*%
%ADD24RoundRect,0.225000X-0.375000X0.225000X-0.375000X-0.225000X0.375000X-0.225000X0.375000X0.225000X0*%
%TD*%
%TA.AperFunction,SMDPad,CuDef*%
%ADD25RoundRect,0.250000X0.250000X0.475000X-0.250000X0.475000X-0.250000X-0.475000X0.250000X-0.475000X0*%
%TD*%
%TA.AperFunction,SMDPad,CuDef*%
%ADD26RoundRect,0.250000X0.475000X-0.250000X0.475000X0.250000X-0.475000X0.250000X-0.475000X-0.250000X0*%
%TD*%
%TA.AperFunction,SMDPad,CuDef*%
%ADD27RoundRect,0.243750X-0.456250X0.243750X-0.456250X-0.243750X0.456250X-0.243750X0.456250X0.243750X0*%
%TD*%
%TA.AperFunction,SMDPad,CuDef*%
%ADD28RoundRect,0.243750X0.243750X0.456250X-0.243750X0.456250X-0.243750X-0.456250X0.243750X-0.456250X0*%
%TD*%
%TA.AperFunction,ComponentPad*%
%ADD29R,1.700000X1.700000*%
%TD*%
%TA.AperFunction,ComponentPad*%
%ADD30O,1.700000X1.700000*%
%TD*%
%TA.AperFunction,SMDPad,CuDef*%
%ADD31RoundRect,0.250000X-0.850000X-0.350000X0.850000X-0.350000X0.850000X0.350000X-0.850000X0.350000X0*%
%TD*%
%TA.AperFunction,SMDPad,CuDef*%
%ADD32RoundRect,0.250000X-1.275000X-1.125000X1.275000X-1.125000X1.275000X1.125000X-1.275000X1.125000X0*%
%TD*%
%TA.AperFunction,SMDPad,CuDef*%
%ADD33RoundRect,0.249997X-2.950003X-2.650003X2.950003X-2.650003X2.950003X2.650003X-2.950003X2.650003X0*%
%TD*%
%TA.AperFunction,SMDPad,CuDef*%
%ADD34RoundRect,0.150000X-0.512500X-0.150000X0.512500X-0.150000X0.512500X0.150000X-0.512500X0.150000X0*%
%TD*%
%TA.AperFunction,ViaPad*%
%ADD35C,0.700000*%
%TD*%
%TA.AperFunction,Conductor*%
%ADD36C,1.000000*%
%TD*%
%TA.AperFunction,Conductor*%
%ADD37C,0.500000*%
%TD*%
G04 APERTURE END LIST*
D10*
%TO.P,R5,1*%
%TO.N,+12V*%
X149187500Y-68700000D03*
%TO.P,R5,2*%
%TO.N,Net-(Q2-S)*%
X151012500Y-68700000D03*
%TD*%
D11*
%TO.P,R4,1*%
%TO.N,Net-(Q1-G)*%
X148200000Y-58125000D03*
%TO.P,R4,2*%
%TO.N,GND*%
X148200000Y-56300000D03*
%TD*%
D10*
%TO.P,R3,1*%
%TO.N,+12V*%
X149187500Y-65700000D03*
%TO.P,R3,2*%
%TO.N,Net-(Q1-S)*%
X151012500Y-65700000D03*
%TD*%
%TO.P,R2,1*%
%TO.N,Net-(Q1-G)*%
X153887500Y-61200000D03*
%TO.P,R2,2*%
%TO.N,/HighSideGate/IN*%
X155712500Y-61200000D03*
%TD*%
D12*
%TO.P,Q2,1,G*%
%TO.N,Net-(Q1-S)*%
X154025000Y-64250000D03*
%TO.P,Q2,2,S*%
%TO.N,Net-(Q2-S)*%
X154025000Y-66150000D03*
%TO.P,Q2,3,D*%
%TO.N,GND*%
X155900000Y-65200000D03*
%TD*%
%TO.P,Q1,1,G*%
%TO.N,Net-(Q1-G)*%
X148825000Y-60750000D03*
%TO.P,Q1,2,S*%
%TO.N,Net-(Q1-S)*%
X148825000Y-62650000D03*
%TO.P,Q1,3,D*%
%TO.N,GND*%
X150700000Y-61700000D03*
%TD*%
D13*
%TO.P,C6,1*%
%TO.N,Net-(D8-A)*%
X169050000Y-72000000D03*
%TO.P,C6,2*%
%TO.N,GND*%
X170950000Y-72000000D03*
%TD*%
D14*
%TO.P,Q3,1,G*%
%TO.N,Net-(D19-A)*%
X143700000Y-80100000D03*
%TO.P,Q3,2,S*%
%TO.N,+12V*%
X141800000Y-80100000D03*
%TO.P,Q3,3,D*%
%TO.N,Net-(J7-Pin_2)*%
X142750000Y-81975000D03*
%TD*%
D15*
%TO.P,J1,1,Pin_1*%
%TO.N,GND*%
X139700000Y-57150000D03*
%TD*%
D16*
%TO.P,D3,1,K*%
%TO.N,Net-(D2-A)*%
X166000000Y-57250000D03*
%TO.P,D3,2,A*%
%TO.N,GND*%
X166000000Y-53950000D03*
%TD*%
D17*
%TO.P,D8,1,K*%
%TO.N,GND*%
X157300000Y-80000000D03*
%TO.P,D8,2,K*%
%TO.N,+12V*%
X155400000Y-80000000D03*
%TO.P,D8,3,A*%
%TO.N,Net-(D8-A)*%
X156350000Y-82275000D03*
%TD*%
D18*
%TO.P,R47,1*%
%TO.N,Net-(D21-A)*%
X150000000Y-75087500D03*
%TO.P,R47,2*%
%TO.N,+12V*%
X150000000Y-76912500D03*
%TD*%
D19*
%TO.P,D2,2,A*%
%TO.N,Net-(D2-A)*%
X162837500Y-54000000D03*
%TO.P,D2,1,K*%
%TO.N,GND*%
X160962500Y-54000000D03*
%TD*%
D15*
%TO.P,J3,1,Pin_1*%
%TO.N,GND*%
X139700000Y-88900000D03*
%TD*%
D20*
%TO.P,R1,1*%
%TO.N,Net-(D2-A)*%
X162812500Y-57200000D03*
%TO.P,R1,2*%
%TO.N,Net-(J5-Pin_3)*%
X160987500Y-57200000D03*
%TD*%
D10*
%TO.P,R19,1*%
%TO.N,Net-(Q5-G)*%
X159175000Y-72000000D03*
%TO.P,R19,2*%
%TO.N,Net-(U3-HO)*%
X161000000Y-72000000D03*
%TD*%
D21*
%TO.P,C15,1*%
%TO.N,+12V*%
X144950000Y-71000000D03*
%TO.P,C15,2*%
%TO.N,GND*%
X138000000Y-71000000D03*
%TD*%
D18*
%TO.P,R45,1*%
%TO.N,GND*%
X147700000Y-80287500D03*
%TO.P,R45,2*%
%TO.N,Net-(D19-A)*%
X147700000Y-82112500D03*
%TD*%
D15*
%TO.P,J4,1,Pin_1*%
%TO.N,GND*%
X171450000Y-88900000D03*
%TD*%
D22*
%TO.P,J6,1,Pin_1*%
%TO.N,GND*%
X160020000Y-89174500D03*
D23*
%TO.P,J6,2,Pin_2*%
%TO.N,Net-(D8-A)*%
X165100000Y-89174500D03*
%TD*%
D10*
%TO.P,R17,1*%
%TO.N,Net-(D1-A)*%
X154187500Y-68500000D03*
%TO.P,R17,2*%
%TO.N,Net-(Q2-S)*%
X156012500Y-68500000D03*
%TD*%
D15*
%TO.P,J2,1,Pin_1*%
%TO.N,GND*%
X171450000Y-57150000D03*
%TD*%
D24*
%TO.P,D19,1,K*%
%TO.N,+12V*%
X150800000Y-79650000D03*
%TO.P,D19,2,A*%
%TO.N,Net-(D19-A)*%
X150800000Y-82950000D03*
%TD*%
D22*
%TO.P,J7,1,Pin_1*%
%TO.N,GND*%
X146408000Y-89174500D03*
D23*
%TO.P,J7,2,Pin_2*%
%TO.N,Net-(J7-Pin_2)*%
X151488000Y-89174500D03*
%TD*%
D25*
%TO.P,C5,1*%
%TO.N,Net-(D8-A)*%
X165950000Y-72000000D03*
%TO.P,C5,2*%
%TO.N,GND*%
X164050000Y-72000000D03*
%TD*%
D26*
%TO.P,C17,1*%
%TO.N,+12V*%
X154000000Y-76950000D03*
%TO.P,C17,2*%
%TO.N,GND*%
X154000000Y-75050000D03*
%TD*%
D27*
%TO.P,D9,1,K*%
%TO.N,GND*%
X171000000Y-63062500D03*
%TO.P,D9,2,A*%
%TO.N,Net-(D9-A)*%
X171000000Y-64937500D03*
%TD*%
D18*
%TO.P,R20,1*%
%TO.N,Net-(D9-A)*%
X171000000Y-67087500D03*
%TO.P,R20,2*%
%TO.N,Net-(D8-A)*%
X171000000Y-68912500D03*
%TD*%
D25*
%TO.P,C2,1*%
%TO.N,+12V*%
X160950000Y-62000000D03*
%TO.P,C2,2*%
%TO.N,GND*%
X159050000Y-62000000D03*
%TD*%
D28*
%TO.P,D21,1,K*%
%TO.N,GND*%
X151000000Y-72000000D03*
%TO.P,D21,2,A*%
%TO.N,Net-(D21-A)*%
X149125000Y-72000000D03*
%TD*%
D29*
%TO.P,J5,1,Pin_1*%
%TO.N,GND*%
X152400000Y-57150000D03*
D30*
%TO.P,J5,2,Pin_2*%
%TO.N,/HighSideGate/IN*%
X154940000Y-57150000D03*
%TO.P,J5,3,Pin_3*%
%TO.N,Net-(J5-Pin_3)*%
X157480000Y-57150000D03*
%TD*%
D25*
%TO.P,C3,1*%
%TO.N,Net-(D7-K)*%
X167000000Y-67000000D03*
%TO.P,C3,2*%
%TO.N,Net-(D8-A)*%
X165100000Y-67000000D03*
%TD*%
D16*
%TO.P,D7,1,K*%
%TO.N,Net-(D7-K)*%
X165000000Y-63300000D03*
%TO.P,D7,2,A*%
%TO.N,+12V*%
X165000000Y-60000000D03*
%TD*%
D19*
%TO.P,D1,1,K*%
%TO.N,GND*%
X154125000Y-72000000D03*
%TO.P,D1,2,A*%
%TO.N,Net-(D1-A)*%
X156000000Y-72000000D03*
%TD*%
D31*
%TO.P,Q5,1,G*%
%TO.N,Net-(Q5-G)*%
X163375000Y-77245000D03*
%TO.P,Q5,2,D*%
%TO.N,+12V*%
X163375000Y-79525000D03*
D32*
X168000000Y-78000000D03*
X168000000Y-81050000D03*
D33*
X169675000Y-79525000D03*
D32*
X171350000Y-78000000D03*
X171350000Y-81050000D03*
D31*
%TO.P,Q5,3,S*%
%TO.N,Net-(D8-A)*%
X163375000Y-81805000D03*
%TD*%
D34*
%TO.P,U3,1,V_{CC}*%
%TO.N,+12V*%
X160173000Y-66000000D03*
%TO.P,U3,2,COM*%
%TO.N,GND*%
X160173000Y-66950000D03*
%TO.P,U3,3,IN*%
%TO.N,Net-(Q2-S)*%
X160173000Y-67900000D03*
%TO.P,U3,4,VS*%
%TO.N,Net-(D8-A)*%
X162448000Y-67900000D03*
%TO.P,U3,5,HO*%
%TO.N,Net-(U3-HO)*%
X162448000Y-66950000D03*
%TO.P,U3,6,VB*%
%TO.N,Net-(D7-K)*%
X162448000Y-66000000D03*
%TD*%
D35*
%TO.N,GND*%
X147400000Y-73100000D03*
X147100000Y-83800000D03*
X161600000Y-84100000D03*
X165600000Y-83800000D03*
X165900000Y-75400000D03*
X167500000Y-70200000D03*
X146300000Y-59500000D03*
X147300000Y-66600000D03*
X158400000Y-69400000D03*
X157500000Y-75100000D03*
X152800000Y-78800000D03*
X162500000Y-63800000D03*
X164800000Y-65300000D03*
X163400000Y-70200000D03*
X158400000Y-79900000D03*
X147500000Y-79300000D03*
X138000000Y-73700000D03*
X152600000Y-72000000D03*
X152200000Y-61800000D03*
X157600000Y-62300000D03*
X157800000Y-65300000D03*
%TO.N,+12V*%
X149187500Y-67200000D03*
X156900000Y-63800000D03*
%TO.N,Net-(D8-A)*%
X162300000Y-75200000D03*
X161100000Y-82275000D03*
%TD*%
D36*
%TO.N,Net-(D2-A)*%
X165950000Y-57200000D02*
X166000000Y-57250000D01*
X162812500Y-57200000D02*
X165950000Y-57200000D01*
X162837500Y-57175000D02*
X162812500Y-57200000D01*
X162837500Y-54000000D02*
X162837500Y-57175000D01*
%TO.N,Net-(J5-Pin_3)*%
X160937500Y-57150000D02*
X160987500Y-57200000D01*
X157480000Y-57150000D02*
X160937500Y-57150000D01*
%TO.N,+12V*%
X144950000Y-73150000D02*
X146500000Y-74700000D01*
X144950000Y-71000000D02*
X144950000Y-73150000D01*
D37*
%TO.N,Net-(Q2-S)*%
X154550000Y-66150000D02*
X156012500Y-67612500D01*
X156012500Y-67612500D02*
X156012500Y-68500000D01*
X154025000Y-66150000D02*
X154550000Y-66150000D01*
D36*
%TO.N,+12V*%
X156900000Y-63800000D02*
X160950000Y-63800000D01*
X163800000Y-60000000D02*
X165000000Y-60000000D01*
X160950000Y-62000000D02*
X161800000Y-62000000D01*
X161800000Y-62000000D02*
X163800000Y-60000000D01*
%TO.N,Net-(D9-A)*%
X171000000Y-64937500D02*
X171000000Y-67087500D01*
%TO.N,GND*%
X172037500Y-63062500D02*
X174700000Y-60400000D01*
X171000000Y-63062500D02*
X172037500Y-63062500D01*
X175300000Y-61000000D02*
X174700000Y-60400000D01*
X174700000Y-60400000D02*
X171450000Y-57150000D01*
X170950000Y-72000000D02*
X175100000Y-72000000D01*
X175300000Y-71800000D02*
X175300000Y-61000000D01*
X175300000Y-85050000D02*
X175300000Y-71800000D01*
X175100000Y-72000000D02*
X175300000Y-71800000D01*
X164050000Y-70850000D02*
X163400000Y-70200000D01*
X164050000Y-72000000D02*
X164050000Y-70850000D01*
X158300000Y-80000000D02*
X158400000Y-79900000D01*
X157300000Y-80000000D02*
X158300000Y-80000000D01*
X147700000Y-79500000D02*
X147500000Y-79300000D01*
X147700000Y-80287500D02*
X147700000Y-79500000D01*
X138000000Y-73700000D02*
X138000000Y-87200000D01*
X138000000Y-71000000D02*
X138000000Y-73700000D01*
X151000000Y-72000000D02*
X154125000Y-72000000D01*
X150800000Y-61800000D02*
X150700000Y-61700000D01*
X152200000Y-61800000D02*
X150800000Y-61800000D01*
X158750000Y-62300000D02*
X159050000Y-62000000D01*
X157600000Y-62300000D02*
X158750000Y-62300000D01*
X157700000Y-65200000D02*
X157800000Y-65300000D01*
X155900000Y-65200000D02*
X157700000Y-65200000D01*
%TO.N,+12V*%
X149187500Y-65700000D02*
X149187500Y-67200000D01*
X149187500Y-67200000D02*
X149187500Y-68700000D01*
X160950000Y-62000000D02*
X160950000Y-63800000D01*
D37*
X160950000Y-63800000D02*
X160950000Y-65223000D01*
X160950000Y-65223000D02*
X160173000Y-66000000D01*
%TO.N,GND*%
X157650000Y-66950000D02*
X155900000Y-65200000D01*
X160173000Y-66950000D02*
X157650000Y-66950000D01*
%TO.N,Net-(Q2-S)*%
X160173000Y-67900000D02*
X156612500Y-67900000D01*
X156612500Y-67900000D02*
X156012500Y-68500000D01*
%TO.N,Net-(U3-HO)*%
X161335500Y-67364500D02*
X161335500Y-71664500D01*
X161335500Y-71664500D02*
X161000000Y-72000000D01*
X161750000Y-66950000D02*
X161335500Y-67364500D01*
X162448000Y-66950000D02*
X161750000Y-66950000D01*
%TO.N,Net-(D8-A)*%
X164700000Y-67900000D02*
X165100000Y-68300000D01*
X162448000Y-67900000D02*
X164700000Y-67900000D01*
%TO.N,Net-(D7-K)*%
X162448000Y-65852000D02*
X165000000Y-63300000D01*
X162448000Y-66000000D02*
X162448000Y-65852000D01*
D36*
X167000000Y-67000000D02*
X167000000Y-65300000D01*
X167000000Y-65300000D02*
X165000000Y-63300000D01*
%TO.N,Net-(D8-A)*%
X165950000Y-69150000D02*
X165950000Y-72000000D01*
X165100000Y-68300000D02*
X165950000Y-69150000D01*
X165100000Y-67000000D02*
X165100000Y-68300000D01*
X169050000Y-69850000D02*
X169050000Y-72000000D01*
X169987500Y-68912500D02*
X169050000Y-69850000D01*
X171000000Y-68912500D02*
X169987500Y-68912500D01*
X165950000Y-72000000D02*
X169050000Y-72000000D01*
X161100000Y-82275000D02*
X162905000Y-82275000D01*
X156350000Y-82275000D02*
X161100000Y-82275000D01*
X162918503Y-75200000D02*
X162300000Y-75200000D01*
X165950000Y-72168503D02*
X162918503Y-75200000D01*
X165950000Y-72000000D02*
X165950000Y-72168503D01*
%TO.N,Net-(Q5-G)*%
X159175000Y-74375000D02*
X159175000Y-72000000D01*
X162045000Y-77245000D02*
X159175000Y-74375000D01*
X163375000Y-77245000D02*
X162045000Y-77245000D01*
%TO.N,Net-(D8-A)*%
X163375000Y-87449500D02*
X165100000Y-89174500D01*
X163375000Y-81805000D02*
X163375000Y-87449500D01*
X162905000Y-82275000D02*
X163375000Y-81805000D01*
%TO.N,+12V*%
X155400000Y-78350000D02*
X154000000Y-76950000D01*
X155400000Y-80000000D02*
X155400000Y-78350000D01*
X145200000Y-74700000D02*
X146500000Y-74700000D01*
X141800000Y-78100000D02*
X145200000Y-74700000D01*
X141800000Y-80100000D02*
X141800000Y-78100000D01*
X150800000Y-77012500D02*
X150900000Y-76912500D01*
X150800000Y-79650000D02*
X150800000Y-77012500D01*
X150900000Y-76912500D02*
X153962500Y-76912500D01*
X150000000Y-76912500D02*
X150900000Y-76912500D01*
%TO.N,Net-(D19-A)*%
X147700000Y-82112500D02*
X149962500Y-82112500D01*
X149962500Y-82112500D02*
X150800000Y-82950000D01*
X145712500Y-82112500D02*
X147700000Y-82112500D01*
X143700000Y-80100000D02*
X145712500Y-82112500D01*
%TO.N,Net-(J7-Pin_2)*%
X147175000Y-86400000D02*
X148713500Y-86400000D01*
X142750000Y-81975000D02*
X147175000Y-86400000D01*
X148713500Y-86400000D02*
X151488000Y-89174500D01*
%TO.N,+12V*%
X159200000Y-78100000D02*
X160625000Y-79525000D01*
X158050000Y-76950000D02*
X159200000Y-78100000D01*
%TO.N,Net-(D21-A)*%
X149125000Y-73825000D02*
X149125000Y-72000000D01*
X150000000Y-74700000D02*
X149125000Y-73825000D01*
X150000000Y-75087500D02*
X150000000Y-74700000D01*
%TO.N,GND*%
X154125000Y-72000000D02*
X154125000Y-74925000D01*
X154125000Y-74925000D02*
X154000000Y-75050000D01*
%TO.N,Net-(D1-A)*%
X156000000Y-71200000D02*
X156000000Y-72000000D01*
X154187500Y-68500000D02*
X154187500Y-69387500D01*
X154187500Y-69387500D02*
X156000000Y-71200000D01*
%TO.N,+12V*%
X163375000Y-79525000D02*
X166475000Y-79525000D01*
X166475000Y-79525000D02*
X168000000Y-78000000D01*
X160625000Y-79525000D02*
X163375000Y-79525000D01*
X154000000Y-76950000D02*
X158050000Y-76950000D01*
X153962500Y-76912500D02*
X154000000Y-76950000D01*
X148712500Y-76912500D02*
X150000000Y-76912500D01*
X146500000Y-74700000D02*
X148712500Y-76912500D01*
X149187500Y-68700000D02*
X147250000Y-68700000D01*
X147250000Y-68700000D02*
X144950000Y-71000000D01*
%TO.N,Net-(Q2-S)*%
X153562500Y-66150000D02*
X151012500Y-68700000D01*
X154025000Y-66150000D02*
X153562500Y-66150000D01*
%TO.N,Net-(Q1-S)*%
X152462500Y-64250000D02*
X154025000Y-64250000D01*
X151012500Y-65700000D02*
X152462500Y-64250000D01*
X151012500Y-64837500D02*
X151012500Y-65700000D01*
X148825000Y-62650000D02*
X151012500Y-64837500D01*
%TO.N,Net-(Q1-G)*%
X153887500Y-61187500D02*
X153887500Y-61200000D01*
X152300000Y-59600000D02*
X153887500Y-61187500D01*
X148200000Y-59600000D02*
X152300000Y-59600000D01*
X148200000Y-58125000D02*
X148200000Y-59600000D01*
X148200000Y-59600000D02*
X148200000Y-60125000D01*
X148200000Y-60125000D02*
X148825000Y-60750000D01*
%TO.N,/HighSideGate/IN*%
X155712500Y-59212500D02*
X155712500Y-61200000D01*
X154940000Y-58440000D02*
X155712500Y-59212500D01*
X154940000Y-57150000D02*
X154940000Y-58440000D01*
%TO.N,GND*%
X160962500Y-52162500D02*
X160800000Y-52000000D01*
X160962500Y-54000000D02*
X160962500Y-52162500D01*
X160800000Y-52000000D02*
X166300000Y-52000000D01*
X155300000Y-52000000D02*
X160800000Y-52000000D01*
X166000000Y-53950000D02*
X166000000Y-53000000D01*
X166000000Y-53000000D02*
X166650000Y-52350000D01*
X166650000Y-52350000D02*
X171450000Y-57150000D01*
X166300000Y-52000000D02*
X166650000Y-52350000D01*
X152400000Y-54900000D02*
X155300000Y-52000000D01*
X152400000Y-57150000D02*
X152400000Y-54900000D01*
X171450000Y-88900000D02*
X175300000Y-85050000D01*
X171450000Y-90550000D02*
X171450000Y-88900000D01*
X168800000Y-93200000D02*
X171450000Y-90550000D01*
X162500000Y-93200000D02*
X168800000Y-93200000D01*
X160020000Y-90720000D02*
X162500000Y-93200000D01*
X160020000Y-89174500D02*
X160020000Y-90720000D01*
X160020000Y-90880000D02*
X160020000Y-89174500D01*
X150333500Y-93100000D02*
X157800000Y-93100000D01*
X146408000Y-89174500D02*
X150333500Y-93100000D01*
X157800000Y-93100000D02*
X160020000Y-90880000D01*
X139700000Y-88900000D02*
X146133500Y-88900000D01*
X146133500Y-88900000D02*
X146408000Y-89174500D01*
X138000000Y-87200000D02*
X139700000Y-88900000D01*
X137700000Y-70700000D02*
X138000000Y-71000000D01*
X139700000Y-57150000D02*
X137700000Y-59150000D01*
X137700000Y-59150000D02*
X137700000Y-70700000D01*
X140550000Y-56300000D02*
X139700000Y-57150000D01*
X148200000Y-56300000D02*
X140550000Y-56300000D01*
X150600000Y-56300000D02*
X148200000Y-56300000D01*
X151450000Y-57150000D02*
X150600000Y-56300000D01*
X152400000Y-57150000D02*
X151450000Y-57150000D01*
%TD*%
%TA.AperFunction,Conductor*%
%TO.N,GND*%
G36*
X157651256Y-77970185D02*
G01*
X157671898Y-77986819D01*
X159908005Y-80222926D01*
X159909070Y-80224017D01*
X159966500Y-80284433D01*
X159969940Y-80288052D01*
X159969947Y-80288058D01*
X159990610Y-80302439D01*
X160020295Y-80323100D01*
X160024050Y-80325932D01*
X160026640Y-80328044D01*
X160071593Y-80364698D01*
X160102045Y-80380604D01*
X160108756Y-80384671D01*
X160136951Y-80404295D01*
X160193332Y-80428490D01*
X160197567Y-80430501D01*
X160251951Y-80458909D01*
X160284973Y-80468356D01*
X160292365Y-80470989D01*
X160323940Y-80484539D01*
X160323941Y-80484540D01*
X160337054Y-80487234D01*
X160384055Y-80496892D01*
X160388595Y-80498006D01*
X160447582Y-80514886D01*
X160481841Y-80517494D01*
X160489609Y-80518585D01*
X160523255Y-80525500D01*
X160523259Y-80525500D01*
X160584601Y-80525500D01*
X160589308Y-80525678D01*
X160625651Y-80528446D01*
X160650475Y-80530337D01*
X160650475Y-80530336D01*
X160650476Y-80530337D01*
X160684559Y-80525996D01*
X160692389Y-80525500D01*
X162114868Y-80525500D01*
X162179966Y-80543962D01*
X162205095Y-80559462D01*
X162251819Y-80611410D01*
X162263040Y-80680373D01*
X162235196Y-80744455D01*
X162205094Y-80770538D01*
X162201269Y-80772898D01*
X162056342Y-80862289D01*
X161932289Y-80986342D01*
X161840187Y-81135663D01*
X161840185Y-81135668D01*
X161834455Y-81152960D01*
X161824606Y-81182685D01*
X161822346Y-81189504D01*
X161782573Y-81246949D01*
X161718057Y-81273772D01*
X161704640Y-81274500D01*
X156983100Y-81274500D01*
X156916061Y-81254815D01*
X156907099Y-81248479D01*
X156901863Y-81244417D01*
X156764192Y-81163000D01*
X156760398Y-81160756D01*
X156760397Y-81160755D01*
X156760396Y-81160755D01*
X156760393Y-81160754D01*
X156602573Y-81114902D01*
X156602567Y-81114901D01*
X156565701Y-81112000D01*
X156565694Y-81112000D01*
X156167895Y-81112000D01*
X156100856Y-81092315D01*
X156055101Y-81039511D01*
X156045157Y-80970353D01*
X156065671Y-80922003D01*
X156064110Y-80921080D01*
X156078026Y-80897548D01*
X156151744Y-80772898D01*
X156186180Y-80654369D01*
X156196731Y-80618055D01*
X156214031Y-80581814D01*
X156279295Y-80488049D01*
X156359540Y-80301058D01*
X156400500Y-80101741D01*
X156400500Y-78363491D01*
X156400520Y-78361921D01*
X156402757Y-78273641D01*
X156402756Y-78273640D01*
X156402757Y-78273637D01*
X156391933Y-78213249D01*
X156391280Y-78208587D01*
X156385374Y-78150511D01*
X156385074Y-78147562D01*
X156374784Y-78114768D01*
X156372918Y-78107159D01*
X156370981Y-78096355D01*
X156378543Y-78026896D01*
X156422456Y-77972551D01*
X156488779Y-77950573D01*
X156493041Y-77950500D01*
X157584217Y-77950500D01*
X157651256Y-77970185D01*
G37*
%TD.AperFunction*%
%TA.AperFunction,Conductor*%
G36*
X153093834Y-68136099D02*
G01*
X153149767Y-68177971D01*
X153174184Y-68243435D01*
X153174500Y-68252281D01*
X153174500Y-69000001D01*
X153174501Y-69000019D01*
X153185689Y-69109533D01*
X153185339Y-69109568D01*
X153187000Y-69125259D01*
X153187000Y-69374006D01*
X153186980Y-69375576D01*
X153184743Y-69463862D01*
X153184743Y-69463870D01*
X153195564Y-69524239D01*
X153196218Y-69528904D01*
X153202425Y-69589930D01*
X153202427Y-69589944D01*
X153212708Y-69622713D01*
X153214579Y-69630337D01*
X153220642Y-69664152D01*
X153220642Y-69664155D01*
X153230965Y-69689998D01*
X153243023Y-69720185D01*
X153243394Y-69721112D01*
X153244974Y-69725551D01*
X153263341Y-69784088D01*
X153263344Y-69784095D01*
X153280009Y-69814119D01*
X153283379Y-69821214D01*
X153296122Y-69853114D01*
X153296127Y-69853124D01*
X153329877Y-69904333D01*
X153332318Y-69908363D01*
X153362088Y-69961998D01*
X153362089Y-69961999D01*
X153362091Y-69962002D01*
X153384468Y-69988067D01*
X153389193Y-69994335D01*
X153390630Y-69996515D01*
X153408098Y-70023019D01*
X153451478Y-70066399D01*
X153454669Y-70069843D01*
X153494631Y-70116392D01*
X153494630Y-70116392D01*
X153521799Y-70137423D01*
X153527686Y-70142607D01*
X154308425Y-70923345D01*
X154963181Y-71578101D01*
X154996666Y-71639424D01*
X154999500Y-71665782D01*
X154999500Y-72050743D01*
X155011682Y-72170535D01*
X155012000Y-72176812D01*
X155012000Y-72505855D01*
X155022413Y-72607776D01*
X155077137Y-72772922D01*
X155077142Y-72772933D01*
X155168471Y-72920999D01*
X155168474Y-72921003D01*
X155291496Y-73044025D01*
X155291500Y-73044028D01*
X155439566Y-73135357D01*
X155439569Y-73135358D01*
X155439575Y-73135362D01*
X155604725Y-73190087D01*
X155706652Y-73200500D01*
X155706657Y-73200500D01*
X156293343Y-73200500D01*
X156293348Y-73200500D01*
X156395275Y-73190087D01*
X156560425Y-73135362D01*
X156708503Y-73044026D01*
X156831526Y-72921003D01*
X156922862Y-72772925D01*
X156977587Y-72607775D01*
X156988000Y-72505848D01*
X156988000Y-72175176D01*
X156990538Y-72150216D01*
X157000500Y-72101741D01*
X157000500Y-71213475D01*
X157000520Y-71211904D01*
X157002757Y-71123641D01*
X157002756Y-71123640D01*
X157002757Y-71123637D01*
X156991933Y-71063249D01*
X156991280Y-71058587D01*
X156985074Y-70997563D01*
X156982166Y-70988294D01*
X156974784Y-70964768D01*
X156972917Y-70957155D01*
X156972705Y-70955974D01*
X156966858Y-70923347D01*
X156944100Y-70866374D01*
X156942521Y-70861938D01*
X156933490Y-70833155D01*
X156924159Y-70803412D01*
X156924158Y-70803410D01*
X156924157Y-70803407D01*
X156907488Y-70773378D01*
X156904117Y-70766278D01*
X156891378Y-70734386D01*
X156891377Y-70734383D01*
X156857620Y-70683163D01*
X156855180Y-70679134D01*
X156844379Y-70659675D01*
X156825409Y-70625498D01*
X156825407Y-70625495D01*
X156803033Y-70599434D01*
X156798302Y-70593159D01*
X156779402Y-70564481D01*
X156736012Y-70521091D01*
X156732822Y-70517648D01*
X156692867Y-70471106D01*
X156692863Y-70471102D01*
X156665698Y-70450074D01*
X156659803Y-70444882D01*
X156127101Y-69912180D01*
X156093616Y-69850857D01*
X156098600Y-69781165D01*
X156140472Y-69725232D01*
X156205936Y-69700815D01*
X156214782Y-69700499D01*
X156325002Y-69700499D01*
X156325008Y-69700499D01*
X156427797Y-69689999D01*
X156594334Y-69634814D01*
X156743656Y-69542712D01*
X156867712Y-69418656D01*
X156959814Y-69269334D01*
X157014999Y-69102797D01*
X157025500Y-69000009D01*
X157025500Y-68774499D01*
X157045185Y-68707461D01*
X157097989Y-68661706D01*
X157149500Y-68650500D01*
X159378172Y-68650500D01*
X159412767Y-68655424D01*
X159557926Y-68697597D01*
X159557929Y-68697597D01*
X159557931Y-68697598D01*
X159594806Y-68700500D01*
X160461000Y-68700500D01*
X160528039Y-68720185D01*
X160573794Y-68772989D01*
X160585000Y-68824500D01*
X160585000Y-70720361D01*
X160565315Y-70787400D01*
X160512511Y-70833155D01*
X160500005Y-70838067D01*
X160418166Y-70865186D01*
X160418163Y-70865187D01*
X160268842Y-70957289D01*
X160175181Y-71050951D01*
X160113858Y-71084436D01*
X160044166Y-71079452D01*
X159999819Y-71050951D01*
X159906157Y-70957289D01*
X159906157Y-70957288D01*
X159906156Y-70957288D01*
X159773556Y-70875500D01*
X159756836Y-70865187D01*
X159756831Y-70865185D01*
X159747032Y-70861938D01*
X159590297Y-70810001D01*
X159590295Y-70810000D01*
X159487510Y-70799500D01*
X158862498Y-70799500D01*
X158862480Y-70799501D01*
X158759703Y-70810000D01*
X158759700Y-70810001D01*
X158593168Y-70865185D01*
X158593163Y-70865187D01*
X158443842Y-70957289D01*
X158319789Y-71081342D01*
X158227687Y-71230663D01*
X158227685Y-71230666D01*
X158227686Y-71230666D01*
X158172501Y-71397203D01*
X158172501Y-71397204D01*
X158172500Y-71397204D01*
X158162000Y-71499983D01*
X158162000Y-72500001D01*
X158162001Y-72500019D01*
X158173189Y-72609533D01*
X158172839Y-72609568D01*
X158174500Y-72625259D01*
X158174499Y-74361506D01*
X158174479Y-74363075D01*
X158172243Y-74451361D01*
X158172243Y-74451370D01*
X158181380Y-74502345D01*
X158182238Y-74507134D01*
X158183064Y-74511739D01*
X158183718Y-74516404D01*
X158189925Y-74577430D01*
X158189927Y-74577444D01*
X158200208Y-74610213D01*
X158202079Y-74617837D01*
X158208142Y-74651652D01*
X158208142Y-74651655D01*
X158230894Y-74708612D01*
X158232474Y-74713051D01*
X158250841Y-74771588D01*
X158250844Y-74771595D01*
X158267509Y-74801619D01*
X158270879Y-74808714D01*
X158283622Y-74840614D01*
X158283627Y-74840624D01*
X158317377Y-74891833D01*
X158319818Y-74895863D01*
X158349588Y-74949498D01*
X158349589Y-74949499D01*
X158349591Y-74949502D01*
X158371968Y-74975567D01*
X158376693Y-74981835D01*
X158389263Y-75000906D01*
X158395598Y-75010519D01*
X158438978Y-75053899D01*
X158442169Y-75057343D01*
X158482131Y-75103892D01*
X158482130Y-75103892D01*
X158509299Y-75124923D01*
X158515186Y-75130107D01*
X159940735Y-76555655D01*
X161327986Y-77942906D01*
X161329051Y-77943997D01*
X161380630Y-77998258D01*
X161389940Y-78008052D01*
X161389947Y-78008058D01*
X161417014Y-78026896D01*
X161440303Y-78043106D01*
X161444044Y-78045926D01*
X161491593Y-78084698D01*
X161522045Y-78100604D01*
X161528758Y-78104672D01*
X161556951Y-78124295D01*
X161613329Y-78148489D01*
X161617578Y-78150507D01*
X161671951Y-78178909D01*
X161699489Y-78186788D01*
X161704974Y-78188358D01*
X161712368Y-78190990D01*
X161743942Y-78204540D01*
X161743945Y-78204540D01*
X161743946Y-78204541D01*
X161804022Y-78216887D01*
X161808600Y-78218010D01*
X161822501Y-78221987D01*
X161867582Y-78234887D01*
X161901839Y-78237495D01*
X161909614Y-78238586D01*
X161943255Y-78245500D01*
X161943259Y-78245500D01*
X162004598Y-78245500D01*
X162009304Y-78245678D01*
X162022018Y-78246647D01*
X162070474Y-78250337D01*
X162070474Y-78250336D01*
X162070476Y-78250337D01*
X162099448Y-78246647D01*
X162168436Y-78257703D01*
X162180211Y-78264114D01*
X162205093Y-78279461D01*
X162251818Y-78331408D01*
X162263041Y-78400371D01*
X162235198Y-78464453D01*
X162205094Y-78490538D01*
X162179968Y-78506037D01*
X162179966Y-78506038D01*
X162114868Y-78524500D01*
X161090783Y-78524500D01*
X161023744Y-78504815D01*
X161003102Y-78488181D01*
X159854140Y-77339220D01*
X159854137Y-77339218D01*
X159339899Y-76824980D01*
X158766973Y-76252053D01*
X158765915Y-76250967D01*
X158705061Y-76186949D01*
X158705060Y-76186948D01*
X158705059Y-76186947D01*
X158659161Y-76155001D01*
X158654709Y-76151902D01*
X158650946Y-76149064D01*
X158603413Y-76110305D01*
X158603406Y-76110300D01*
X158572959Y-76094397D01*
X158566251Y-76090334D01*
X158538049Y-76070705D01*
X158538046Y-76070703D01*
X158538045Y-76070703D01*
X158538041Y-76070701D01*
X158481680Y-76046514D01*
X158477424Y-76044493D01*
X158423057Y-76016094D01*
X158423050Y-76016091D01*
X158423049Y-76016091D01*
X158417008Y-76014362D01*
X158390030Y-76006642D01*
X158382630Y-76004008D01*
X158351057Y-75990459D01*
X158351058Y-75990459D01*
X158290966Y-75978109D01*
X158286391Y-75976986D01*
X158227420Y-75960113D01*
X158227425Y-75960113D01*
X158193158Y-75957503D01*
X158185380Y-75956412D01*
X158151742Y-75949500D01*
X158151741Y-75949500D01*
X158090402Y-75949500D01*
X158085695Y-75949321D01*
X158080121Y-75948896D01*
X158024524Y-75944662D01*
X158004589Y-75947201D01*
X157990440Y-75949003D01*
X157982611Y-75949500D01*
X154259330Y-75949500D01*
X154234368Y-75946961D01*
X154212497Y-75942466D01*
X154203475Y-75940612D01*
X154198901Y-75939489D01*
X154139921Y-75922613D01*
X154105658Y-75920003D01*
X154097880Y-75918912D01*
X154064242Y-75912000D01*
X154064241Y-75912000D01*
X154002902Y-75912000D01*
X153998195Y-75911821D01*
X153992621Y-75911396D01*
X153937024Y-75907162D01*
X153917089Y-75909701D01*
X153902940Y-75911503D01*
X153895111Y-75912000D01*
X151207311Y-75912000D01*
X151140272Y-75892315D01*
X151094517Y-75839511D01*
X151084573Y-75770353D01*
X151101771Y-75722905D01*
X151134814Y-75669334D01*
X151189999Y-75502797D01*
X151200500Y-75400009D01*
X151200499Y-74774992D01*
X151189999Y-74672203D01*
X151134814Y-74505666D01*
X151042712Y-74356344D01*
X150918656Y-74232288D01*
X150918652Y-74232285D01*
X150894584Y-74217439D01*
X150851264Y-74172080D01*
X150845006Y-74160806D01*
X150825409Y-74125498D01*
X150803031Y-74099430D01*
X150798301Y-74093157D01*
X150779401Y-74064480D01*
X150757716Y-74042796D01*
X150736019Y-74021099D01*
X150732828Y-74017655D01*
X150692865Y-73971104D01*
X150665694Y-73950072D01*
X150659807Y-73944887D01*
X150291539Y-73576619D01*
X150161819Y-73446898D01*
X150128334Y-73385575D01*
X150125500Y-73359217D01*
X150125500Y-71949256D01*
X150113318Y-71829463D01*
X150113000Y-71823186D01*
X150113000Y-71494157D01*
X150112999Y-71494144D01*
X150102587Y-71392225D01*
X150047862Y-71227075D01*
X150047858Y-71227069D01*
X150047857Y-71227066D01*
X149956528Y-71079000D01*
X149956525Y-71078996D01*
X149833503Y-70955974D01*
X149833499Y-70955971D01*
X149685433Y-70864642D01*
X149685427Y-70864639D01*
X149685425Y-70864638D01*
X149605239Y-70838067D01*
X149520276Y-70809913D01*
X149418355Y-70799500D01*
X149418348Y-70799500D01*
X148831652Y-70799500D01*
X148831644Y-70799500D01*
X148729723Y-70809913D01*
X148564577Y-70864637D01*
X148564566Y-70864642D01*
X148416500Y-70955971D01*
X148416496Y-70955974D01*
X148293474Y-71078996D01*
X148293471Y-71079000D01*
X148202142Y-71227066D01*
X148202137Y-71227077D01*
X148147413Y-71392223D01*
X148137000Y-71494144D01*
X148137000Y-71824821D01*
X148134462Y-71849782D01*
X148124500Y-71898258D01*
X148124500Y-73811506D01*
X148124480Y-73813076D01*
X148122243Y-73901362D01*
X148122243Y-73901370D01*
X148133064Y-73961739D01*
X148133718Y-73966404D01*
X148139925Y-74027430D01*
X148139927Y-74027444D01*
X148150208Y-74060213D01*
X148152079Y-74067837D01*
X148158142Y-74101652D01*
X148158142Y-74101655D01*
X148180894Y-74158612D01*
X148182474Y-74163051D01*
X148200841Y-74221588D01*
X148200844Y-74221595D01*
X148217509Y-74251619D01*
X148220879Y-74258714D01*
X148233622Y-74290614D01*
X148233627Y-74290624D01*
X148267377Y-74341833D01*
X148269818Y-74345863D01*
X148299588Y-74399498D01*
X148299589Y-74399499D01*
X148299591Y-74399502D01*
X148321968Y-74425567D01*
X148326693Y-74431835D01*
X148345597Y-74460518D01*
X148388965Y-74503886D01*
X148392168Y-74507342D01*
X148432135Y-74553896D01*
X148459299Y-74574923D01*
X148465186Y-74580107D01*
X148656668Y-74771588D01*
X148763181Y-74878101D01*
X148796666Y-74939424D01*
X148799500Y-74965782D01*
X148799500Y-75285218D01*
X148779815Y-75352257D01*
X148727011Y-75398012D01*
X148657853Y-75407956D01*
X148594297Y-75378931D01*
X148587819Y-75372899D01*
X147286472Y-74071552D01*
X147286470Y-74071549D01*
X147264920Y-74049999D01*
X147216955Y-74002034D01*
X147215897Y-74000948D01*
X147209665Y-73994392D01*
X147155059Y-73936947D01*
X147155055Y-73936944D01*
X147153606Y-73935935D01*
X147136764Y-73921843D01*
X145986819Y-72771898D01*
X145953334Y-72710575D01*
X145950500Y-72684217D01*
X145950500Y-72574499D01*
X145970185Y-72507460D01*
X146022989Y-72461705D01*
X146074500Y-72450499D01*
X146825002Y-72450499D01*
X146825008Y-72450499D01*
X146927797Y-72439999D01*
X147094334Y-72384814D01*
X147243656Y-72292712D01*
X147367712Y-72168656D01*
X147459814Y-72019334D01*
X147514999Y-71852797D01*
X147525500Y-71750009D01*
X147525499Y-70249992D01*
X147514999Y-70147203D01*
X147465064Y-69996512D01*
X147462663Y-69926686D01*
X147495088Y-69869830D01*
X147628102Y-69736816D01*
X147689424Y-69703334D01*
X147715782Y-69700500D01*
X148362770Y-69700500D01*
X148429809Y-69720185D01*
X148450450Y-69736818D01*
X148456344Y-69742712D01*
X148605666Y-69834814D01*
X148772203Y-69889999D01*
X148874991Y-69900500D01*
X149500008Y-69900499D01*
X149500016Y-69900498D01*
X149500019Y-69900498D01*
X149556302Y-69894748D01*
X149602797Y-69889999D01*
X149769334Y-69834814D01*
X149918656Y-69742712D01*
X150012319Y-69649049D01*
X150073642Y-69615564D01*
X150143334Y-69620548D01*
X150187681Y-69649048D01*
X150281344Y-69742712D01*
X150430666Y-69834814D01*
X150597203Y-69889999D01*
X150699991Y-69900500D01*
X151325008Y-69900499D01*
X151325016Y-69900498D01*
X151325019Y-69900498D01*
X151381302Y-69894748D01*
X151427797Y-69889999D01*
X151594334Y-69834814D01*
X151743656Y-69742712D01*
X151867712Y-69618656D01*
X151959814Y-69469334D01*
X152014999Y-69302797D01*
X152025500Y-69200009D01*
X152025499Y-69153282D01*
X152045182Y-69086245D01*
X152061813Y-69065606D01*
X152962821Y-68164598D01*
X153024142Y-68131115D01*
X153093834Y-68136099D01*
G37*
%TD.AperFunction*%
%TA.AperFunction,Conductor*%
G36*
X164144304Y-68670185D02*
G01*
X164185683Y-68714321D01*
X164192508Y-68726617D01*
X164195879Y-68733714D01*
X164208622Y-68765614D01*
X164208627Y-68765624D01*
X164242377Y-68816833D01*
X164244818Y-68820863D01*
X164274588Y-68874498D01*
X164274589Y-68874499D01*
X164274591Y-68874502D01*
X164296968Y-68900567D01*
X164301693Y-68906835D01*
X164314263Y-68925906D01*
X164320598Y-68935519D01*
X164363978Y-68978899D01*
X164367169Y-68982343D01*
X164407131Y-69028892D01*
X164407134Y-69028895D01*
X164434294Y-69049918D01*
X164440190Y-69055111D01*
X164913181Y-69528102D01*
X164946666Y-69589425D01*
X164949500Y-69615783D01*
X164949500Y-71702720D01*
X164929815Y-71769759D01*
X164913181Y-71790401D01*
X162540402Y-74163181D01*
X162479079Y-74196666D01*
X162452721Y-74199500D01*
X162249257Y-74199500D01*
X162097560Y-74214925D01*
X161903420Y-74275837D01*
X161903405Y-74275844D01*
X161725500Y-74374589D01*
X161725495Y-74374592D01*
X161571106Y-74507132D01*
X161571104Y-74507134D01*
X161446554Y-74668037D01*
X161446553Y-74668040D01*
X161356939Y-74850730D01*
X161351393Y-74872152D01*
X161315532Y-74932117D01*
X161252945Y-74963174D01*
X161183502Y-74955465D01*
X161143671Y-74928750D01*
X160211819Y-73996897D01*
X160178334Y-73935574D01*
X160175500Y-73909216D01*
X160175500Y-73207311D01*
X160195185Y-73140272D01*
X160247989Y-73094517D01*
X160317147Y-73084573D01*
X160364594Y-73101771D01*
X160418166Y-73134814D01*
X160584703Y-73189999D01*
X160687491Y-73200500D01*
X161312508Y-73200499D01*
X161312516Y-73200498D01*
X161312519Y-73200498D01*
X161368802Y-73194748D01*
X161415297Y-73189999D01*
X161581834Y-73134814D01*
X161731156Y-73042712D01*
X161855212Y-72918656D01*
X161947314Y-72769334D01*
X162002499Y-72602797D01*
X162013000Y-72500009D01*
X162012999Y-72017113D01*
X162026188Y-71961464D01*
X162045540Y-71922933D01*
X162045541Y-71922925D01*
X162048012Y-71916140D01*
X162048070Y-71916161D01*
X162050543Y-71909045D01*
X162050486Y-71909026D01*
X162052756Y-71902176D01*
X162062951Y-71852797D01*
X162068118Y-71827772D01*
X162068484Y-71826119D01*
X162086000Y-71752221D01*
X162086000Y-71752217D01*
X162086001Y-71752213D01*
X162086839Y-71745048D01*
X162086898Y-71745054D01*
X162087664Y-71737554D01*
X162087605Y-71737549D01*
X162088234Y-71730359D01*
X162086026Y-71654467D01*
X162086000Y-71652664D01*
X162086000Y-68824500D01*
X162105685Y-68757461D01*
X162158489Y-68711706D01*
X162210000Y-68700500D01*
X163026186Y-68700500D01*
X163026194Y-68700500D01*
X163063069Y-68697598D01*
X163063071Y-68697597D01*
X163063073Y-68697597D01*
X163208233Y-68655424D01*
X163242828Y-68650500D01*
X164077265Y-68650500D01*
X164144304Y-68670185D01*
G37*
%TD.AperFunction*%
%TA.AperFunction,Conductor*%
G36*
X164866557Y-64597323D02*
G01*
X164910901Y-64625822D01*
X165423960Y-65138880D01*
X165963181Y-65678101D01*
X165996666Y-65739424D01*
X165999500Y-65765782D01*
X165999500Y-65821659D01*
X165979815Y-65888698D01*
X165927011Y-65934453D01*
X165857853Y-65944397D01*
X165810404Y-65927198D01*
X165669340Y-65840189D01*
X165669335Y-65840187D01*
X165669334Y-65840186D01*
X165502797Y-65785001D01*
X165502795Y-65785000D01*
X165400010Y-65774500D01*
X164799998Y-65774500D01*
X164799980Y-65774501D01*
X164697203Y-65785000D01*
X164697200Y-65785001D01*
X164530668Y-65840185D01*
X164530663Y-65840187D01*
X164381342Y-65932289D01*
X164257289Y-66056342D01*
X164165187Y-66205663D01*
X164165185Y-66205668D01*
X164140461Y-66280280D01*
X164110001Y-66372203D01*
X164110001Y-66372204D01*
X164110000Y-66372204D01*
X164099500Y-66474983D01*
X164099500Y-67025500D01*
X164079815Y-67092539D01*
X164027011Y-67138294D01*
X163975500Y-67149500D01*
X163735000Y-67149500D01*
X163667961Y-67129815D01*
X163622206Y-67077011D01*
X163611000Y-67025500D01*
X163611000Y-66734313D01*
X163610999Y-66734298D01*
X163608098Y-66697432D01*
X163608097Y-66697426D01*
X163562245Y-66539606D01*
X163562245Y-66539605D01*
X163562244Y-66539604D01*
X163562244Y-66539602D01*
X163561366Y-66538118D01*
X163561033Y-66536804D01*
X163559147Y-66532446D01*
X163559850Y-66532141D01*
X163544185Y-66470396D01*
X163559639Y-66417770D01*
X163559146Y-66417557D01*
X163560876Y-66413558D01*
X163561371Y-66411874D01*
X163562244Y-66410398D01*
X163608098Y-66252569D01*
X163611000Y-66215694D01*
X163611000Y-65801728D01*
X163630685Y-65734689D01*
X163647314Y-65714052D01*
X164735544Y-64625822D01*
X164796865Y-64592339D01*
X164866557Y-64597323D01*
G37*
%TD.AperFunction*%
%TA.AperFunction,Conductor*%
G36*
X171451132Y-50800542D02*
G01*
X171717225Y-50810498D01*
X171927583Y-50818764D01*
X171932032Y-50819102D01*
X172185974Y-50847715D01*
X172411099Y-50874360D01*
X172415303Y-50875006D01*
X172663451Y-50921958D01*
X172888986Y-50966819D01*
X172892853Y-50967721D01*
X173135652Y-51032779D01*
X173358288Y-51095569D01*
X173361911Y-51096713D01*
X173598532Y-51179511D01*
X173816363Y-51259873D01*
X173819661Y-51261200D01*
X174048568Y-51361071D01*
X174049704Y-51361581D01*
X174260484Y-51458752D01*
X174263428Y-51460207D01*
X174484014Y-51576790D01*
X174485262Y-51577469D01*
X174688027Y-51691023D01*
X174690662Y-51692587D01*
X174896667Y-51822028D01*
X174901743Y-51825218D01*
X174903185Y-51826152D01*
X175096495Y-51955318D01*
X175098867Y-51956984D01*
X175299333Y-52104935D01*
X175300874Y-52106110D01*
X175483553Y-52250123D01*
X175485549Y-52251767D01*
X175674378Y-52414267D01*
X175676007Y-52415721D01*
X175846852Y-52573648D01*
X175848594Y-52575324D01*
X176024674Y-52751404D01*
X176026362Y-52753159D01*
X176184277Y-52923991D01*
X176185738Y-52925628D01*
X176348223Y-53114440D01*
X176349883Y-53116456D01*
X176493868Y-53299099D01*
X176495063Y-53300665D01*
X176643014Y-53501131D01*
X176644680Y-53503503D01*
X176773834Y-53696795D01*
X176774780Y-53698255D01*
X176819211Y-53768966D01*
X176900451Y-53898259D01*
X176907390Y-53909301D01*
X176908988Y-53911993D01*
X177022508Y-54114698D01*
X177023228Y-54116022D01*
X177139777Y-54336542D01*
X177141259Y-54339541D01*
X177238414Y-54550288D01*
X177238936Y-54551451D01*
X177338796Y-54780333D01*
X177340138Y-54783668D01*
X177420486Y-55001463D01*
X177503284Y-55238086D01*
X177504436Y-55241735D01*
X177567221Y-55464353D01*
X177632270Y-55707118D01*
X177633188Y-55711057D01*
X177678039Y-55936534D01*
X177724989Y-56184677D01*
X177725640Y-56188917D01*
X177752279Y-56413983D01*
X177780894Y-56667950D01*
X177781237Y-56672459D01*
X177789521Y-56883300D01*
X177799457Y-57148868D01*
X177799500Y-57151152D01*
X177799500Y-88898847D01*
X177799457Y-88901132D01*
X177790985Y-89127555D01*
X177789521Y-89166699D01*
X177781237Y-89377539D01*
X177780894Y-89382048D01*
X177752279Y-89636015D01*
X177725640Y-89861081D01*
X177724989Y-89865321D01*
X177678039Y-90113464D01*
X177633192Y-90338927D01*
X177632270Y-90342880D01*
X177567221Y-90585645D01*
X177504436Y-90808263D01*
X177503284Y-90811912D01*
X177420486Y-91048535D01*
X177340138Y-91266330D01*
X177338796Y-91269665D01*
X177238936Y-91498547D01*
X177238414Y-91499710D01*
X177141259Y-91710457D01*
X177139769Y-91713472D01*
X177023228Y-91933976D01*
X177022508Y-91935300D01*
X176908988Y-92138005D01*
X176907390Y-92140697D01*
X176774780Y-92351743D01*
X176773834Y-92353203D01*
X176644680Y-92546495D01*
X176643014Y-92548867D01*
X176495063Y-92749333D01*
X176493868Y-92750899D01*
X176349906Y-92933515D01*
X176348210Y-92935574D01*
X176185743Y-93124364D01*
X176184277Y-93126007D01*
X176026362Y-93296839D01*
X176024674Y-93298594D01*
X175848594Y-93474674D01*
X175846839Y-93476362D01*
X175676007Y-93634277D01*
X175674364Y-93635743D01*
X175485574Y-93798210D01*
X175483515Y-93799906D01*
X175300899Y-93943868D01*
X175299333Y-93945063D01*
X175098867Y-94093014D01*
X175096495Y-94094680D01*
X174903203Y-94223834D01*
X174901743Y-94224780D01*
X174690697Y-94357390D01*
X174688005Y-94358988D01*
X174485300Y-94472508D01*
X174483976Y-94473228D01*
X174263472Y-94589769D01*
X174260457Y-94591259D01*
X174049710Y-94688414D01*
X174048547Y-94688936D01*
X173819665Y-94788796D01*
X173816330Y-94790138D01*
X173598535Y-94870486D01*
X173361912Y-94953284D01*
X173358263Y-94954436D01*
X173135645Y-95017221D01*
X172892880Y-95082270D01*
X172888927Y-95083192D01*
X172663464Y-95128039D01*
X172415321Y-95174989D01*
X172411081Y-95175640D01*
X172186015Y-95202279D01*
X171932048Y-95230894D01*
X171927538Y-95231237D01*
X171716889Y-95239513D01*
X171553648Y-95245621D01*
X171451132Y-95249457D01*
X171448848Y-95249500D01*
X139701152Y-95249500D01*
X139698867Y-95249457D01*
X139591409Y-95245436D01*
X139433109Y-95239513D01*
X139222460Y-95231237D01*
X139217950Y-95230894D01*
X138963983Y-95202279D01*
X138738917Y-95175640D01*
X138734677Y-95174989D01*
X138486534Y-95128039D01*
X138261057Y-95083188D01*
X138257118Y-95082270D01*
X138014353Y-95017221D01*
X137791735Y-94954436D01*
X137788086Y-94953284D01*
X137551463Y-94870486D01*
X137333668Y-94790138D01*
X137330333Y-94788796D01*
X137101451Y-94688936D01*
X137100288Y-94688414D01*
X136889541Y-94591259D01*
X136886542Y-94589777D01*
X136751687Y-94518504D01*
X136666022Y-94473228D01*
X136664698Y-94472508D01*
X136461993Y-94358988D01*
X136459313Y-94357397D01*
X136337545Y-94280885D01*
X136248255Y-94224780D01*
X136246795Y-94223834D01*
X136053503Y-94094680D01*
X136051131Y-94093014D01*
X135850665Y-93945063D01*
X135849099Y-93943868D01*
X135666456Y-93799883D01*
X135664440Y-93798223D01*
X135475628Y-93635738D01*
X135473991Y-93634277D01*
X135303159Y-93476362D01*
X135301404Y-93474674D01*
X135125324Y-93298594D01*
X135123648Y-93296852D01*
X134965721Y-93126007D01*
X134964255Y-93124364D01*
X134801767Y-92935549D01*
X134800123Y-92933553D01*
X134656110Y-92750874D01*
X134654935Y-92749333D01*
X134506984Y-92548867D01*
X134505318Y-92546495D01*
X134376164Y-92353203D01*
X134375218Y-92351743D01*
X134372028Y-92346667D01*
X134242587Y-92140662D01*
X134241023Y-92138027D01*
X134127469Y-91935262D01*
X134126790Y-91934014D01*
X134010207Y-91713428D01*
X134008752Y-91710484D01*
X133911581Y-91499704D01*
X133911062Y-91498547D01*
X133811202Y-91269665D01*
X133809873Y-91266363D01*
X133729507Y-91048521D01*
X133712132Y-90998867D01*
X133646713Y-90811911D01*
X133645569Y-90808288D01*
X133582779Y-90585652D01*
X133517721Y-90342853D01*
X133516819Y-90338986D01*
X133471958Y-90113451D01*
X133425006Y-89865303D01*
X133424360Y-89861099D01*
X133397715Y-89635974D01*
X133369102Y-89382032D01*
X133368764Y-89377581D01*
X133360488Y-89166962D01*
X133350540Y-88901078D01*
X133350499Y-88898901D01*
X133350499Y-78125474D01*
X140794662Y-78125474D01*
X140796707Y-78141527D01*
X140799003Y-78159560D01*
X140799500Y-78167388D01*
X140799500Y-80150743D01*
X140814925Y-80302439D01*
X140875837Y-80496579D01*
X140875844Y-80496594D01*
X140974589Y-80674499D01*
X140977275Y-80678358D01*
X140999416Y-80744627D01*
X140999500Y-80749195D01*
X140999500Y-80753201D01*
X141002401Y-80790067D01*
X141002402Y-80790073D01*
X141048254Y-80947893D01*
X141048255Y-80947896D01*
X141131917Y-81089362D01*
X141131923Y-81089370D01*
X141248129Y-81205576D01*
X141248133Y-81205579D01*
X141248135Y-81205581D01*
X141389602Y-81289244D01*
X141431224Y-81301336D01*
X141547426Y-81335097D01*
X141547429Y-81335097D01*
X141547431Y-81335098D01*
X141584306Y-81338000D01*
X141748190Y-81338000D01*
X141815229Y-81357685D01*
X141860984Y-81410489D01*
X141870928Y-81479647D01*
X141860865Y-81513771D01*
X141798397Y-81649725D01*
X141798393Y-81649737D01*
X141752396Y-81847945D01*
X141747242Y-82051358D01*
X141783140Y-82251648D01*
X141783142Y-82251654D01*
X141858622Y-82440615D01*
X141858626Y-82440622D01*
X141880844Y-82474334D01*
X141915601Y-82527071D01*
X141929036Y-82547455D01*
X141949492Y-82614263D01*
X141949500Y-82615692D01*
X141949500Y-82628201D01*
X141952401Y-82665067D01*
X141952402Y-82665073D01*
X141998254Y-82822893D01*
X141998255Y-82822896D01*
X142081917Y-82964362D01*
X142081923Y-82964370D01*
X142198129Y-83080576D01*
X142198133Y-83080579D01*
X142198135Y-83080581D01*
X142339602Y-83164244D01*
X142381224Y-83176336D01*
X142497426Y-83210097D01*
X142497429Y-83210097D01*
X142497431Y-83210098D01*
X142530785Y-83212722D01*
X142596072Y-83237604D01*
X142608731Y-83248652D01*
X144723261Y-85363181D01*
X146457986Y-87097906D01*
X146459051Y-87098997D01*
X146516499Y-87159432D01*
X146519940Y-87163052D01*
X146519947Y-87163058D01*
X146554053Y-87186795D01*
X146570303Y-87198106D01*
X146574044Y-87200926D01*
X146621593Y-87239698D01*
X146652045Y-87255604D01*
X146658758Y-87259672D01*
X146686951Y-87279295D01*
X146743329Y-87303489D01*
X146747578Y-87305507D01*
X146801951Y-87333909D01*
X146829489Y-87341788D01*
X146834974Y-87343358D01*
X146842368Y-87345990D01*
X146873942Y-87359540D01*
X146873945Y-87359540D01*
X146873946Y-87359541D01*
X146934022Y-87371887D01*
X146938600Y-87373010D01*
X146952501Y-87376987D01*
X146997582Y-87389887D01*
X147031839Y-87392495D01*
X147039614Y-87393586D01*
X147073255Y-87400500D01*
X147073259Y-87400500D01*
X147134598Y-87400500D01*
X147139304Y-87400678D01*
X147174062Y-87403325D01*
X147200475Y-87405337D01*
X147200475Y-87405336D01*
X147200476Y-87405337D01*
X147234559Y-87400996D01*
X147242389Y-87400500D01*
X148247717Y-87400500D01*
X148314756Y-87420185D01*
X148335398Y-87436819D01*
X149505819Y-88607240D01*
X149539304Y-88668563D01*
X149539304Y-88721279D01*
X149502805Y-88889064D01*
X149502804Y-88889071D01*
X149482390Y-89174498D01*
X149482390Y-89174501D01*
X149502804Y-89459933D01*
X149563628Y-89739537D01*
X149563630Y-89739543D01*
X149563631Y-89739546D01*
X149608968Y-89861099D01*
X149663635Y-90007666D01*
X149800770Y-90258809D01*
X149800775Y-90258817D01*
X149972254Y-90487887D01*
X149972270Y-90487905D01*
X150174594Y-90690229D01*
X150174612Y-90690245D01*
X150403682Y-90861724D01*
X150403690Y-90861729D01*
X150654833Y-90998864D01*
X150654832Y-90998864D01*
X150654836Y-90998865D01*
X150654839Y-90998867D01*
X150922954Y-91098869D01*
X150922960Y-91098870D01*
X150922962Y-91098871D01*
X151202566Y-91159695D01*
X151202568Y-91159695D01*
X151202572Y-91159696D01*
X151456220Y-91177837D01*
X151487999Y-91180110D01*
X151488000Y-91180110D01*
X151488001Y-91180110D01*
X151516595Y-91178064D01*
X151773428Y-91159696D01*
X152053046Y-91098869D01*
X152321161Y-90998867D01*
X152572315Y-90861726D01*
X152801395Y-90690239D01*
X153003739Y-90487895D01*
X153175226Y-90258815D01*
X153312367Y-90007661D01*
X153412369Y-89739546D01*
X153473196Y-89459928D01*
X153493610Y-89174500D01*
X153473196Y-88889072D01*
X153473194Y-88889064D01*
X153412371Y-88609462D01*
X153412370Y-88609460D01*
X153412369Y-88609454D01*
X153312367Y-88341339D01*
X153223392Y-88178395D01*
X153175229Y-88090190D01*
X153175224Y-88090182D01*
X153003745Y-87861112D01*
X153003729Y-87861094D01*
X152801405Y-87658770D01*
X152801387Y-87658754D01*
X152572317Y-87487275D01*
X152572309Y-87487270D01*
X152321166Y-87350135D01*
X152321167Y-87350135D01*
X152078626Y-87259672D01*
X152053046Y-87250131D01*
X152053043Y-87250130D01*
X152053037Y-87250128D01*
X151773433Y-87189304D01*
X151488001Y-87168890D01*
X151487999Y-87168890D01*
X151202571Y-87189304D01*
X151202564Y-87189305D01*
X151034778Y-87225804D01*
X150965086Y-87220820D01*
X150920739Y-87192319D01*
X150712137Y-86983717D01*
X149430473Y-85702053D01*
X149429415Y-85700967D01*
X149368561Y-85636949D01*
X149368560Y-85636948D01*
X149368559Y-85636947D01*
X149340704Y-85617559D01*
X149318209Y-85601902D01*
X149314446Y-85599064D01*
X149266913Y-85560305D01*
X149266906Y-85560300D01*
X149236459Y-85544397D01*
X149229751Y-85540334D01*
X149201549Y-85520705D01*
X149201546Y-85520703D01*
X149201545Y-85520703D01*
X149201541Y-85520701D01*
X149145180Y-85496514D01*
X149140924Y-85494493D01*
X149086557Y-85466094D01*
X149086550Y-85466091D01*
X149086549Y-85466091D01*
X149080508Y-85464362D01*
X149053530Y-85456642D01*
X149046130Y-85454008D01*
X149014557Y-85440459D01*
X149014558Y-85440459D01*
X148954466Y-85428109D01*
X148949891Y-85426986D01*
X148890920Y-85410113D01*
X148890925Y-85410113D01*
X148856658Y-85407503D01*
X148848880Y-85406412D01*
X148815242Y-85399500D01*
X148815241Y-85399500D01*
X148753902Y-85399500D01*
X148749195Y-85399321D01*
X148743621Y-85398896D01*
X148688024Y-85394662D01*
X148668089Y-85397201D01*
X148653940Y-85399003D01*
X148646111Y-85399500D01*
X147640783Y-85399500D01*
X147573744Y-85379815D01*
X147553102Y-85363181D01*
X145514353Y-83324433D01*
X145480868Y-83263110D01*
X145485852Y-83193418D01*
X145527724Y-83137485D01*
X145593188Y-83113068D01*
X145604470Y-83113237D01*
X145604470Y-83113000D01*
X145610759Y-83113000D01*
X145672098Y-83113000D01*
X145676804Y-83113178D01*
X145711562Y-83115825D01*
X145737975Y-83117837D01*
X145737975Y-83117836D01*
X145737976Y-83117837D01*
X145772059Y-83113496D01*
X145779889Y-83113000D01*
X147074741Y-83113000D01*
X147090433Y-83114660D01*
X147090469Y-83114311D01*
X147097202Y-83114998D01*
X147097203Y-83114999D01*
X147199991Y-83125500D01*
X148200008Y-83125499D01*
X148200016Y-83125498D01*
X148200019Y-83125498D01*
X148309532Y-83114311D01*
X148309567Y-83114660D01*
X148325258Y-83113000D01*
X149496716Y-83113000D01*
X149563755Y-83132685D01*
X149584397Y-83149318D01*
X149672980Y-83237900D01*
X149706465Y-83299223D01*
X149708657Y-83312979D01*
X149709651Y-83322709D01*
X149762996Y-83483694D01*
X149763001Y-83483705D01*
X149852029Y-83628040D01*
X149852032Y-83628044D01*
X149971955Y-83747967D01*
X149971959Y-83747970D01*
X150116294Y-83836998D01*
X150116297Y-83836999D01*
X150116303Y-83837003D01*
X150277292Y-83890349D01*
X150376655Y-83900500D01*
X150467541Y-83900499D01*
X150501654Y-83905284D01*
X150622582Y-83939887D01*
X150724028Y-83947612D01*
X150825474Y-83955337D01*
X150825476Y-83955337D01*
X150825477Y-83955337D01*
X151027321Y-83929631D01*
X151027321Y-83929630D01*
X151027328Y-83929630D01*
X151093053Y-83907163D01*
X151133160Y-83900499D01*
X151223338Y-83900499D01*
X151223344Y-83900499D01*
X151223352Y-83900498D01*
X151223355Y-83900498D01*
X151277760Y-83894940D01*
X151322708Y-83890349D01*
X151483697Y-83837003D01*
X151628044Y-83747968D01*
X151747968Y-83628044D01*
X151837003Y-83483697D01*
X151890349Y-83322708D01*
X151900500Y-83223345D01*
X151900499Y-82676656D01*
X151899315Y-82665069D01*
X151890349Y-82577292D01*
X151890348Y-82577289D01*
X151873709Y-82527075D01*
X151837003Y-82416303D01*
X151836999Y-82416297D01*
X151836998Y-82416294D01*
X151747970Y-82271959D01*
X151747967Y-82271955D01*
X151628044Y-82152032D01*
X151628040Y-82152029D01*
X151483705Y-82063001D01*
X151483699Y-82062998D01*
X151483697Y-82062997D01*
X151448573Y-82051358D01*
X151322709Y-82009651D01*
X151322695Y-82009648D01*
X151312972Y-82008655D01*
X151248281Y-81982256D01*
X151237899Y-81972979D01*
X150961043Y-81696123D01*
X150679473Y-81414553D01*
X150678415Y-81413467D01*
X150617561Y-81349449D01*
X150617560Y-81349448D01*
X150617559Y-81349447D01*
X150589704Y-81330059D01*
X150567209Y-81314402D01*
X150563446Y-81311564D01*
X150515913Y-81272805D01*
X150515906Y-81272800D01*
X150485459Y-81256897D01*
X150478751Y-81252834D01*
X150450549Y-81233205D01*
X150450546Y-81233203D01*
X150450545Y-81233203D01*
X150450541Y-81233201D01*
X150394180Y-81209014D01*
X150389924Y-81206993D01*
X150335557Y-81178594D01*
X150335550Y-81178591D01*
X150335549Y-81178591D01*
X150329508Y-81176862D01*
X150302530Y-81169142D01*
X150295130Y-81166508D01*
X150263557Y-81152959D01*
X150263558Y-81152959D01*
X150203466Y-81140609D01*
X150198891Y-81139486D01*
X150139920Y-81122613D01*
X150139925Y-81122613D01*
X150105658Y-81120003D01*
X150097880Y-81118912D01*
X150064242Y-81112000D01*
X150064241Y-81112000D01*
X150002902Y-81112000D01*
X149998195Y-81111821D01*
X149992621Y-81111396D01*
X149937024Y-81107162D01*
X149917089Y-81109701D01*
X149902940Y-81111503D01*
X149895111Y-81112000D01*
X148325259Y-81112000D01*
X148309566Y-81110339D01*
X148309531Y-81110689D01*
X148200010Y-81099500D01*
X147199998Y-81099500D01*
X147199980Y-81099501D01*
X147090468Y-81110689D01*
X147090432Y-81110339D01*
X147074742Y-81112000D01*
X146178282Y-81112000D01*
X146111243Y-81092315D01*
X146090601Y-81075681D01*
X144536160Y-79521240D01*
X144502675Y-79459917D01*
X144500223Y-79443287D01*
X144497598Y-79409932D01*
X144497597Y-79409926D01*
X144451745Y-79252106D01*
X144451744Y-79252103D01*
X144451744Y-79252102D01*
X144368081Y-79110635D01*
X144368079Y-79110633D01*
X144368076Y-79110629D01*
X144251870Y-78994423D01*
X144251862Y-78994417D01*
X144110396Y-78910755D01*
X144110393Y-78910754D01*
X143952573Y-78864902D01*
X143952567Y-78864901D01*
X143915701Y-78862000D01*
X143915694Y-78862000D01*
X143484306Y-78862000D01*
X143484298Y-78862000D01*
X143447432Y-78864901D01*
X143447426Y-78864902D01*
X143289606Y-78910754D01*
X143289603Y-78910755D01*
X143148137Y-78994417D01*
X143148129Y-78994423D01*
X143031923Y-79110629D01*
X143031917Y-79110637D01*
X143031231Y-79111798D01*
X143030456Y-79112521D01*
X143027139Y-79116798D01*
X143026448Y-79116262D01*
X142980161Y-79159480D01*
X142911419Y-79171983D01*
X142846830Y-79145336D01*
X142806901Y-79088000D01*
X142800500Y-79048675D01*
X142800500Y-78565781D01*
X142820185Y-78498742D01*
X142836814Y-78478105D01*
X145578101Y-75736819D01*
X145639424Y-75703334D01*
X145665782Y-75700500D01*
X146034217Y-75700500D01*
X146101256Y-75720185D01*
X146121898Y-75736819D01*
X147995542Y-77610463D01*
X147996601Y-77611550D01*
X148057437Y-77675550D01*
X148057439Y-77675551D01*
X148057441Y-77675553D01*
X148107794Y-77710600D01*
X148111537Y-77713422D01*
X148128131Y-77726952D01*
X148159095Y-77752200D01*
X148173981Y-77759975D01*
X148189545Y-77768105D01*
X148196255Y-77772170D01*
X148224451Y-77791795D01*
X148280822Y-77815986D01*
X148285071Y-77818003D01*
X148339451Y-77846410D01*
X148372480Y-77855859D01*
X148379872Y-77858492D01*
X148406230Y-77869803D01*
X148411442Y-77872040D01*
X148471529Y-77884387D01*
X148476095Y-77885509D01*
X148502631Y-77893101D01*
X148535082Y-77902387D01*
X148569339Y-77904995D01*
X148577114Y-77906086D01*
X148610755Y-77913000D01*
X148610759Y-77913000D01*
X148672099Y-77913000D01*
X148676805Y-77913178D01*
X148711563Y-77915825D01*
X148737976Y-77917837D01*
X148737976Y-77917836D01*
X148737977Y-77917837D01*
X148772060Y-77913496D01*
X148779890Y-77913000D01*
X149374741Y-77913000D01*
X149390433Y-77914660D01*
X149390469Y-77914311D01*
X149397202Y-77914998D01*
X149397203Y-77914999D01*
X149499991Y-77925500D01*
X149675500Y-77925499D01*
X149742539Y-77945183D01*
X149788294Y-77997987D01*
X149799500Y-78049499D01*
X149799500Y-79021955D01*
X149781040Y-79087050D01*
X149762999Y-79116298D01*
X149762996Y-79116305D01*
X149709651Y-79277290D01*
X149699500Y-79376647D01*
X149699500Y-79923337D01*
X149699501Y-79923355D01*
X149709650Y-80022707D01*
X149709651Y-80022710D01*
X149762996Y-80183694D01*
X149763001Y-80183705D01*
X149852029Y-80328040D01*
X149852032Y-80328044D01*
X149971955Y-80447967D01*
X149971959Y-80447970D01*
X150116294Y-80536998D01*
X150116297Y-80536999D01*
X150116303Y-80537003D01*
X150277292Y-80590349D01*
X150376655Y-80600500D01*
X150463672Y-80600499D01*
X150494752Y-80604457D01*
X150647715Y-80644063D01*
X150850936Y-80654369D01*
X151052071Y-80623556D01*
X151093484Y-80608217D01*
X151136550Y-80600499D01*
X151223338Y-80600499D01*
X151223344Y-80600499D01*
X151223352Y-80600498D01*
X151223355Y-80600498D01*
X151277760Y-80594940D01*
X151322708Y-80590349D01*
X151483697Y-80537003D01*
X151628044Y-80447968D01*
X151747968Y-80328044D01*
X151837003Y-80183697D01*
X151890349Y-80022708D01*
X151900500Y-79923345D01*
X151900499Y-79376656D01*
X151890349Y-79277292D01*
X151837003Y-79116303D01*
X151818960Y-79087050D01*
X151800500Y-79021955D01*
X151800500Y-78037000D01*
X151820185Y-77969961D01*
X151872989Y-77924206D01*
X151924500Y-77913000D01*
X153270716Y-77913000D01*
X153309719Y-77919293D01*
X153372203Y-77939999D01*
X153474991Y-77950500D01*
X153534216Y-77950499D01*
X153601255Y-77970182D01*
X153621898Y-77986818D01*
X154363181Y-78728101D01*
X154396666Y-78789424D01*
X154399500Y-78815782D01*
X154399500Y-80050743D01*
X154414925Y-80202439D01*
X154475837Y-80396579D01*
X154475844Y-80396594D01*
X154566438Y-80559814D01*
X154574591Y-80574502D01*
X154581318Y-80582338D01*
X154606307Y-80628512D01*
X154648254Y-80772893D01*
X154648255Y-80772896D01*
X154731917Y-80914362D01*
X154731923Y-80914370D01*
X154848129Y-81030576D01*
X154848133Y-81030579D01*
X154848135Y-81030581D01*
X154989602Y-81114244D01*
X155018408Y-81122613D01*
X155147426Y-81160097D01*
X155147429Y-81160097D01*
X155147431Y-81160098D01*
X155184306Y-81163000D01*
X155184314Y-81163000D01*
X155582105Y-81163000D01*
X155649144Y-81182685D01*
X155694899Y-81235489D01*
X155704843Y-81304647D01*
X155684328Y-81352996D01*
X155685890Y-81353920D01*
X155598255Y-81502103D01*
X155598254Y-81502104D01*
X155553886Y-81654820D01*
X155532868Y-81696123D01*
X155496555Y-81743037D01*
X155496553Y-81743040D01*
X155496552Y-81743042D01*
X155449292Y-81839387D01*
X155406940Y-81925728D01*
X155355937Y-82122714D01*
X155345631Y-82325936D01*
X155376442Y-82527063D01*
X155376445Y-82527075D01*
X155447112Y-82717882D01*
X155447116Y-82717891D01*
X155465704Y-82747712D01*
X155512564Y-82822893D01*
X155541562Y-82869415D01*
X155555406Y-82900411D01*
X155598253Y-83047893D01*
X155598255Y-83047896D01*
X155598256Y-83047898D01*
X155617582Y-83080576D01*
X155681917Y-83189362D01*
X155681923Y-83189370D01*
X155798129Y-83305576D01*
X155798133Y-83305579D01*
X155798135Y-83305581D01*
X155939602Y-83389244D01*
X155974903Y-83399500D01*
X156097426Y-83435097D01*
X156097429Y-83435097D01*
X156097431Y-83435098D01*
X156134306Y-83438000D01*
X156134314Y-83438000D01*
X156565686Y-83438000D01*
X156565694Y-83438000D01*
X156602569Y-83435098D01*
X156602571Y-83435097D01*
X156602573Y-83435097D01*
X156644191Y-83423005D01*
X156760398Y-83389244D01*
X156901865Y-83305581D01*
X156901867Y-83305578D01*
X156907099Y-83301521D01*
X156972136Y-83275986D01*
X156983100Y-83275500D01*
X160998259Y-83275500D01*
X162250500Y-83275500D01*
X162317539Y-83295185D01*
X162363294Y-83347989D01*
X162374500Y-83399500D01*
X162374500Y-87436006D01*
X162374480Y-87437576D01*
X162372243Y-87525862D01*
X162372243Y-87525870D01*
X162383064Y-87586239D01*
X162383718Y-87590904D01*
X162389925Y-87651930D01*
X162389927Y-87651944D01*
X162400208Y-87684713D01*
X162402079Y-87692337D01*
X162408142Y-87726152D01*
X162408142Y-87726155D01*
X162430894Y-87783112D01*
X162432474Y-87787551D01*
X162450841Y-87846088D01*
X162450844Y-87846095D01*
X162467509Y-87876119D01*
X162470879Y-87883214D01*
X162483622Y-87915114D01*
X162483627Y-87915124D01*
X162517377Y-87966333D01*
X162519818Y-87970363D01*
X162549588Y-88023998D01*
X162549589Y-88023999D01*
X162549591Y-88024002D01*
X162571968Y-88050067D01*
X162576693Y-88056335D01*
X162589263Y-88075406D01*
X162595598Y-88085019D01*
X162638978Y-88128399D01*
X162642169Y-88131843D01*
X162682131Y-88178392D01*
X162682134Y-88178395D01*
X162709294Y-88199418D01*
X162715190Y-88204611D01*
X163117819Y-88607240D01*
X163151304Y-88668563D01*
X163151304Y-88721279D01*
X163114805Y-88889064D01*
X163114804Y-88889071D01*
X163094390Y-89174498D01*
X163094390Y-89174501D01*
X163114804Y-89459933D01*
X163175628Y-89739537D01*
X163175630Y-89739543D01*
X163175631Y-89739546D01*
X163220968Y-89861099D01*
X163275635Y-90007666D01*
X163412770Y-90258809D01*
X163412775Y-90258817D01*
X163584254Y-90487887D01*
X163584270Y-90487905D01*
X163786594Y-90690229D01*
X163786612Y-90690245D01*
X164015682Y-90861724D01*
X164015690Y-90861729D01*
X164266833Y-90998864D01*
X164266832Y-90998864D01*
X164266836Y-90998865D01*
X164266839Y-90998867D01*
X164534954Y-91098869D01*
X164534960Y-91098870D01*
X164534962Y-91098871D01*
X164814566Y-91159695D01*
X164814568Y-91159695D01*
X164814572Y-91159696D01*
X165068220Y-91177837D01*
X165099999Y-91180110D01*
X165100000Y-91180110D01*
X165100001Y-91180110D01*
X165128595Y-91178064D01*
X165385428Y-91159696D01*
X165665046Y-91098869D01*
X165933161Y-90998867D01*
X166184315Y-90861726D01*
X166413395Y-90690239D01*
X166615739Y-90487895D01*
X166787226Y-90258815D01*
X166924367Y-90007661D01*
X167024369Y-89739546D01*
X167085196Y-89459928D01*
X167105610Y-89174500D01*
X167085196Y-88889072D01*
X167085194Y-88889064D01*
X167024371Y-88609462D01*
X167024370Y-88609460D01*
X167024369Y-88609454D01*
X166924367Y-88341339D01*
X166835392Y-88178395D01*
X166787229Y-88090190D01*
X166787224Y-88090182D01*
X166615745Y-87861112D01*
X166615729Y-87861094D01*
X166413405Y-87658770D01*
X166413387Y-87658754D01*
X166184317Y-87487275D01*
X166184309Y-87487270D01*
X165933166Y-87350135D01*
X165933167Y-87350135D01*
X165690626Y-87259672D01*
X165665046Y-87250131D01*
X165665043Y-87250130D01*
X165665037Y-87250128D01*
X165385433Y-87189304D01*
X165100001Y-87168890D01*
X165099999Y-87168890D01*
X164814571Y-87189304D01*
X164814564Y-87189305D01*
X164646778Y-87225804D01*
X164577086Y-87220820D01*
X164532741Y-87192321D01*
X164411817Y-87071396D01*
X164378334Y-87010075D01*
X164375500Y-86983717D01*
X164375500Y-82985300D01*
X164395185Y-82918261D01*
X164447989Y-82872506D01*
X164460482Y-82867599D01*
X164544334Y-82839814D01*
X164693656Y-82747712D01*
X164817712Y-82623656D01*
X164909814Y-82474334D01*
X164964999Y-82307797D01*
X164975500Y-82205009D01*
X164975499Y-81404992D01*
X164964999Y-81302203D01*
X164909814Y-81135666D01*
X164817712Y-80986344D01*
X164693656Y-80862288D01*
X164693655Y-80862287D01*
X164548731Y-80772898D01*
X164544905Y-80770538D01*
X164498181Y-80718591D01*
X164486958Y-80649629D01*
X164514801Y-80585546D01*
X164544906Y-80559461D01*
X164570036Y-80543961D01*
X164635132Y-80525500D01*
X165850500Y-80525500D01*
X165917539Y-80545185D01*
X165963294Y-80597989D01*
X165974500Y-80649500D01*
X165974500Y-82225019D01*
X165985001Y-82327801D01*
X166040184Y-82494333D01*
X166040189Y-82494344D01*
X166132285Y-82643653D01*
X166132288Y-82643657D01*
X166256342Y-82767711D01*
X166256346Y-82767714D01*
X166405655Y-82859810D01*
X166405658Y-82859811D01*
X166405664Y-82859815D01*
X166572200Y-82914999D01*
X166674988Y-82925500D01*
X166674991Y-82925500D01*
X166674993Y-82925500D01*
X172675007Y-82925500D01*
X172675012Y-82925500D01*
X172777800Y-82914999D01*
X172944336Y-82859815D01*
X173093657Y-82767712D01*
X173217712Y-82643657D01*
X173309815Y-82494336D01*
X173364999Y-82327800D01*
X173375500Y-82225012D01*
X173375500Y-76824988D01*
X173364999Y-76722200D01*
X173309815Y-76555664D01*
X173309811Y-76555658D01*
X173309810Y-76555655D01*
X173217714Y-76406346D01*
X173217711Y-76406342D01*
X173093657Y-76282288D01*
X173093653Y-76282285D01*
X172944344Y-76190189D01*
X172944338Y-76190186D01*
X172944336Y-76190185D01*
X172838154Y-76155000D01*
X172777801Y-76135001D01*
X172675019Y-76124500D01*
X172675012Y-76124500D01*
X166674988Y-76124500D01*
X166674980Y-76124500D01*
X166572198Y-76135001D01*
X166405666Y-76190184D01*
X166405655Y-76190189D01*
X166256346Y-76282285D01*
X166256342Y-76282288D01*
X166132288Y-76406342D01*
X166132285Y-76406346D01*
X166040189Y-76555655D01*
X166040184Y-76555666D01*
X165985001Y-76722198D01*
X165974500Y-76824980D01*
X165974500Y-78400500D01*
X165954815Y-78467539D01*
X165902011Y-78513294D01*
X165850500Y-78524500D01*
X164635132Y-78524500D01*
X164570033Y-78506037D01*
X164544903Y-78490536D01*
X164498180Y-78438588D01*
X164486959Y-78369625D01*
X164514803Y-78305543D01*
X164544901Y-78279464D01*
X164693656Y-78187712D01*
X164817712Y-78063656D01*
X164909814Y-77914334D01*
X164964999Y-77747797D01*
X164975500Y-77645009D01*
X164975499Y-76844992D01*
X164964999Y-76742203D01*
X164909814Y-76575666D01*
X164817712Y-76426344D01*
X164693656Y-76302288D01*
X164544334Y-76210186D01*
X164377797Y-76155001D01*
X164377795Y-76155000D01*
X164275016Y-76144500D01*
X164275009Y-76144500D01*
X163689089Y-76144500D01*
X163622050Y-76124815D01*
X163576295Y-76072011D01*
X163566351Y-76002853D01*
X163595376Y-75939297D01*
X163608319Y-75926414D01*
X163625109Y-75912000D01*
X163647398Y-75892866D01*
X163668431Y-75865691D01*
X163673601Y-75859821D01*
X166283320Y-73250101D01*
X166344641Y-73216618D01*
X166346945Y-73216251D01*
X166352795Y-73214999D01*
X166352797Y-73214999D01*
X166519334Y-73159814D01*
X166668656Y-73067712D01*
X166699549Y-73036819D01*
X166760872Y-73003334D01*
X166787230Y-73000500D01*
X168212770Y-73000500D01*
X168279809Y-73020185D01*
X168300451Y-73036819D01*
X168331344Y-73067712D01*
X168480666Y-73159814D01*
X168647203Y-73214999D01*
X168749991Y-73225500D01*
X169350008Y-73225499D01*
X169350016Y-73225498D01*
X169350019Y-73225498D01*
X169414520Y-73218909D01*
X169452797Y-73214999D01*
X169619334Y-73159814D01*
X169768656Y-73067712D01*
X169892712Y-72943656D01*
X169984814Y-72794334D01*
X170039999Y-72627797D01*
X170050500Y-72525009D01*
X170050499Y-72026938D01*
X170050579Y-72023798D01*
X170052408Y-71987726D01*
X170054369Y-71949064D01*
X170051930Y-71933142D01*
X170050500Y-71914366D01*
X170050500Y-70315781D01*
X170070185Y-70248742D01*
X170086815Y-70228104D01*
X170358004Y-69956914D01*
X170419325Y-69923431D01*
X170458286Y-69921239D01*
X170499991Y-69925500D01*
X171500008Y-69925499D01*
X171500016Y-69925498D01*
X171500019Y-69925498D01*
X171579410Y-69917388D01*
X171602797Y-69914999D01*
X171769334Y-69859814D01*
X171918656Y-69767712D01*
X172042712Y-69643656D01*
X172134814Y-69494334D01*
X172189999Y-69327797D01*
X172200500Y-69225009D01*
X172200499Y-68599992D01*
X172195334Y-68549434D01*
X172189999Y-68497203D01*
X172189998Y-68497200D01*
X172167819Y-68430268D01*
X172134814Y-68330666D01*
X172042712Y-68181344D01*
X171949048Y-68087680D01*
X171915564Y-68026358D01*
X171920548Y-67956666D01*
X171949049Y-67912319D01*
X171991225Y-67870143D01*
X172042712Y-67818656D01*
X172134814Y-67669334D01*
X172189999Y-67502797D01*
X172200500Y-67400009D01*
X172200499Y-66774992D01*
X172189999Y-66672203D01*
X172134814Y-66505666D01*
X172042712Y-66356344D01*
X172036819Y-66350451D01*
X172003334Y-66289128D01*
X172000500Y-66262770D01*
X172000500Y-65740891D01*
X172020185Y-65673852D01*
X172036819Y-65653210D01*
X172036824Y-65653205D01*
X172044026Y-65646003D01*
X172135362Y-65497925D01*
X172190087Y-65332775D01*
X172200500Y-65230848D01*
X172200500Y-64644152D01*
X172190087Y-64542225D01*
X172135362Y-64377075D01*
X172135358Y-64377069D01*
X172135357Y-64377066D01*
X172044028Y-64229000D01*
X172044025Y-64228996D01*
X171921003Y-64105974D01*
X171920999Y-64105971D01*
X171772933Y-64014642D01*
X171772927Y-64014639D01*
X171772925Y-64014638D01*
X171772922Y-64014637D01*
X171607776Y-63959913D01*
X171505855Y-63949500D01*
X171505848Y-63949500D01*
X171191496Y-63949500D01*
X171160417Y-63945542D01*
X171152290Y-63943438D01*
X171152287Y-63943437D01*
X171009600Y-63936201D01*
X170949064Y-63933131D01*
X170949063Y-63933131D01*
X170949061Y-63933131D01*
X170881784Y-63943438D01*
X170851547Y-63948070D01*
X170832772Y-63949500D01*
X170494144Y-63949500D01*
X170392223Y-63959913D01*
X170227077Y-64014637D01*
X170227066Y-64014642D01*
X170079000Y-64105971D01*
X170078996Y-64105974D01*
X169955974Y-64228996D01*
X169955971Y-64229000D01*
X169864642Y-64377066D01*
X169864637Y-64377077D01*
X169809913Y-64542223D01*
X169799500Y-64644144D01*
X169799500Y-65230855D01*
X169809913Y-65332776D01*
X169864637Y-65497922D01*
X169864642Y-65497933D01*
X169926450Y-65598138D01*
X169955974Y-65646003D01*
X169963180Y-65653209D01*
X169996665Y-65714527D01*
X169999500Y-65740890D01*
X169999500Y-66262769D01*
X169979815Y-66329808D01*
X169963185Y-66350446D01*
X169957286Y-66356345D01*
X169865189Y-66505659D01*
X169865185Y-66505666D01*
X169865186Y-66505666D01*
X169810001Y-66672203D01*
X169810001Y-66672204D01*
X169810000Y-66672204D01*
X169799500Y-66774983D01*
X169799500Y-67400001D01*
X169799501Y-67400019D01*
X169810000Y-67502796D01*
X169810001Y-67502799D01*
X169865185Y-67669331D01*
X169865189Y-67669340D01*
X169906359Y-67736087D01*
X169924799Y-67803479D01*
X169903876Y-67870143D01*
X169850234Y-67914912D01*
X169813370Y-67924546D01*
X169785064Y-67927425D01*
X169785055Y-67927427D01*
X169752281Y-67937710D01*
X169744653Y-67939582D01*
X169710849Y-67945641D01*
X169653881Y-67968395D01*
X169649445Y-67969974D01*
X169590914Y-67988340D01*
X169590910Y-67988342D01*
X169560878Y-68005010D01*
X169553784Y-68008379D01*
X169521882Y-68021123D01*
X169521877Y-68021125D01*
X169470656Y-68054881D01*
X169466628Y-68057322D01*
X169413001Y-68087088D01*
X169386934Y-68109465D01*
X169380665Y-68114192D01*
X169351981Y-68133097D01*
X169351977Y-68133101D01*
X169308612Y-68176467D01*
X169305156Y-68179669D01*
X169258605Y-68219634D01*
X169237576Y-68246799D01*
X169232385Y-68252692D01*
X168352090Y-69132988D01*
X168350966Y-69134084D01*
X168286946Y-69194942D01*
X168251899Y-69245294D01*
X168249062Y-69249056D01*
X168210302Y-69296592D01*
X168210299Y-69296597D01*
X168194392Y-69327047D01*
X168190324Y-69333761D01*
X168170702Y-69361954D01*
X168146509Y-69418330D01*
X168144488Y-69422584D01*
X168116091Y-69476951D01*
X168116090Y-69476952D01*
X168106640Y-69509975D01*
X168104007Y-69517371D01*
X168090459Y-69548943D01*
X168078113Y-69609019D01*
X168076990Y-69613595D01*
X168060113Y-69672577D01*
X168060113Y-69672579D01*
X168057503Y-69706841D01*
X168056414Y-69714608D01*
X168051851Y-69736818D01*
X168049500Y-69748258D01*
X168049500Y-69809597D01*
X168049321Y-69814306D01*
X168044662Y-69875474D01*
X168046512Y-69889998D01*
X168049003Y-69909560D01*
X168049500Y-69917388D01*
X168049500Y-70875500D01*
X168029815Y-70942539D01*
X167977011Y-70988294D01*
X167925500Y-70999500D01*
X167074500Y-70999500D01*
X167007461Y-70979815D01*
X166961706Y-70927011D01*
X166950500Y-70875500D01*
X166950500Y-69163491D01*
X166950520Y-69161921D01*
X166952757Y-69073642D01*
X166952756Y-69073641D01*
X166952757Y-69073637D01*
X166941930Y-69013234D01*
X166941280Y-69008599D01*
X166935074Y-68947562D01*
X166924790Y-68914786D01*
X166922920Y-68907168D01*
X166916859Y-68873348D01*
X166916858Y-68873346D01*
X166916858Y-68873344D01*
X166894098Y-68816366D01*
X166892517Y-68811925D01*
X166874160Y-68753415D01*
X166874159Y-68753414D01*
X166874159Y-68753412D01*
X166857482Y-68723366D01*
X166854122Y-68716288D01*
X166841378Y-68684383D01*
X166841375Y-68684378D01*
X166841374Y-68684376D01*
X166822292Y-68655424D01*
X166807605Y-68633139D01*
X166805183Y-68629142D01*
X166775409Y-68575498D01*
X166753034Y-68549434D01*
X166748306Y-68543163D01*
X166729404Y-68514484D01*
X166686032Y-68471112D01*
X166682827Y-68467654D01*
X166650733Y-68430268D01*
X166622002Y-68366579D01*
X166632265Y-68297467D01*
X166678263Y-68244875D01*
X166744816Y-68225499D01*
X167300008Y-68225499D01*
X167300016Y-68225498D01*
X167300019Y-68225498D01*
X167357423Y-68219634D01*
X167402797Y-68214999D01*
X167569334Y-68159814D01*
X167718656Y-68067712D01*
X167842712Y-67943656D01*
X167934814Y-67794334D01*
X167989999Y-67627797D01*
X168000500Y-67525009D01*
X168000500Y-67006408D01*
X168000500Y-65313474D01*
X168000520Y-65311904D01*
X168002757Y-65223641D01*
X168002756Y-65223640D01*
X168002757Y-65223637D01*
X167991933Y-65163249D01*
X167991280Y-65158587D01*
X167985074Y-65097563D01*
X167985074Y-65097562D01*
X167974784Y-65064768D01*
X167972917Y-65057155D01*
X167971739Y-65050584D01*
X167966858Y-65023347D01*
X167944100Y-64966374D01*
X167942521Y-64961938D01*
X167932710Y-64930668D01*
X167924159Y-64903412D01*
X167924158Y-64903410D01*
X167924157Y-64903407D01*
X167907488Y-64873378D01*
X167904117Y-64866278D01*
X167891378Y-64834386D01*
X167891377Y-64834383D01*
X167857620Y-64783163D01*
X167855180Y-64779134D01*
X167844304Y-64759540D01*
X167825409Y-64725498D01*
X167825407Y-64725495D01*
X167803033Y-64699434D01*
X167798302Y-64693159D01*
X167789164Y-64679294D01*
X167779402Y-64664481D01*
X167736012Y-64621091D01*
X167732822Y-64617648D01*
X167692867Y-64571106D01*
X167692863Y-64571102D01*
X167665698Y-64550074D01*
X167659811Y-64544890D01*
X166127018Y-63012098D01*
X166093534Y-62950776D01*
X166091342Y-62937015D01*
X166090349Y-62927292D01*
X166037003Y-62766303D01*
X166036999Y-62766297D01*
X166036998Y-62766294D01*
X165947970Y-62621959D01*
X165947967Y-62621955D01*
X165828044Y-62502032D01*
X165828040Y-62502029D01*
X165683705Y-62413001D01*
X165683699Y-62412998D01*
X165683697Y-62412997D01*
X165636722Y-62397431D01*
X165522709Y-62359651D01*
X165423352Y-62349500D01*
X165423345Y-62349500D01*
X165332460Y-62349500D01*
X165298348Y-62344716D01*
X165213260Y-62320369D01*
X165177418Y-62310113D01*
X165177417Y-62310112D01*
X165177416Y-62310112D01*
X164974525Y-62294662D01*
X164974522Y-62294662D01*
X164772674Y-62320369D01*
X164772670Y-62320370D01*
X164706945Y-62342835D01*
X164666841Y-62349500D01*
X164576663Y-62349500D01*
X164576644Y-62349501D01*
X164477292Y-62359650D01*
X164477289Y-62359651D01*
X164316305Y-62412996D01*
X164316294Y-62413001D01*
X164171959Y-62502029D01*
X164171955Y-62502032D01*
X164052032Y-62621955D01*
X164052029Y-62621959D01*
X163963001Y-62766294D01*
X163962996Y-62766305D01*
X163909651Y-62927290D01*
X163899500Y-63026647D01*
X163899500Y-63287769D01*
X163879815Y-63354808D01*
X163863181Y-63375450D01*
X162075451Y-65163181D01*
X162014128Y-65196666D01*
X161987770Y-65199500D01*
X161869792Y-65199500D01*
X161834226Y-65202299D01*
X161765849Y-65187933D01*
X161716093Y-65138880D01*
X161700500Y-65078681D01*
X161700500Y-64511998D01*
X161720185Y-64444959D01*
X161722690Y-64441212D01*
X161755816Y-64393617D01*
X161757628Y-64391150D01*
X161803448Y-64331958D01*
X161810549Y-64317479D01*
X161820092Y-64301269D01*
X161829295Y-64288049D01*
X161858822Y-64219241D01*
X161860085Y-64216493D01*
X161893060Y-64149271D01*
X161897098Y-64133672D01*
X161903191Y-64115851D01*
X161909538Y-64101062D01*
X161909540Y-64101058D01*
X161924607Y-64027730D01*
X161925299Y-64024749D01*
X161944063Y-63952285D01*
X161944879Y-63936193D01*
X161947258Y-63917516D01*
X161950500Y-63901742D01*
X161950500Y-63826928D01*
X161950580Y-63823788D01*
X161952057Y-63794649D01*
X161954369Y-63749064D01*
X161951930Y-63733142D01*
X161950500Y-63714366D01*
X161950500Y-63093219D01*
X161970185Y-63026180D01*
X162022989Y-62980425D01*
X162052623Y-62971164D01*
X162076653Y-62966858D01*
X162133621Y-62944101D01*
X162138053Y-62942524D01*
X162196588Y-62924159D01*
X162226627Y-62907484D01*
X162233708Y-62904122D01*
X162265617Y-62891377D01*
X162316854Y-62857608D01*
X162320851Y-62855187D01*
X162374502Y-62825409D01*
X162400568Y-62803030D01*
X162406843Y-62798300D01*
X162422026Y-62788294D01*
X162435519Y-62779402D01*
X162478892Y-62736027D01*
X162482350Y-62732823D01*
X162485613Y-62730020D01*
X162528895Y-62692866D01*
X162549928Y-62665691D01*
X162555098Y-62659821D01*
X164178100Y-61036818D01*
X164239424Y-61003334D01*
X164265782Y-61000500D01*
X165050743Y-61000500D01*
X165126590Y-60992787D01*
X165202438Y-60985074D01*
X165294509Y-60956185D01*
X165331631Y-60950499D01*
X165423338Y-60950499D01*
X165423344Y-60950499D01*
X165423352Y-60950498D01*
X165423355Y-60950498D01*
X165477760Y-60944940D01*
X165522708Y-60940349D01*
X165683697Y-60887003D01*
X165828044Y-60797968D01*
X165947968Y-60678044D01*
X166037003Y-60533697D01*
X166090349Y-60372708D01*
X166100500Y-60273345D01*
X166100499Y-59726656D01*
X166090349Y-59627292D01*
X166037003Y-59466303D01*
X166036999Y-59466297D01*
X166036998Y-59466294D01*
X165947970Y-59321959D01*
X165947967Y-59321955D01*
X165828044Y-59202032D01*
X165828040Y-59202029D01*
X165683705Y-59113001D01*
X165683699Y-59112998D01*
X165683697Y-59112997D01*
X165571564Y-59075840D01*
X165522709Y-59059651D01*
X165423352Y-59049500D01*
X165423345Y-59049500D01*
X165347605Y-59049500D01*
X165307399Y-59041236D01*
X165307053Y-59042341D01*
X165301061Y-59040460D01*
X165101741Y-58999500D01*
X163813476Y-58999500D01*
X163811914Y-58999480D01*
X163802556Y-58999242D01*
X163723638Y-58997242D01*
X163723635Y-58997242D01*
X163671823Y-59006529D01*
X163663254Y-59008064D01*
X163658595Y-59008718D01*
X163597564Y-59014925D01*
X163597562Y-59014926D01*
X163564780Y-59025210D01*
X163557156Y-59027081D01*
X163549308Y-59028488D01*
X163523349Y-59033141D01*
X163466381Y-59055895D01*
X163461945Y-59057474D01*
X163403414Y-59075840D01*
X163403410Y-59075842D01*
X163373378Y-59092510D01*
X163366284Y-59095879D01*
X163334382Y-59108623D01*
X163334377Y-59108625D01*
X163283156Y-59142381D01*
X163279128Y-59144822D01*
X163225501Y-59174588D01*
X163199434Y-59196965D01*
X163193165Y-59201692D01*
X163164484Y-59220595D01*
X163164478Y-59220600D01*
X163121109Y-59263968D01*
X163117655Y-59267169D01*
X163071102Y-59307136D01*
X163050076Y-59334298D01*
X163044885Y-59340192D01*
X161592613Y-60792464D01*
X161531290Y-60825949D01*
X161465928Y-60822489D01*
X161352797Y-60785001D01*
X161352795Y-60785000D01*
X161250010Y-60774500D01*
X160649998Y-60774500D01*
X160649980Y-60774501D01*
X160547203Y-60785000D01*
X160547200Y-60785001D01*
X160380668Y-60840185D01*
X160380663Y-60840187D01*
X160231342Y-60932289D01*
X160107289Y-61056342D01*
X160015187Y-61205663D01*
X160015185Y-61205666D01*
X160015186Y-61205666D01*
X159960001Y-61372203D01*
X159960001Y-61372204D01*
X159960000Y-61372204D01*
X159949500Y-61474983D01*
X159949500Y-61973070D01*
X159949420Y-61976210D01*
X159945631Y-62050935D01*
X159945631Y-62050936D01*
X159948070Y-62066857D01*
X159949500Y-62085633D01*
X159949500Y-62675500D01*
X159929815Y-62742539D01*
X159877011Y-62788294D01*
X159825500Y-62799500D01*
X156849257Y-62799500D01*
X156697560Y-62814925D01*
X156503420Y-62875837D01*
X156503405Y-62875844D01*
X156325500Y-62974589D01*
X156325495Y-62974592D01*
X156171106Y-63107132D01*
X156171104Y-63107134D01*
X156046554Y-63268037D01*
X156046553Y-63268040D01*
X155956940Y-63450728D01*
X155905937Y-63647714D01*
X155895631Y-63850936D01*
X155926442Y-64052063D01*
X155926445Y-64052075D01*
X155997111Y-64242881D01*
X155997113Y-64242884D01*
X155997114Y-64242887D01*
X156033494Y-64301254D01*
X156104745Y-64415567D01*
X156104747Y-64415569D01*
X156104748Y-64415571D01*
X156244941Y-64563053D01*
X156335127Y-64625824D01*
X156411949Y-64679294D01*
X156411950Y-64679294D01*
X156411951Y-64679295D01*
X156598942Y-64759540D01*
X156798259Y-64800500D01*
X160011770Y-64800500D01*
X160078809Y-64820185D01*
X160124564Y-64872989D01*
X160134508Y-64942147D01*
X160105483Y-65005703D01*
X160099451Y-65012181D01*
X159948451Y-65163181D01*
X159887128Y-65196666D01*
X159860770Y-65199500D01*
X159594798Y-65199500D01*
X159557932Y-65202401D01*
X159557926Y-65202402D01*
X159400106Y-65248254D01*
X159400103Y-65248255D01*
X159258637Y-65331917D01*
X159258629Y-65331923D01*
X159142423Y-65448129D01*
X159142417Y-65448137D01*
X159058755Y-65589603D01*
X159058754Y-65589606D01*
X159012902Y-65747426D01*
X159012901Y-65747432D01*
X159010000Y-65784298D01*
X159010000Y-66215701D01*
X159012901Y-66252567D01*
X159012902Y-66252573D01*
X159058754Y-66410393D01*
X159058755Y-66410396D01*
X159142417Y-66551862D01*
X159142423Y-66551870D01*
X159258629Y-66668076D01*
X159258633Y-66668079D01*
X159258635Y-66668081D01*
X159400102Y-66751744D01*
X159441724Y-66763836D01*
X159557926Y-66797597D01*
X159557929Y-66797597D01*
X159557931Y-66797598D01*
X159594806Y-66800500D01*
X159594814Y-66800500D01*
X160575772Y-66800500D01*
X160642811Y-66820185D01*
X160688566Y-66872989D01*
X160698510Y-66942147D01*
X160688154Y-66976904D01*
X160664370Y-67027906D01*
X160618199Y-67080344D01*
X160551990Y-67099500D01*
X159594798Y-67099500D01*
X159557932Y-67102401D01*
X159557926Y-67102402D01*
X159412767Y-67144576D01*
X159378172Y-67149500D01*
X156676206Y-67149500D01*
X156658235Y-67148191D01*
X156644553Y-67146187D01*
X156581075Y-67116995D01*
X156577430Y-67113690D01*
X156536134Y-67074729D01*
X156534874Y-67073506D01*
X155241097Y-65779729D01*
X155218340Y-65746244D01*
X155218216Y-65746318D01*
X155217042Y-65744334D01*
X155214976Y-65741293D01*
X155214244Y-65739602D01*
X155130583Y-65598138D01*
X155130576Y-65598129D01*
X155014370Y-65481923D01*
X155014362Y-65481917D01*
X154872896Y-65398255D01*
X154872893Y-65398254D01*
X154715073Y-65352402D01*
X154715067Y-65352401D01*
X154678201Y-65349500D01*
X154678194Y-65349500D01*
X154665162Y-65349500D01*
X154598123Y-65329815D01*
X154594325Y-65327275D01*
X154572241Y-65311904D01*
X154558582Y-65302397D01*
X154514805Y-65247944D01*
X154507416Y-65178466D01*
X154538762Y-65116023D01*
X154569243Y-65092204D01*
X154599502Y-65075409D01*
X154599508Y-65075403D01*
X154603358Y-65072725D01*
X154669627Y-65050584D01*
X154674195Y-65050500D01*
X154678186Y-65050500D01*
X154678194Y-65050500D01*
X154715069Y-65047598D01*
X154715071Y-65047597D01*
X154715073Y-65047597D01*
X154756691Y-65035505D01*
X154872898Y-65001744D01*
X155014365Y-64918081D01*
X155130581Y-64801865D01*
X155214244Y-64660398D01*
X155260098Y-64502569D01*
X155263000Y-64465694D01*
X155263000Y-64034306D01*
X155260098Y-63997431D01*
X155246982Y-63952287D01*
X155214245Y-63839606D01*
X155214244Y-63839603D01*
X155214244Y-63839602D01*
X155130581Y-63698135D01*
X155130579Y-63698133D01*
X155130576Y-63698129D01*
X155014370Y-63581923D01*
X155014362Y-63581917D01*
X154902286Y-63515636D01*
X154872898Y-63498256D01*
X154872897Y-63498255D01*
X154872896Y-63498255D01*
X154872893Y-63498254D01*
X154715073Y-63452402D01*
X154715067Y-63452401D01*
X154678201Y-63449500D01*
X154678194Y-63449500D01*
X154665162Y-63449500D01*
X154598123Y-63429815D01*
X154594325Y-63427275D01*
X154590467Y-63424590D01*
X154569755Y-63410174D01*
X154513050Y-63370705D01*
X154326056Y-63290459D01*
X154126741Y-63249500D01*
X152475993Y-63249500D01*
X152474430Y-63249480D01*
X152386137Y-63247243D01*
X152386128Y-63247243D01*
X152325760Y-63258064D01*
X152321095Y-63258718D01*
X152260063Y-63264925D01*
X152260055Y-63264927D01*
X152227281Y-63275210D01*
X152219654Y-63277082D01*
X152185850Y-63283141D01*
X152128884Y-63305894D01*
X152124448Y-63307473D01*
X152065914Y-63325840D01*
X152065912Y-63325841D01*
X152035885Y-63342506D01*
X152028793Y-63345874D01*
X151996883Y-63358621D01*
X151945654Y-63392383D01*
X151941626Y-63394824D01*
X151888002Y-63424588D01*
X151887999Y-63424590D01*
X151861927Y-63446970D01*
X151855660Y-63451695D01*
X151826982Y-63470598D01*
X151826975Y-63470603D01*
X151783616Y-63513962D01*
X151780161Y-63517164D01*
X151733606Y-63557132D01*
X151733605Y-63557133D01*
X151712576Y-63584300D01*
X151707385Y-63590194D01*
X151531431Y-63766148D01*
X151470108Y-63799633D01*
X151400417Y-63794649D01*
X151356069Y-63766148D01*
X150098659Y-62508738D01*
X150065174Y-62447415D01*
X150062723Y-62430791D01*
X150060098Y-62397431D01*
X150057938Y-62389998D01*
X150026336Y-62281224D01*
X150014244Y-62239602D01*
X149930581Y-62098135D01*
X149930579Y-62098133D01*
X149930576Y-62098129D01*
X149814370Y-61981923D01*
X149814362Y-61981917D01*
X149672903Y-61898259D01*
X149672898Y-61898256D01*
X149672897Y-61898255D01*
X149672896Y-61898255D01*
X149672893Y-61898254D01*
X149515073Y-61852402D01*
X149515067Y-61852401D01*
X149478201Y-61849500D01*
X149478194Y-61849500D01*
X149470626Y-61849500D01*
X149403587Y-61829815D01*
X149392265Y-61821602D01*
X149378407Y-61810302D01*
X149373824Y-61807908D01*
X149323517Y-61759422D01*
X149307409Y-61691434D01*
X149330615Y-61625531D01*
X149368326Y-61591142D01*
X149408252Y-61567639D01*
X149471154Y-61550500D01*
X149478186Y-61550500D01*
X149478194Y-61550500D01*
X149515069Y-61547598D01*
X149515071Y-61547597D01*
X149515073Y-61547597D01*
X149556691Y-61535505D01*
X149672898Y-61501744D01*
X149814365Y-61418081D01*
X149930581Y-61301865D01*
X150014244Y-61160398D01*
X150060098Y-61002569D01*
X150063000Y-60965694D01*
X150063000Y-60724499D01*
X150082685Y-60657461D01*
X150135489Y-60611706D01*
X150187000Y-60600500D01*
X151834217Y-60600500D01*
X151901256Y-60620185D01*
X151921898Y-60636819D01*
X152838181Y-61553102D01*
X152871666Y-61614425D01*
X152874500Y-61640781D01*
X152874500Y-61700000D01*
X152874501Y-61700019D01*
X152885000Y-61802796D01*
X152885001Y-61802799D01*
X152916633Y-61898256D01*
X152940186Y-61969334D01*
X153032288Y-62118656D01*
X153156344Y-62242712D01*
X153305666Y-62334814D01*
X153472203Y-62389999D01*
X153574991Y-62400500D01*
X154200008Y-62400499D01*
X154200016Y-62400498D01*
X154200019Y-62400498D01*
X154256302Y-62394748D01*
X154302797Y-62389999D01*
X154469334Y-62334814D01*
X154618656Y-62242712D01*
X154712322Y-62149045D01*
X154773641Y-62115563D01*
X154843333Y-62120547D01*
X154887676Y-62149044D01*
X154981344Y-62242712D01*
X155130666Y-62334814D01*
X155297203Y-62389999D01*
X155399991Y-62400500D01*
X156025008Y-62400499D01*
X156025016Y-62400498D01*
X156025019Y-62400498D01*
X156081302Y-62394748D01*
X156127797Y-62389999D01*
X156294334Y-62334814D01*
X156443656Y-62242712D01*
X156567712Y-62118656D01*
X156659814Y-61969334D01*
X156714999Y-61802797D01*
X156725500Y-61700009D01*
X156725499Y-60699992D01*
X156721154Y-60657461D01*
X156714311Y-60590468D01*
X156714660Y-60590432D01*
X156713000Y-60574741D01*
X156713000Y-59225991D01*
X156713020Y-59224421D01*
X156715257Y-59136141D01*
X156715256Y-59136140D01*
X156715257Y-59136137D01*
X156704433Y-59075749D01*
X156703780Y-59071087D01*
X156698069Y-59014926D01*
X156697574Y-59010062D01*
X156687284Y-58977268D01*
X156685417Y-58969655D01*
X156683841Y-58960863D01*
X156679358Y-58935847D01*
X156656600Y-58878874D01*
X156655021Y-58874438D01*
X156653648Y-58870063D01*
X156636659Y-58815912D01*
X156636658Y-58815910D01*
X156636657Y-58815907D01*
X156619988Y-58785878D01*
X156616617Y-58778778D01*
X156603878Y-58746886D01*
X156603877Y-58746883D01*
X156570120Y-58695663D01*
X156567680Y-58691634D01*
X156556879Y-58672175D01*
X156537909Y-58637998D01*
X156537907Y-58637995D01*
X156515533Y-58611934D01*
X156510802Y-58605659D01*
X156503555Y-58594663D01*
X156491902Y-58576981D01*
X156448533Y-58533612D01*
X156445329Y-58530156D01*
X156405367Y-58483606D01*
X156378198Y-58462575D01*
X156372304Y-58457383D01*
X156034699Y-58119778D01*
X156001214Y-58058455D01*
X156006198Y-57988763D01*
X156020798Y-57960985D01*
X156108427Y-57835838D01*
X156163001Y-57792216D01*
X156232500Y-57785024D01*
X156294854Y-57816546D01*
X156311574Y-57835841D01*
X156441505Y-58021401D01*
X156608599Y-58188495D01*
X156677613Y-58236819D01*
X156802165Y-58324032D01*
X156802167Y-58324033D01*
X156802170Y-58324035D01*
X157016337Y-58423903D01*
X157016343Y-58423904D01*
X157016344Y-58423905D01*
X157028955Y-58427284D01*
X157244592Y-58485063D01*
X157432918Y-58501539D01*
X157479999Y-58505659D01*
X157480000Y-58505659D01*
X157480001Y-58505659D01*
X157519234Y-58502226D01*
X157715408Y-58485063D01*
X157943663Y-58423903D01*
X158157830Y-58324035D01*
X158351401Y-58188495D01*
X158353077Y-58186819D01*
X158353995Y-58186317D01*
X158355544Y-58185018D01*
X158355805Y-58185329D01*
X158414400Y-58153334D01*
X158440758Y-58150500D01*
X160112770Y-58150500D01*
X160179809Y-58170185D01*
X160200451Y-58186819D01*
X160256344Y-58242712D01*
X160405666Y-58334814D01*
X160572203Y-58389999D01*
X160674991Y-58400500D01*
X161300008Y-58400499D01*
X161300016Y-58400498D01*
X161300019Y-58400498D01*
X161356302Y-58394748D01*
X161402797Y-58389999D01*
X161569334Y-58334814D01*
X161718656Y-58242712D01*
X161812322Y-58149045D01*
X161873641Y-58115563D01*
X161943333Y-58120547D01*
X161987676Y-58149044D01*
X162081344Y-58242712D01*
X162230666Y-58334814D01*
X162397203Y-58389999D01*
X162499991Y-58400500D01*
X163125008Y-58400499D01*
X163125016Y-58400498D01*
X163125019Y-58400498D01*
X163181302Y-58394748D01*
X163227797Y-58389999D01*
X163394334Y-58334814D01*
X163543656Y-58242712D01*
X163549548Y-58236819D01*
X163610872Y-58203334D01*
X163637230Y-58200500D01*
X165576655Y-58200500D01*
X165667540Y-58200500D01*
X165701652Y-58205284D01*
X165822582Y-58239887D01*
X165859655Y-58242710D01*
X166025475Y-58255337D01*
X166025477Y-58255337D01*
X166025478Y-58255337D01*
X166227321Y-58229631D01*
X166227321Y-58229630D01*
X166227328Y-58229630D01*
X166293053Y-58207163D01*
X166333160Y-58200499D01*
X166423338Y-58200499D01*
X166423344Y-58200499D01*
X166423352Y-58200498D01*
X166423355Y-58200498D01*
X166477760Y-58194940D01*
X166522708Y-58190349D01*
X166683697Y-58137003D01*
X166828044Y-58047968D01*
X166947968Y-57928044D01*
X167037003Y-57783697D01*
X167090349Y-57622708D01*
X167100500Y-57523345D01*
X167100499Y-56976656D01*
X167090349Y-56877292D01*
X167037003Y-56716303D01*
X167036999Y-56716297D01*
X167036998Y-56716294D01*
X166947970Y-56571959D01*
X166947967Y-56571955D01*
X166828044Y-56452032D01*
X166828040Y-56452029D01*
X166683705Y-56363001D01*
X166683699Y-56362998D01*
X166683697Y-56362997D01*
X166683694Y-56362996D01*
X166522709Y-56309651D01*
X166423352Y-56299500D01*
X166423345Y-56299500D01*
X166417443Y-56299500D01*
X166360032Y-56285409D01*
X166350611Y-56280488D01*
X166323049Y-56266091D01*
X166317008Y-56264362D01*
X166290030Y-56256642D01*
X166282630Y-56254008D01*
X166251057Y-56240459D01*
X166251058Y-56240459D01*
X166190966Y-56228109D01*
X166186391Y-56226986D01*
X166127420Y-56210113D01*
X166127425Y-56210113D01*
X166093158Y-56207503D01*
X166085380Y-56206412D01*
X166051742Y-56199500D01*
X166051741Y-56199500D01*
X165990402Y-56199500D01*
X165985695Y-56199321D01*
X165980121Y-56198896D01*
X165924524Y-56194662D01*
X165904589Y-56197201D01*
X165890440Y-56199003D01*
X165882611Y-56199500D01*
X163962000Y-56199500D01*
X163894961Y-56179815D01*
X163849206Y-56127011D01*
X163838000Y-56075500D01*
X163838000Y-53949256D01*
X163825818Y-53829463D01*
X163825500Y-53823186D01*
X163825500Y-53494157D01*
X163825499Y-53494144D01*
X163815087Y-53392225D01*
X163760362Y-53227075D01*
X163760358Y-53227069D01*
X163760357Y-53227066D01*
X163669028Y-53079000D01*
X163669025Y-53078996D01*
X163546003Y-52955974D01*
X163545999Y-52955971D01*
X163397933Y-52864642D01*
X163397927Y-52864639D01*
X163397925Y-52864638D01*
X163397922Y-52864637D01*
X163232776Y-52809913D01*
X163130855Y-52799500D01*
X163130848Y-52799500D01*
X162544152Y-52799500D01*
X162544144Y-52799500D01*
X162442223Y-52809913D01*
X162277077Y-52864637D01*
X162277066Y-52864642D01*
X162129000Y-52955971D01*
X162128996Y-52955974D01*
X162005974Y-53078996D01*
X162005971Y-53079000D01*
X161914642Y-53227066D01*
X161914637Y-53227077D01*
X161859913Y-53392223D01*
X161849500Y-53494144D01*
X161849500Y-53824821D01*
X161846962Y-53849782D01*
X161837000Y-53898258D01*
X161837000Y-56008108D01*
X161817315Y-56075147D01*
X161764511Y-56120902D01*
X161695353Y-56130846D01*
X161647904Y-56113647D01*
X161569340Y-56065190D01*
X161569334Y-56065186D01*
X161402797Y-56010001D01*
X161402795Y-56010000D01*
X161300010Y-55999500D01*
X160674998Y-55999500D01*
X160674980Y-55999501D01*
X160572203Y-56010000D01*
X160572200Y-56010001D01*
X160405668Y-56065185D01*
X160405659Y-56065189D01*
X160298900Y-56131039D01*
X160233804Y-56149500D01*
X158440758Y-56149500D01*
X158373719Y-56129815D01*
X158353077Y-56113181D01*
X158351402Y-56111506D01*
X158351395Y-56111501D01*
X158157834Y-55975967D01*
X158157830Y-55975965D01*
X158073270Y-55936534D01*
X157943663Y-55876097D01*
X157943659Y-55876096D01*
X157943655Y-55876094D01*
X157715413Y-55814938D01*
X157715403Y-55814936D01*
X157480001Y-55794341D01*
X157479999Y-55794341D01*
X157244596Y-55814936D01*
X157244586Y-55814938D01*
X157016344Y-55876094D01*
X157016335Y-55876098D01*
X156802171Y-55975964D01*
X156802169Y-55975965D01*
X156608597Y-56111505D01*
X156441505Y-56278597D01*
X156311575Y-56464158D01*
X156256998Y-56507783D01*
X156187500Y-56514977D01*
X156125145Y-56483454D01*
X156108425Y-56464158D01*
X155978494Y-56278597D01*
X155811402Y-56111506D01*
X155811395Y-56111501D01*
X155617834Y-55975967D01*
X155617830Y-55975965D01*
X155533270Y-55936534D01*
X155403663Y-55876097D01*
X155403659Y-55876096D01*
X155403655Y-55876094D01*
X155175413Y-55814938D01*
X155175403Y-55814936D01*
X154940001Y-55794341D01*
X154939999Y-55794341D01*
X154704596Y-55814936D01*
X154704586Y-55814938D01*
X154476344Y-55876094D01*
X154476335Y-55876098D01*
X154262171Y-55975964D01*
X154262169Y-55975965D01*
X154068597Y-56111505D01*
X153901505Y-56278597D01*
X153765965Y-56472169D01*
X153765964Y-56472171D01*
X153666098Y-56686335D01*
X153666094Y-56686344D01*
X153604938Y-56914586D01*
X153604936Y-56914596D01*
X153584341Y-57149999D01*
X153584341Y-57150000D01*
X153604936Y-57385403D01*
X153604938Y-57385413D01*
X153666094Y-57613655D01*
X153666096Y-57613659D01*
X153666097Y-57613663D01*
X153710882Y-57709704D01*
X153765965Y-57827830D01*
X153765967Y-57827834D01*
X153859193Y-57960973D01*
X153901504Y-58021400D01*
X153901506Y-58021402D01*
X153903181Y-58023077D01*
X153903682Y-58023995D01*
X153904982Y-58025544D01*
X153904670Y-58025805D01*
X153936666Y-58084400D01*
X153939500Y-58110758D01*
X153939500Y-58426506D01*
X153939480Y-58428076D01*
X153937243Y-58516362D01*
X153937243Y-58516370D01*
X153948064Y-58576739D01*
X153948718Y-58581404D01*
X153954925Y-58642430D01*
X153954927Y-58642444D01*
X153965208Y-58675213D01*
X153967079Y-58682837D01*
X153973142Y-58716652D01*
X153973142Y-58716655D01*
X153995894Y-58773612D01*
X153997474Y-58778051D01*
X154015841Y-58836588D01*
X154015844Y-58836595D01*
X154032509Y-58866619D01*
X154035879Y-58873714D01*
X154048622Y-58905614D01*
X154048627Y-58905624D01*
X154082377Y-58956833D01*
X154084818Y-58960863D01*
X154114588Y-59014498D01*
X154114589Y-59014499D01*
X154114591Y-59014502D01*
X154136968Y-59040567D01*
X154141693Y-59046835D01*
X154160599Y-59075520D01*
X154160600Y-59075522D01*
X154203965Y-59118887D01*
X154207168Y-59122343D01*
X154247133Y-59168894D01*
X154274299Y-59189923D01*
X154280186Y-59195107D01*
X154551374Y-59466294D01*
X154675681Y-59590601D01*
X154709166Y-59651924D01*
X154712000Y-59678282D01*
X154712000Y-59992689D01*
X154692315Y-60059728D01*
X154639511Y-60105483D01*
X154570353Y-60115427D01*
X154522905Y-60098228D01*
X154469334Y-60065186D01*
X154302797Y-60010001D01*
X154302795Y-60010000D01*
X154200016Y-59999500D01*
X154200009Y-59999500D01*
X154165782Y-59999500D01*
X154098743Y-59979815D01*
X154078101Y-59963181D01*
X153581214Y-59466294D01*
X153016972Y-58902052D01*
X153015914Y-58900966D01*
X152955061Y-58836949D01*
X152955060Y-58836948D01*
X152955059Y-58836947D01*
X152924830Y-58815907D01*
X152904709Y-58801902D01*
X152900946Y-58799064D01*
X152853413Y-58760305D01*
X152853406Y-58760300D01*
X152822959Y-58744397D01*
X152816251Y-58740334D01*
X152788049Y-58720705D01*
X152788046Y-58720703D01*
X152788045Y-58720703D01*
X152788041Y-58720701D01*
X152731680Y-58696514D01*
X152727424Y-58694493D01*
X152673057Y-58666094D01*
X152673050Y-58666091D01*
X152673049Y-58666091D01*
X152667008Y-58664362D01*
X152640030Y-58656642D01*
X152632630Y-58654008D01*
X152601057Y-58640459D01*
X152601058Y-58640459D01*
X152540966Y-58628109D01*
X152536391Y-58626986D01*
X152477420Y-58610113D01*
X152477425Y-58610113D01*
X152443158Y-58607503D01*
X152435380Y-58606412D01*
X152401742Y-58599500D01*
X152401741Y-58599500D01*
X152340402Y-58599500D01*
X152335695Y-58599321D01*
X152330121Y-58598896D01*
X152274524Y-58594662D01*
X152254589Y-58597201D01*
X152240440Y-58599003D01*
X152232611Y-58599500D01*
X149521264Y-58599500D01*
X149454225Y-58579815D01*
X149408470Y-58527011D01*
X149397906Y-58462896D01*
X149397939Y-58462575D01*
X149400500Y-58437509D01*
X149400499Y-57812492D01*
X149397558Y-57783705D01*
X149389999Y-57709703D01*
X149389998Y-57709700D01*
X149361172Y-57622709D01*
X149334814Y-57543166D01*
X149242712Y-57393844D01*
X149118656Y-57269788D01*
X148969334Y-57177686D01*
X148802797Y-57122501D01*
X148802795Y-57122500D01*
X148700010Y-57112000D01*
X147699998Y-57112000D01*
X147699980Y-57112001D01*
X147597203Y-57122500D01*
X147597200Y-57122501D01*
X147430668Y-57177685D01*
X147430663Y-57177687D01*
X147281342Y-57269789D01*
X147157289Y-57393842D01*
X147065187Y-57543163D01*
X147065185Y-57543166D01*
X147065186Y-57543166D01*
X147010001Y-57709703D01*
X147010001Y-57709704D01*
X147010000Y-57709704D01*
X146999500Y-57812483D01*
X146999500Y-58437501D01*
X146999501Y-58437519D01*
X147010000Y-58540296D01*
X147010001Y-58540299D01*
X147065185Y-58706831D01*
X147065187Y-58706836D01*
X147122993Y-58800555D01*
X147157288Y-58856156D01*
X147163178Y-58862046D01*
X147196665Y-58923365D01*
X147199500Y-58949729D01*
X147199500Y-59573070D01*
X147199420Y-59576210D01*
X147195631Y-59650935D01*
X147195631Y-59650936D01*
X147198070Y-59666857D01*
X147199500Y-59685633D01*
X147199500Y-60111506D01*
X147199480Y-60113076D01*
X147197243Y-60201362D01*
X147197243Y-60201370D01*
X147208064Y-60261739D01*
X147208718Y-60266404D01*
X147214925Y-60327430D01*
X147214927Y-60327444D01*
X147225208Y-60360213D01*
X147227079Y-60367837D01*
X147233142Y-60401652D01*
X147233142Y-60401655D01*
X147255894Y-60458612D01*
X147257474Y-60463051D01*
X147275841Y-60521588D01*
X147275844Y-60521595D01*
X147292509Y-60551619D01*
X147295879Y-60558714D01*
X147308563Y-60590468D01*
X147308622Y-60590614D01*
X147308627Y-60590624D01*
X147342377Y-60641833D01*
X147344818Y-60645863D01*
X147374588Y-60699498D01*
X147374589Y-60699499D01*
X147374591Y-60699502D01*
X147396968Y-60725567D01*
X147401693Y-60731835D01*
X147414263Y-60750906D01*
X147420598Y-60760519D01*
X147463978Y-60803899D01*
X147467169Y-60807343D01*
X147503735Y-60849936D01*
X147507134Y-60853895D01*
X147534295Y-60874919D01*
X147540191Y-60880112D01*
X147551339Y-60891260D01*
X147584824Y-60952583D01*
X147587276Y-60969210D01*
X147589901Y-61002568D01*
X147589902Y-61002573D01*
X147635754Y-61160393D01*
X147635755Y-61160396D01*
X147635756Y-61160398D01*
X147673181Y-61223681D01*
X147719417Y-61301862D01*
X147719423Y-61301870D01*
X147835629Y-61418076D01*
X147835633Y-61418079D01*
X147835635Y-61418081D01*
X147977102Y-61501744D01*
X148018724Y-61513836D01*
X148134926Y-61547597D01*
X148134929Y-61547597D01*
X148134931Y-61547598D01*
X148171806Y-61550500D01*
X148179374Y-61550500D01*
X148246413Y-61570185D01*
X148257734Y-61578398D01*
X148271586Y-61589693D01*
X148271588Y-61589694D01*
X148271592Y-61589697D01*
X148276177Y-61592092D01*
X148326483Y-61640577D01*
X148342591Y-61708565D01*
X148319385Y-61774468D01*
X148281672Y-61808858D01*
X148241749Y-61832360D01*
X148178846Y-61849500D01*
X148171798Y-61849500D01*
X148134932Y-61852401D01*
X148134926Y-61852402D01*
X147977106Y-61898254D01*
X147977103Y-61898255D01*
X147835637Y-61981917D01*
X147835629Y-61981923D01*
X147719423Y-62098129D01*
X147719417Y-62098137D01*
X147635755Y-62239603D01*
X147635754Y-62239606D01*
X147589902Y-62397426D01*
X147589901Y-62397432D01*
X147587000Y-62434298D01*
X147587000Y-62865701D01*
X147589901Y-62902567D01*
X147589902Y-62902573D01*
X147635754Y-63060393D01*
X147635755Y-63060396D01*
X147635756Y-63060398D01*
X147673181Y-63123681D01*
X147719417Y-63201862D01*
X147719423Y-63201870D01*
X147835629Y-63318076D01*
X147835633Y-63318079D01*
X147835635Y-63318081D01*
X147977102Y-63401744D01*
X148018724Y-63413836D01*
X148134926Y-63447597D01*
X148134929Y-63447597D01*
X148134931Y-63447598D01*
X148168284Y-63450222D01*
X148233571Y-63475104D01*
X148246238Y-63486159D01*
X149047898Y-64287819D01*
X149081383Y-64349142D01*
X149076399Y-64418834D01*
X149034527Y-64474767D01*
X148969063Y-64499184D01*
X148960218Y-64499500D01*
X148874999Y-64499500D01*
X148874980Y-64499501D01*
X148772203Y-64510000D01*
X148772200Y-64510001D01*
X148605668Y-64565185D01*
X148605663Y-64565187D01*
X148456342Y-64657289D01*
X148332289Y-64781342D01*
X148240187Y-64930663D01*
X148240185Y-64930668D01*
X148229823Y-64961938D01*
X148185001Y-65097203D01*
X148185001Y-65097204D01*
X148185000Y-65097204D01*
X148174500Y-65199983D01*
X148174500Y-66200001D01*
X148174501Y-66200019D01*
X148185689Y-66309533D01*
X148185339Y-66309568D01*
X148187000Y-66325259D01*
X148187000Y-67575500D01*
X148167315Y-67642539D01*
X148114511Y-67688294D01*
X148063000Y-67699500D01*
X147263453Y-67699500D01*
X147261891Y-67699480D01*
X147173637Y-67697244D01*
X147173626Y-67697245D01*
X147113271Y-67708062D01*
X147108607Y-67708716D01*
X147047563Y-67714925D01*
X147047555Y-67714927D01*
X147014781Y-67725210D01*
X147007153Y-67727082D01*
X146973349Y-67733141D01*
X146916381Y-67755895D01*
X146911945Y-67757474D01*
X146853414Y-67775840D01*
X146853410Y-67775842D01*
X146823378Y-67792510D01*
X146816284Y-67795879D01*
X146784382Y-67808623D01*
X146784377Y-67808625D01*
X146733156Y-67842381D01*
X146729128Y-67844822D01*
X146675501Y-67874588D01*
X146649434Y-67896965D01*
X146643165Y-67901692D01*
X146614484Y-67920595D01*
X146614478Y-67920600D01*
X146571109Y-67963968D01*
X146567655Y-67967169D01*
X146521102Y-68007136D01*
X146500076Y-68034298D01*
X146494885Y-68040192D01*
X145021897Y-69513181D01*
X144960574Y-69546666D01*
X144934216Y-69549500D01*
X143074998Y-69549500D01*
X143074981Y-69549501D01*
X142972203Y-69560000D01*
X142972200Y-69560001D01*
X142805668Y-69615185D01*
X142805663Y-69615187D01*
X142656342Y-69707289D01*
X142532289Y-69831342D01*
X142440187Y-69980663D01*
X142440185Y-69980668D01*
X142426151Y-70023020D01*
X142385001Y-70147203D01*
X142385001Y-70147204D01*
X142385000Y-70147204D01*
X142374500Y-70249983D01*
X142374500Y-71750001D01*
X142374501Y-71750018D01*
X142385000Y-71852796D01*
X142385001Y-71852799D01*
X142416899Y-71949059D01*
X142440186Y-72019334D01*
X142532288Y-72168656D01*
X142656344Y-72292712D01*
X142805666Y-72384814D01*
X142972203Y-72439999D01*
X143074991Y-72450500D01*
X143825500Y-72450499D01*
X143892539Y-72470183D01*
X143938294Y-72522987D01*
X143949500Y-72574499D01*
X143949500Y-73136506D01*
X143949480Y-73138076D01*
X143947243Y-73226362D01*
X143947243Y-73226370D01*
X143958064Y-73286739D01*
X143958718Y-73291404D01*
X143964925Y-73352430D01*
X143964927Y-73352444D01*
X143975208Y-73385213D01*
X143977079Y-73392837D01*
X143983142Y-73426652D01*
X143983142Y-73426655D01*
X144005894Y-73483612D01*
X144007474Y-73488051D01*
X144025841Y-73546588D01*
X144025844Y-73546595D01*
X144042509Y-73576619D01*
X144045879Y-73583714D01*
X144058622Y-73615614D01*
X144058627Y-73615624D01*
X144092377Y-73666833D01*
X144094818Y-73670863D01*
X144124588Y-73724498D01*
X144124589Y-73724499D01*
X144124591Y-73724502D01*
X144146968Y-73750567D01*
X144151693Y-73756835D01*
X144164263Y-73775906D01*
X144170598Y-73785519D01*
X144213978Y-73828899D01*
X144217169Y-73832343D01*
X144257131Y-73878892D01*
X144257135Y-73878896D01*
X144284295Y-73899920D01*
X144290190Y-73905112D01*
X144347396Y-73962317D01*
X144380882Y-74023640D01*
X144375898Y-74093331D01*
X144347397Y-74137680D01*
X141102091Y-77382987D01*
X141100967Y-77384083D01*
X141036946Y-77444942D01*
X141001899Y-77495294D01*
X140999062Y-77499056D01*
X140960302Y-77546592D01*
X140960299Y-77546597D01*
X140944392Y-77577047D01*
X140940324Y-77583761D01*
X140920702Y-77611954D01*
X140896509Y-77668330D01*
X140894488Y-77672584D01*
X140866091Y-77726951D01*
X140866090Y-77726952D01*
X140856640Y-77759975D01*
X140854007Y-77767371D01*
X140840459Y-77798943D01*
X140828113Y-77859019D01*
X140826990Y-77863595D01*
X140810113Y-77922577D01*
X140810113Y-77922579D01*
X140807503Y-77956841D01*
X140806414Y-77964608D01*
X140805269Y-77970185D01*
X140799500Y-77998258D01*
X140799500Y-78059597D01*
X140799321Y-78064306D01*
X140794662Y-78125474D01*
X133350499Y-78125474D01*
X133350499Y-57151149D01*
X133350541Y-57148868D01*
X133360488Y-56883039D01*
X133368764Y-56672414D01*
X133369102Y-56667972D01*
X133397725Y-56413937D01*
X133424361Y-56188891D01*
X133425004Y-56184705D01*
X133471966Y-55936503D01*
X133516822Y-55710999D01*
X133517718Y-55707159D01*
X133582778Y-55464353D01*
X133645575Y-55241692D01*
X133646707Y-55238106D01*
X133729524Y-55001429D01*
X133809882Y-54783612D01*
X133811190Y-54780361D01*
X133911104Y-54551355D01*
X133911547Y-54550369D01*
X134008766Y-54339485D01*
X134010191Y-54336601D01*
X134126829Y-54115913D01*
X134127432Y-54114804D01*
X134241042Y-53911937D01*
X134242565Y-53909372D01*
X134375260Y-53698189D01*
X134376109Y-53696878D01*
X134505345Y-53503463D01*
X134506950Y-53501179D01*
X134654984Y-53300600D01*
X134656063Y-53299186D01*
X134800160Y-53116399D01*
X134801728Y-53114496D01*
X134964317Y-52925564D01*
X134965670Y-52924047D01*
X135123696Y-52753096D01*
X135125273Y-52751456D01*
X135301456Y-52575273D01*
X135303096Y-52573696D01*
X135474047Y-52415670D01*
X135475564Y-52414317D01*
X135664496Y-52251728D01*
X135666399Y-52250160D01*
X135849186Y-52106063D01*
X135850600Y-52104984D01*
X136051179Y-51956950D01*
X136053463Y-51955345D01*
X136246878Y-51826109D01*
X136248189Y-51825260D01*
X136459372Y-51692565D01*
X136461937Y-51691042D01*
X136664804Y-51577432D01*
X136665913Y-51576829D01*
X136886601Y-51460191D01*
X136889485Y-51458766D01*
X137100369Y-51361547D01*
X137101355Y-51361104D01*
X137330361Y-51261190D01*
X137333612Y-51259882D01*
X137551429Y-51179524D01*
X137788106Y-51096707D01*
X137791692Y-51095575D01*
X138014378Y-51032771D01*
X138257159Y-50967718D01*
X138260999Y-50966822D01*
X138486503Y-50921966D01*
X138734705Y-50875004D01*
X138738891Y-50874361D01*
X138963937Y-50847725D01*
X139217972Y-50819102D01*
X139222412Y-50818764D01*
X139433056Y-50810488D01*
X139698867Y-50800542D01*
X139701152Y-50800500D01*
X171448848Y-50800500D01*
X171451132Y-50800542D01*
G37*
%TD.AperFunction*%
%TD*%
M02*
