%TF.GenerationSoftware,KiCad,Pcbnew,7.0.5*%
%TF.CreationDate,2023-11-06T15:38:15-08:00*%
%TF.ProjectId,HighSideSwitchModule,48696768-5369-4646-9553-77697463684d,rev?*%
%TF.SameCoordinates,Original*%
%TF.FileFunction,Legend,Bot*%
%TF.FilePolarity,Positive*%
%FSLAX46Y46*%
G04 Gerber Fmt 4.6, Leading zero omitted, Abs format (unit mm)*
G04 Created by KiCad (PCBNEW 7.0.5) date 2023-11-06 15:38:15*
%MOMM*%
%LPD*%
G01*
G04 APERTURE LIST*
%ADD10C,0.150000*%
G04 APERTURE END LIST*
D10*
X167463220Y-93888866D02*
X166701316Y-93888866D01*
X167082268Y-94269819D02*
X167082268Y-93507914D01*
X166367982Y-93269819D02*
X166034649Y-94269819D01*
X166034649Y-94269819D02*
X165701316Y-93269819D01*
X165263220Y-93580295D02*
X165110839Y-93580295D01*
X165110839Y-93580295D02*
X165034649Y-93618390D01*
X165034649Y-93618390D02*
X164958458Y-93694580D01*
X164958458Y-93694580D02*
X164920363Y-93846961D01*
X164920363Y-93846961D02*
X164920363Y-94113628D01*
X164920363Y-94113628D02*
X164958458Y-94266009D01*
X164958458Y-94266009D02*
X165034649Y-94342200D01*
X165034649Y-94342200D02*
X165110839Y-94380295D01*
X165110839Y-94380295D02*
X165263220Y-94380295D01*
X165263220Y-94380295D02*
X165339411Y-94342200D01*
X165339411Y-94342200D02*
X165415601Y-94266009D01*
X165415601Y-94266009D02*
X165453697Y-94113628D01*
X165453697Y-94113628D02*
X165453697Y-93846961D01*
X165453697Y-93846961D02*
X165415601Y-93694580D01*
X165415601Y-93694580D02*
X165339411Y-93618390D01*
X165339411Y-93618390D02*
X165263220Y-93580295D01*
X164577506Y-93580295D02*
X164577506Y-94227914D01*
X164577506Y-94227914D02*
X164539411Y-94304104D01*
X164539411Y-94304104D02*
X164501316Y-94342200D01*
X164501316Y-94342200D02*
X164425125Y-94380295D01*
X164425125Y-94380295D02*
X164272744Y-94380295D01*
X164272744Y-94380295D02*
X164196554Y-94342200D01*
X164196554Y-94342200D02*
X164158459Y-94304104D01*
X164158459Y-94304104D02*
X164120363Y-94227914D01*
X164120363Y-94227914D02*
X164120363Y-93580295D01*
X163853697Y-93580295D02*
X163396554Y-93580295D01*
X163625126Y-94380295D02*
X163625126Y-93580295D01*
X160139411Y-93417438D02*
X160234649Y-93369819D01*
X160234649Y-93369819D02*
X160377506Y-93369819D01*
X160377506Y-93369819D02*
X160520363Y-93417438D01*
X160520363Y-93417438D02*
X160615601Y-93512676D01*
X160615601Y-93512676D02*
X160663220Y-93607914D01*
X160663220Y-93607914D02*
X160710839Y-93798390D01*
X160710839Y-93798390D02*
X160710839Y-93941247D01*
X160710839Y-93941247D02*
X160663220Y-94131723D01*
X160663220Y-94131723D02*
X160615601Y-94226961D01*
X160615601Y-94226961D02*
X160520363Y-94322200D01*
X160520363Y-94322200D02*
X160377506Y-94369819D01*
X160377506Y-94369819D02*
X160282268Y-94369819D01*
X160282268Y-94369819D02*
X160139411Y-94322200D01*
X160139411Y-94322200D02*
X160091792Y-94274580D01*
X160091792Y-94274580D02*
X160091792Y-93941247D01*
X160091792Y-93941247D02*
X160282268Y-93941247D01*
X159663220Y-94369819D02*
X159663220Y-93369819D01*
X159663220Y-93369819D02*
X159091792Y-94369819D01*
X159091792Y-94369819D02*
X159091792Y-93369819D01*
X158615601Y-94369819D02*
X158615601Y-93369819D01*
X158615601Y-93369819D02*
X158377506Y-93369819D01*
X158377506Y-93369819D02*
X158234649Y-93417438D01*
X158234649Y-93417438D02*
X158139411Y-93512676D01*
X158139411Y-93512676D02*
X158091792Y-93607914D01*
X158091792Y-93607914D02*
X158044173Y-93798390D01*
X158044173Y-93798390D02*
X158044173Y-93941247D01*
X158044173Y-93941247D02*
X158091792Y-94131723D01*
X158091792Y-94131723D02*
X158139411Y-94226961D01*
X158139411Y-94226961D02*
X158234649Y-94322200D01*
X158234649Y-94322200D02*
X158377506Y-94369819D01*
X158377506Y-94369819D02*
X158615601Y-94369819D01*
X153263220Y-93988866D02*
X152501316Y-93988866D01*
X152882268Y-94369819D02*
X152882268Y-93607914D01*
X152167982Y-93369819D02*
X151834649Y-94369819D01*
X151834649Y-94369819D02*
X151501316Y-93369819D01*
X151215601Y-94480295D02*
X151215601Y-93680295D01*
X150834649Y-94480295D02*
X150834649Y-93680295D01*
X150834649Y-93680295D02*
X150377506Y-94480295D01*
X150377506Y-94480295D02*
X150377506Y-93680295D01*
X146939411Y-93317438D02*
X147034649Y-93269819D01*
X147034649Y-93269819D02*
X147177506Y-93269819D01*
X147177506Y-93269819D02*
X147320363Y-93317438D01*
X147320363Y-93317438D02*
X147415601Y-93412676D01*
X147415601Y-93412676D02*
X147463220Y-93507914D01*
X147463220Y-93507914D02*
X147510839Y-93698390D01*
X147510839Y-93698390D02*
X147510839Y-93841247D01*
X147510839Y-93841247D02*
X147463220Y-94031723D01*
X147463220Y-94031723D02*
X147415601Y-94126961D01*
X147415601Y-94126961D02*
X147320363Y-94222200D01*
X147320363Y-94222200D02*
X147177506Y-94269819D01*
X147177506Y-94269819D02*
X147082268Y-94269819D01*
X147082268Y-94269819D02*
X146939411Y-94222200D01*
X146939411Y-94222200D02*
X146891792Y-94174580D01*
X146891792Y-94174580D02*
X146891792Y-93841247D01*
X146891792Y-93841247D02*
X147082268Y-93841247D01*
X146463220Y-94269819D02*
X146463220Y-93269819D01*
X146463220Y-93269819D02*
X145891792Y-94269819D01*
X145891792Y-94269819D02*
X145891792Y-93269819D01*
X145415601Y-94269819D02*
X145415601Y-93269819D01*
X145415601Y-93269819D02*
X145177506Y-93269819D01*
X145177506Y-93269819D02*
X145034649Y-93317438D01*
X145034649Y-93317438D02*
X144939411Y-93412676D01*
X144939411Y-93412676D02*
X144891792Y-93507914D01*
X144891792Y-93507914D02*
X144844173Y-93698390D01*
X144844173Y-93698390D02*
X144844173Y-93841247D01*
X144844173Y-93841247D02*
X144891792Y-94031723D01*
X144891792Y-94031723D02*
X144939411Y-94126961D01*
X144939411Y-94126961D02*
X145034649Y-94222200D01*
X145034649Y-94222200D02*
X145177506Y-94269819D01*
X145177506Y-94269819D02*
X145415601Y-94269819D01*
X157511133Y-54263220D02*
X157511133Y-53501316D01*
X157130180Y-53882268D02*
X157892085Y-53882268D01*
X158130180Y-53167982D02*
X157130180Y-52834649D01*
X157130180Y-52834649D02*
X158130180Y-52501316D01*
X154730180Y-53763220D02*
X155730180Y-53763220D01*
X154730180Y-53287030D02*
X155730180Y-53287030D01*
X155730180Y-53287030D02*
X154730180Y-52715602D01*
X154730180Y-52715602D02*
X155730180Y-52715602D01*
X152582561Y-54239411D02*
X152630180Y-54334649D01*
X152630180Y-54334649D02*
X152630180Y-54477506D01*
X152630180Y-54477506D02*
X152582561Y-54620363D01*
X152582561Y-54620363D02*
X152487323Y-54715601D01*
X152487323Y-54715601D02*
X152392085Y-54763220D01*
X152392085Y-54763220D02*
X152201609Y-54810839D01*
X152201609Y-54810839D02*
X152058752Y-54810839D01*
X152058752Y-54810839D02*
X151868276Y-54763220D01*
X151868276Y-54763220D02*
X151773038Y-54715601D01*
X151773038Y-54715601D02*
X151677800Y-54620363D01*
X151677800Y-54620363D02*
X151630180Y-54477506D01*
X151630180Y-54477506D02*
X151630180Y-54382268D01*
X151630180Y-54382268D02*
X151677800Y-54239411D01*
X151677800Y-54239411D02*
X151725419Y-54191792D01*
X151725419Y-54191792D02*
X152058752Y-54191792D01*
X152058752Y-54191792D02*
X152058752Y-54382268D01*
X151630180Y-53763220D02*
X152630180Y-53763220D01*
X152630180Y-53763220D02*
X151630180Y-53191792D01*
X151630180Y-53191792D02*
X152630180Y-53191792D01*
X151630180Y-52715601D02*
X152630180Y-52715601D01*
X152630180Y-52715601D02*
X152630180Y-52477506D01*
X152630180Y-52477506D02*
X152582561Y-52334649D01*
X152582561Y-52334649D02*
X152487323Y-52239411D01*
X152487323Y-52239411D02*
X152392085Y-52191792D01*
X152392085Y-52191792D02*
X152201609Y-52144173D01*
X152201609Y-52144173D02*
X152058752Y-52144173D01*
X152058752Y-52144173D02*
X151868276Y-52191792D01*
X151868276Y-52191792D02*
X151773038Y-52239411D01*
X151773038Y-52239411D02*
X151677800Y-52334649D01*
X151677800Y-52334649D02*
X151630180Y-52477506D01*
X151630180Y-52477506D02*
X151630180Y-52715601D01*
M02*
