%TF.GenerationSoftware,KiCad,Pcbnew,7.0.5*%
%TF.CreationDate,2023-11-06T15:38:15-08:00*%
%TF.ProjectId,HighSideSwitchModule,48696768-5369-4646-9553-77697463684d,rev?*%
%TF.SameCoordinates,Original*%
%TF.FileFunction,Copper,L2,Bot*%
%TF.FilePolarity,Positive*%
%FSLAX46Y46*%
G04 Gerber Fmt 4.6, Leading zero omitted, Abs format (unit mm)*
G04 Created by KiCad (PCBNEW 7.0.5) date 2023-11-06 15:38:15*
%MOMM*%
%LPD*%
G01*
G04 APERTURE LIST*
%TA.AperFunction,ComponentPad*%
%ADD10C,5.600000*%
%TD*%
%TA.AperFunction,ComponentPad*%
%ADD11R,3.000000X3.000000*%
%TD*%
%TA.AperFunction,ComponentPad*%
%ADD12C,3.000000*%
%TD*%
%TA.AperFunction,ComponentPad*%
%ADD13R,1.700000X1.700000*%
%TD*%
%TA.AperFunction,ComponentPad*%
%ADD14O,1.700000X1.700000*%
%TD*%
%TA.AperFunction,ViaPad*%
%ADD15C,0.700000*%
%TD*%
%TA.AperFunction,Conductor*%
%ADD16C,1.000000*%
%TD*%
G04 APERTURE END LIST*
D10*
%TO.P,J1,1,Pin_1*%
%TO.N,GND*%
X139700000Y-57150000D03*
%TD*%
%TO.P,J3,1,Pin_1*%
%TO.N,GND*%
X139700000Y-88900000D03*
%TD*%
%TO.P,J4,1,Pin_1*%
%TO.N,GND*%
X171450000Y-88900000D03*
%TD*%
D11*
%TO.P,J6,1,Pin_1*%
%TO.N,GND*%
X160020000Y-89174500D03*
D12*
%TO.P,J6,2,Pin_2*%
%TO.N,Net-(D8-A)*%
X165100000Y-89174500D03*
%TD*%
D10*
%TO.P,J2,1,Pin_1*%
%TO.N,GND*%
X171450000Y-57150000D03*
%TD*%
D11*
%TO.P,J7,1,Pin_1*%
%TO.N,GND*%
X146408000Y-89174500D03*
D12*
%TO.P,J7,2,Pin_2*%
%TO.N,Net-(J7-Pin_2)*%
X151488000Y-89174500D03*
%TD*%
D13*
%TO.P,J5,1,Pin_1*%
%TO.N,GND*%
X152400000Y-57150000D03*
D14*
%TO.P,J5,2,Pin_2*%
%TO.N,/HighSideGate/IN*%
X154940000Y-57150000D03*
%TO.P,J5,3,Pin_3*%
%TO.N,Net-(J5-Pin_3)*%
X157480000Y-57150000D03*
%TD*%
D15*
%TO.N,GND*%
X147400000Y-73100000D03*
X147100000Y-83800000D03*
X161600000Y-84100000D03*
X165600000Y-83800000D03*
X165900000Y-75400000D03*
X167500000Y-70200000D03*
X146300000Y-59500000D03*
X147300000Y-66600000D03*
X158400000Y-69400000D03*
X157500000Y-75100000D03*
X152800000Y-78800000D03*
X162500000Y-63800000D03*
X164800000Y-65300000D03*
X163400000Y-70200000D03*
X158400000Y-79900000D03*
X147500000Y-79300000D03*
X138000000Y-73700000D03*
X152600000Y-72000000D03*
X152200000Y-61800000D03*
X157600000Y-62300000D03*
X157800000Y-65300000D03*
%TO.N,+12V*%
X149187500Y-67200000D03*
X156900000Y-63800000D03*
%TO.N,Net-(D8-A)*%
X162300000Y-75200000D03*
X161100000Y-82275000D03*
%TD*%
D16*
%TO.N,GND*%
X150900000Y-73700000D02*
X152600000Y-72000000D01*
X148000000Y-73700000D02*
X150900000Y-73700000D01*
X147300000Y-73200000D02*
X147300000Y-73700000D01*
X147400000Y-73100000D02*
X147300000Y-73200000D01*
X147400000Y-73100000D02*
X148000000Y-73700000D01*
%TO.N,+12V*%
X152587500Y-63800000D02*
X149187500Y-67200000D01*
X156900000Y-63800000D02*
X152587500Y-63800000D01*
%TO.N,GND*%
X158500000Y-63200000D02*
X157600000Y-62300000D01*
X158500000Y-64600000D02*
X158500000Y-63200000D01*
X157800000Y-65300000D02*
X158500000Y-64600000D01*
X162700000Y-70200000D02*
X157800000Y-65300000D01*
X163400000Y-70200000D02*
X162700000Y-70200000D01*
X158400000Y-79900000D02*
X152600000Y-74100000D01*
X152600000Y-74100000D02*
X152600000Y-72000000D01*
X147500000Y-79300000D02*
X147500000Y-73900000D01*
X147500000Y-73900000D02*
X147300000Y-73700000D01*
X147300000Y-73700000D02*
X138000000Y-73700000D01*
X152200000Y-57350000D02*
X152400000Y-57150000D01*
X152200000Y-61800000D02*
X152200000Y-57350000D01*
X157100000Y-61800000D02*
X152200000Y-61800000D01*
X157600000Y-62300000D02*
X157100000Y-61800000D01*
%TO.N,Net-(D8-A)*%
X162300000Y-81075000D02*
X161100000Y-82275000D01*
X162300000Y-75200000D02*
X162300000Y-81075000D01*
%TD*%
%TA.AperFunction,Conductor*%
%TO.N,GND*%
G36*
X171451132Y-50800542D02*
G01*
X171717225Y-50810498D01*
X171927583Y-50818764D01*
X171932032Y-50819102D01*
X172185974Y-50847715D01*
X172411099Y-50874360D01*
X172415303Y-50875006D01*
X172663451Y-50921958D01*
X172888986Y-50966819D01*
X172892853Y-50967721D01*
X173135652Y-51032779D01*
X173358288Y-51095569D01*
X173361911Y-51096713D01*
X173598532Y-51179511D01*
X173816363Y-51259873D01*
X173819661Y-51261200D01*
X174048568Y-51361071D01*
X174049704Y-51361581D01*
X174260484Y-51458752D01*
X174263428Y-51460207D01*
X174484014Y-51576790D01*
X174485262Y-51577469D01*
X174688027Y-51691023D01*
X174690662Y-51692587D01*
X174896667Y-51822028D01*
X174901743Y-51825218D01*
X174903185Y-51826152D01*
X175096495Y-51955318D01*
X175098867Y-51956984D01*
X175299333Y-52104935D01*
X175300874Y-52106110D01*
X175483553Y-52250123D01*
X175485549Y-52251767D01*
X175674378Y-52414267D01*
X175676007Y-52415721D01*
X175846852Y-52573648D01*
X175848594Y-52575324D01*
X176024674Y-52751404D01*
X176026362Y-52753159D01*
X176184277Y-52923991D01*
X176185738Y-52925628D01*
X176348223Y-53114440D01*
X176349883Y-53116456D01*
X176493868Y-53299099D01*
X176495063Y-53300665D01*
X176643014Y-53501131D01*
X176644680Y-53503503D01*
X176773834Y-53696795D01*
X176774780Y-53698255D01*
X176907390Y-53909301D01*
X176908988Y-53911993D01*
X177022508Y-54114698D01*
X177023228Y-54116022D01*
X177139777Y-54336542D01*
X177141259Y-54339541D01*
X177238414Y-54550288D01*
X177238936Y-54551451D01*
X177338796Y-54780333D01*
X177340138Y-54783668D01*
X177420486Y-55001463D01*
X177503284Y-55238086D01*
X177504436Y-55241735D01*
X177567221Y-55464353D01*
X177632270Y-55707118D01*
X177633188Y-55711057D01*
X177678039Y-55936534D01*
X177724989Y-56184677D01*
X177725640Y-56188917D01*
X177752279Y-56413983D01*
X177780894Y-56667950D01*
X177781237Y-56672459D01*
X177789521Y-56883300D01*
X177799457Y-57148868D01*
X177799500Y-57151152D01*
X177799500Y-88898847D01*
X177799457Y-88901132D01*
X177790985Y-89127555D01*
X177789521Y-89166699D01*
X177781237Y-89377539D01*
X177780894Y-89382048D01*
X177752279Y-89636015D01*
X177725640Y-89861081D01*
X177724989Y-89865321D01*
X177678039Y-90113464D01*
X177633192Y-90338927D01*
X177632270Y-90342880D01*
X177567221Y-90585645D01*
X177504436Y-90808263D01*
X177503284Y-90811912D01*
X177420486Y-91048535D01*
X177340138Y-91266330D01*
X177338796Y-91269665D01*
X177238936Y-91498547D01*
X177238414Y-91499710D01*
X177141259Y-91710457D01*
X177139769Y-91713472D01*
X177023228Y-91933976D01*
X177022508Y-91935300D01*
X176908988Y-92138005D01*
X176907390Y-92140697D01*
X176774780Y-92351743D01*
X176773834Y-92353203D01*
X176644680Y-92546495D01*
X176643014Y-92548867D01*
X176495063Y-92749333D01*
X176493868Y-92750899D01*
X176349906Y-92933515D01*
X176348210Y-92935574D01*
X176185743Y-93124364D01*
X176184277Y-93126007D01*
X176026362Y-93296839D01*
X176024674Y-93298594D01*
X175848594Y-93474674D01*
X175846839Y-93476362D01*
X175676007Y-93634277D01*
X175674364Y-93635743D01*
X175485574Y-93798210D01*
X175483515Y-93799906D01*
X175300899Y-93943868D01*
X175299333Y-93945063D01*
X175098867Y-94093014D01*
X175096495Y-94094680D01*
X174903203Y-94223834D01*
X174901743Y-94224780D01*
X174690697Y-94357390D01*
X174688005Y-94358988D01*
X174485300Y-94472508D01*
X174483976Y-94473228D01*
X174263472Y-94589769D01*
X174260457Y-94591259D01*
X174049710Y-94688414D01*
X174048547Y-94688936D01*
X173819665Y-94788796D01*
X173816330Y-94790138D01*
X173598535Y-94870486D01*
X173361912Y-94953284D01*
X173358263Y-94954436D01*
X173135645Y-95017221D01*
X172892880Y-95082270D01*
X172888927Y-95083192D01*
X172663464Y-95128039D01*
X172415321Y-95174989D01*
X172411081Y-95175640D01*
X172186015Y-95202279D01*
X171932048Y-95230894D01*
X171927538Y-95231237D01*
X171716889Y-95239513D01*
X171553648Y-95245621D01*
X171451132Y-95249457D01*
X171448848Y-95249500D01*
X139701152Y-95249500D01*
X139698867Y-95249457D01*
X139591409Y-95245436D01*
X139433109Y-95239513D01*
X139222460Y-95231237D01*
X139217950Y-95230894D01*
X138963983Y-95202279D01*
X138738917Y-95175640D01*
X138734677Y-95174989D01*
X138486534Y-95128039D01*
X138261057Y-95083188D01*
X138257118Y-95082270D01*
X138014353Y-95017221D01*
X137791735Y-94954436D01*
X137788086Y-94953284D01*
X137551463Y-94870486D01*
X137333668Y-94790138D01*
X137330333Y-94788796D01*
X137101451Y-94688936D01*
X137100288Y-94688414D01*
X136889541Y-94591259D01*
X136886542Y-94589777D01*
X136751687Y-94518504D01*
X136666022Y-94473228D01*
X136664698Y-94472508D01*
X136461993Y-94358988D01*
X136459313Y-94357397D01*
X136337545Y-94280885D01*
X136248255Y-94224780D01*
X136246795Y-94223834D01*
X136053503Y-94094680D01*
X136051131Y-94093014D01*
X135850665Y-93945063D01*
X135849099Y-93943868D01*
X135666456Y-93799883D01*
X135664440Y-93798223D01*
X135475628Y-93635738D01*
X135473991Y-93634277D01*
X135303159Y-93476362D01*
X135301404Y-93474674D01*
X135125324Y-93298594D01*
X135123648Y-93296852D01*
X134965721Y-93126007D01*
X134964255Y-93124364D01*
X134801767Y-92935549D01*
X134800123Y-92933553D01*
X134656110Y-92750874D01*
X134654935Y-92749333D01*
X134506984Y-92548867D01*
X134505318Y-92546495D01*
X134376164Y-92353203D01*
X134375218Y-92351743D01*
X134372028Y-92346667D01*
X134242587Y-92140662D01*
X134241023Y-92138027D01*
X134127469Y-91935262D01*
X134126790Y-91934014D01*
X134010207Y-91713428D01*
X134008752Y-91710484D01*
X133911581Y-91499704D01*
X133911062Y-91498547D01*
X133811202Y-91269665D01*
X133809873Y-91266363D01*
X133729507Y-91048521D01*
X133712132Y-90998867D01*
X133646713Y-90811911D01*
X133645569Y-90808288D01*
X133582779Y-90585652D01*
X133517721Y-90342853D01*
X133516819Y-90338986D01*
X133471958Y-90113451D01*
X133425006Y-89865303D01*
X133424360Y-89861099D01*
X133397715Y-89635974D01*
X133369102Y-89382032D01*
X133368764Y-89377581D01*
X133360784Y-89174501D01*
X149482390Y-89174501D01*
X149502804Y-89459933D01*
X149563628Y-89739537D01*
X149563630Y-89739543D01*
X149563631Y-89739546D01*
X149608968Y-89861099D01*
X149663635Y-90007666D01*
X149800770Y-90258809D01*
X149800775Y-90258817D01*
X149972254Y-90487887D01*
X149972270Y-90487905D01*
X150174594Y-90690229D01*
X150174612Y-90690245D01*
X150403682Y-90861724D01*
X150403690Y-90861729D01*
X150654833Y-90998864D01*
X150654832Y-90998864D01*
X150654836Y-90998865D01*
X150654839Y-90998867D01*
X150922954Y-91098869D01*
X150922960Y-91098870D01*
X150922962Y-91098871D01*
X151202566Y-91159695D01*
X151202568Y-91159695D01*
X151202572Y-91159696D01*
X151456220Y-91177837D01*
X151487999Y-91180110D01*
X151488000Y-91180110D01*
X151488001Y-91180110D01*
X151516595Y-91178064D01*
X151773428Y-91159696D01*
X152053046Y-91098869D01*
X152321161Y-90998867D01*
X152572315Y-90861726D01*
X152801395Y-90690239D01*
X153003739Y-90487895D01*
X153175226Y-90258815D01*
X153312367Y-90007661D01*
X153412369Y-89739546D01*
X153473196Y-89459928D01*
X153493610Y-89174501D01*
X163094390Y-89174501D01*
X163114804Y-89459933D01*
X163175628Y-89739537D01*
X163175630Y-89739543D01*
X163175631Y-89739546D01*
X163220968Y-89861099D01*
X163275635Y-90007666D01*
X163412770Y-90258809D01*
X163412775Y-90258817D01*
X163584254Y-90487887D01*
X163584270Y-90487905D01*
X163786594Y-90690229D01*
X163786612Y-90690245D01*
X164015682Y-90861724D01*
X164015690Y-90861729D01*
X164266833Y-90998864D01*
X164266832Y-90998864D01*
X164266836Y-90998865D01*
X164266839Y-90998867D01*
X164534954Y-91098869D01*
X164534960Y-91098870D01*
X164534962Y-91098871D01*
X164814566Y-91159695D01*
X164814568Y-91159695D01*
X164814572Y-91159696D01*
X165068220Y-91177837D01*
X165099999Y-91180110D01*
X165100000Y-91180110D01*
X165100001Y-91180110D01*
X165128595Y-91178064D01*
X165385428Y-91159696D01*
X165665046Y-91098869D01*
X165933161Y-90998867D01*
X166184315Y-90861726D01*
X166413395Y-90690239D01*
X166615739Y-90487895D01*
X166787226Y-90258815D01*
X166924367Y-90007661D01*
X167024369Y-89739546D01*
X167085196Y-89459928D01*
X167105610Y-89174500D01*
X167085196Y-88889072D01*
X167024369Y-88609454D01*
X166924367Y-88341339D01*
X166787226Y-88090185D01*
X166787224Y-88090182D01*
X166615745Y-87861112D01*
X166615729Y-87861094D01*
X166413405Y-87658770D01*
X166413387Y-87658754D01*
X166184317Y-87487275D01*
X166184309Y-87487270D01*
X165933166Y-87350135D01*
X165933167Y-87350135D01*
X165825914Y-87310132D01*
X165665046Y-87250131D01*
X165665043Y-87250130D01*
X165665037Y-87250128D01*
X165385433Y-87189304D01*
X165100001Y-87168890D01*
X165099999Y-87168890D01*
X164814566Y-87189304D01*
X164534962Y-87250128D01*
X164266833Y-87350135D01*
X164015690Y-87487270D01*
X164015682Y-87487275D01*
X163786612Y-87658754D01*
X163786594Y-87658770D01*
X163584270Y-87861094D01*
X163584254Y-87861112D01*
X163412775Y-88090182D01*
X163412770Y-88090190D01*
X163275635Y-88341333D01*
X163175628Y-88609462D01*
X163114804Y-88889066D01*
X163094390Y-89174498D01*
X163094390Y-89174501D01*
X153493610Y-89174501D01*
X153493610Y-89174500D01*
X153473196Y-88889072D01*
X153412369Y-88609454D01*
X153312367Y-88341339D01*
X153175226Y-88090185D01*
X153175224Y-88090182D01*
X153003745Y-87861112D01*
X153003729Y-87861094D01*
X152801405Y-87658770D01*
X152801387Y-87658754D01*
X152572317Y-87487275D01*
X152572309Y-87487270D01*
X152321166Y-87350135D01*
X152321167Y-87350135D01*
X152213914Y-87310132D01*
X152053046Y-87250131D01*
X152053043Y-87250130D01*
X152053037Y-87250128D01*
X151773433Y-87189304D01*
X151488001Y-87168890D01*
X151487999Y-87168890D01*
X151202566Y-87189304D01*
X150922962Y-87250128D01*
X150654833Y-87350135D01*
X150403690Y-87487270D01*
X150403682Y-87487275D01*
X150174612Y-87658754D01*
X150174594Y-87658770D01*
X149972270Y-87861094D01*
X149972254Y-87861112D01*
X149800775Y-88090182D01*
X149800770Y-88090190D01*
X149663635Y-88341333D01*
X149563628Y-88609462D01*
X149502804Y-88889066D01*
X149482390Y-89174498D01*
X149482390Y-89174501D01*
X133360784Y-89174501D01*
X133360488Y-89166962D01*
X133350540Y-88901078D01*
X133350499Y-88898901D01*
X133350499Y-82300477D01*
X160094662Y-82300477D01*
X160120368Y-82502321D01*
X160120370Y-82502329D01*
X160186183Y-82694870D01*
X160186189Y-82694882D01*
X160289406Y-82870221D01*
X160289411Y-82870228D01*
X160425820Y-83021212D01*
X160589828Y-83141646D01*
X160589832Y-83141648D01*
X160589833Y-83141649D01*
X160774732Y-83226605D01*
X160840456Y-83241857D01*
X160972945Y-83272603D01*
X161176358Y-83277757D01*
X161176358Y-83277756D01*
X161176363Y-83277757D01*
X161355853Y-83245586D01*
X161376648Y-83241859D01*
X161376648Y-83241858D01*
X161376653Y-83241858D01*
X161565617Y-83166377D01*
X161735519Y-83054402D01*
X162998001Y-81791918D01*
X162999014Y-81790931D01*
X163063053Y-81730059D01*
X163098097Y-81679709D01*
X163100924Y-81675957D01*
X163139698Y-81628407D01*
X163155607Y-81597948D01*
X163159667Y-81591248D01*
X163179295Y-81563049D01*
X163203492Y-81506660D01*
X163205498Y-81502435D01*
X163233909Y-81448049D01*
X163243357Y-81415022D01*
X163245988Y-81407633D01*
X163259540Y-81376058D01*
X163271895Y-81315930D01*
X163272999Y-81311429D01*
X163289886Y-81252418D01*
X163292494Y-81218157D01*
X163293585Y-81210389D01*
X163300500Y-81176743D01*
X163300500Y-81115398D01*
X163300679Y-81110688D01*
X163305337Y-81049524D01*
X163300997Y-81015442D01*
X163300500Y-81007603D01*
X163300500Y-75149256D01*
X163285074Y-74997560D01*
X163224162Y-74803420D01*
X163224160Y-74803416D01*
X163224159Y-74803412D01*
X163125409Y-74625498D01*
X163125408Y-74625497D01*
X163125407Y-74625495D01*
X162992867Y-74471106D01*
X162992865Y-74471104D01*
X162831962Y-74346554D01*
X162831959Y-74346553D01*
X162831958Y-74346552D01*
X162649271Y-74256940D01*
X162452285Y-74205937D01*
X162452287Y-74205937D01*
X162316804Y-74199066D01*
X162249064Y-74195631D01*
X162249063Y-74195631D01*
X162249061Y-74195631D01*
X162047936Y-74226442D01*
X162047924Y-74226445D01*
X161857118Y-74297111D01*
X161857111Y-74297115D01*
X161684432Y-74404745D01*
X161684427Y-74404749D01*
X161536949Y-74544938D01*
X161536948Y-74544940D01*
X161420705Y-74711949D01*
X161340459Y-74898943D01*
X161299500Y-75098258D01*
X161299500Y-80609217D01*
X161279815Y-80676256D01*
X161263181Y-80696898D01*
X160356662Y-81603417D01*
X160336285Y-81628408D01*
X160260302Y-81721593D01*
X160255880Y-81730059D01*
X160166090Y-81901953D01*
X160110112Y-82097584D01*
X160094662Y-82300474D01*
X160094662Y-82300477D01*
X133350499Y-82300477D01*
X133350499Y-67225477D01*
X148182162Y-67225477D01*
X148207868Y-67427321D01*
X148207870Y-67427329D01*
X148273683Y-67619870D01*
X148273689Y-67619882D01*
X148376906Y-67795221D01*
X148376911Y-67795228D01*
X148513320Y-67946212D01*
X148677328Y-68066646D01*
X148677332Y-68066648D01*
X148677333Y-68066649D01*
X148862232Y-68151605D01*
X148927956Y-68166857D01*
X149060445Y-68197603D01*
X149263858Y-68202757D01*
X149263858Y-68202756D01*
X149263863Y-68202757D01*
X149443353Y-68170586D01*
X149464148Y-68166859D01*
X149464148Y-68166858D01*
X149464153Y-68166858D01*
X149653117Y-68091377D01*
X149823019Y-67979402D01*
X152965601Y-64836818D01*
X153026924Y-64803334D01*
X153053282Y-64800500D01*
X156950743Y-64800500D01*
X157102439Y-64785074D01*
X157296579Y-64724162D01*
X157296580Y-64724161D01*
X157296588Y-64724159D01*
X157474502Y-64625409D01*
X157628895Y-64492866D01*
X157753448Y-64331958D01*
X157843060Y-64149271D01*
X157894063Y-63952285D01*
X157904369Y-63749064D01*
X157873556Y-63547929D01*
X157802886Y-63357113D01*
X157695252Y-63184429D01*
X157555059Y-63036947D01*
X157422699Y-62944822D01*
X157388050Y-62920705D01*
X157201056Y-62840459D01*
X157001741Y-62799500D01*
X152600976Y-62799500D01*
X152599414Y-62799480D01*
X152590056Y-62799242D01*
X152511138Y-62797242D01*
X152511135Y-62797242D01*
X152459323Y-62806529D01*
X152450754Y-62808064D01*
X152446095Y-62808718D01*
X152385064Y-62814925D01*
X152385062Y-62814926D01*
X152352280Y-62825210D01*
X152344656Y-62827081D01*
X152336808Y-62828488D01*
X152310849Y-62833141D01*
X152253881Y-62855895D01*
X152249445Y-62857474D01*
X152190914Y-62875840D01*
X152190910Y-62875842D01*
X152160878Y-62892510D01*
X152153784Y-62895879D01*
X152121882Y-62908623D01*
X152121877Y-62908625D01*
X152070656Y-62942381D01*
X152066628Y-62944822D01*
X152013001Y-62974588D01*
X151986934Y-62996965D01*
X151980665Y-63001692D01*
X151951984Y-63020595D01*
X151951978Y-63020600D01*
X151908609Y-63063968D01*
X151905155Y-63067169D01*
X151858602Y-63107136D01*
X151837576Y-63134298D01*
X151832385Y-63140192D01*
X148444162Y-66528417D01*
X148347804Y-66646590D01*
X148253590Y-66826953D01*
X148197612Y-67022584D01*
X148182162Y-67225474D01*
X148182162Y-67225477D01*
X133350499Y-67225477D01*
X133350499Y-57151149D01*
X133350520Y-57150000D01*
X153584341Y-57150000D01*
X153604936Y-57385403D01*
X153604938Y-57385413D01*
X153666094Y-57613655D01*
X153666096Y-57613659D01*
X153666097Y-57613663D01*
X153670000Y-57622032D01*
X153765965Y-57827830D01*
X153765967Y-57827834D01*
X153874281Y-57982521D01*
X153901505Y-58021401D01*
X154068599Y-58188495D01*
X154165384Y-58256265D01*
X154262165Y-58324032D01*
X154262167Y-58324033D01*
X154262170Y-58324035D01*
X154476337Y-58423903D01*
X154704592Y-58485063D01*
X154892918Y-58501539D01*
X154939999Y-58505659D01*
X154940000Y-58505659D01*
X154940001Y-58505659D01*
X154979234Y-58502226D01*
X155175408Y-58485063D01*
X155403663Y-58423903D01*
X155617830Y-58324035D01*
X155811401Y-58188495D01*
X155978495Y-58021401D01*
X156108424Y-57835842D01*
X156163002Y-57792217D01*
X156232500Y-57785023D01*
X156294855Y-57816546D01*
X156311575Y-57835842D01*
X156441500Y-58021395D01*
X156441505Y-58021401D01*
X156608599Y-58188495D01*
X156705384Y-58256265D01*
X156802165Y-58324032D01*
X156802167Y-58324033D01*
X156802170Y-58324035D01*
X157016337Y-58423903D01*
X157244592Y-58485063D01*
X157432918Y-58501539D01*
X157479999Y-58505659D01*
X157480000Y-58505659D01*
X157480001Y-58505659D01*
X157519234Y-58502226D01*
X157715408Y-58485063D01*
X157943663Y-58423903D01*
X158157830Y-58324035D01*
X158351401Y-58188495D01*
X158518495Y-58021401D01*
X158654035Y-57827830D01*
X158753903Y-57613663D01*
X158815063Y-57385408D01*
X158835659Y-57150000D01*
X158815063Y-56914592D01*
X158753903Y-56686337D01*
X158654035Y-56472171D01*
X158648425Y-56464158D01*
X158518494Y-56278597D01*
X158351402Y-56111506D01*
X158351395Y-56111501D01*
X158157834Y-55975967D01*
X158157830Y-55975965D01*
X158073270Y-55936534D01*
X157943663Y-55876097D01*
X157943659Y-55876096D01*
X157943655Y-55876094D01*
X157715413Y-55814938D01*
X157715403Y-55814936D01*
X157480001Y-55794341D01*
X157479999Y-55794341D01*
X157244596Y-55814936D01*
X157244586Y-55814938D01*
X157016344Y-55876094D01*
X157016335Y-55876098D01*
X156802171Y-55975964D01*
X156802169Y-55975965D01*
X156608597Y-56111505D01*
X156441505Y-56278597D01*
X156311575Y-56464158D01*
X156256998Y-56507783D01*
X156187500Y-56514977D01*
X156125145Y-56483454D01*
X156108425Y-56464158D01*
X155978494Y-56278597D01*
X155811402Y-56111506D01*
X155811395Y-56111501D01*
X155617834Y-55975967D01*
X155617830Y-55975965D01*
X155533270Y-55936534D01*
X155403663Y-55876097D01*
X155403659Y-55876096D01*
X155403655Y-55876094D01*
X155175413Y-55814938D01*
X155175403Y-55814936D01*
X154940001Y-55794341D01*
X154939999Y-55794341D01*
X154704596Y-55814936D01*
X154704586Y-55814938D01*
X154476344Y-55876094D01*
X154476335Y-55876098D01*
X154262171Y-55975964D01*
X154262169Y-55975965D01*
X154068597Y-56111505D01*
X153901505Y-56278597D01*
X153765965Y-56472169D01*
X153765964Y-56472171D01*
X153666098Y-56686335D01*
X153666094Y-56686344D01*
X153604938Y-56914586D01*
X153604936Y-56914596D01*
X153584341Y-57149999D01*
X153584341Y-57150000D01*
X133350520Y-57150000D01*
X133350541Y-57148868D01*
X133360488Y-56883039D01*
X133368764Y-56672414D01*
X133369102Y-56667972D01*
X133397725Y-56413937D01*
X133424361Y-56188891D01*
X133425004Y-56184705D01*
X133471966Y-55936503D01*
X133516822Y-55710999D01*
X133517718Y-55707159D01*
X133582778Y-55464353D01*
X133645575Y-55241692D01*
X133646707Y-55238106D01*
X133729524Y-55001429D01*
X133809882Y-54783612D01*
X133811190Y-54780361D01*
X133911104Y-54551355D01*
X133911547Y-54550369D01*
X134008766Y-54339485D01*
X134010191Y-54336601D01*
X134126829Y-54115913D01*
X134127432Y-54114804D01*
X134241042Y-53911937D01*
X134242565Y-53909372D01*
X134375260Y-53698189D01*
X134376109Y-53696878D01*
X134505345Y-53503463D01*
X134506950Y-53501179D01*
X134654984Y-53300600D01*
X134656063Y-53299186D01*
X134800160Y-53116399D01*
X134801728Y-53114496D01*
X134964317Y-52925564D01*
X134965670Y-52924047D01*
X135123696Y-52753096D01*
X135125273Y-52751456D01*
X135301456Y-52575273D01*
X135303096Y-52573696D01*
X135474047Y-52415670D01*
X135475564Y-52414317D01*
X135664496Y-52251728D01*
X135666399Y-52250160D01*
X135849186Y-52106063D01*
X135850600Y-52104984D01*
X136051179Y-51956950D01*
X136053463Y-51955345D01*
X136246878Y-51826109D01*
X136248189Y-51825260D01*
X136459372Y-51692565D01*
X136461937Y-51691042D01*
X136664804Y-51577432D01*
X136665913Y-51576829D01*
X136886601Y-51460191D01*
X136889485Y-51458766D01*
X137100369Y-51361547D01*
X137101355Y-51361104D01*
X137330361Y-51261190D01*
X137333612Y-51259882D01*
X137551429Y-51179524D01*
X137788106Y-51096707D01*
X137791692Y-51095575D01*
X138014378Y-51032771D01*
X138257159Y-50967718D01*
X138260999Y-50966822D01*
X138486503Y-50921966D01*
X138734705Y-50875004D01*
X138738891Y-50874361D01*
X138963937Y-50847725D01*
X139217972Y-50819102D01*
X139222412Y-50818764D01*
X139433056Y-50810488D01*
X139698867Y-50800542D01*
X139701152Y-50800500D01*
X171448848Y-50800500D01*
X171451132Y-50800542D01*
G37*
%TD.AperFunction*%
%TD*%
M02*
