%TF.GenerationSoftware,KiCad,Pcbnew,7.0.5*%
%TF.CreationDate,2023-09-16T15:34:49-07:00*%
%TF.ProjectId,HighSideSwitchModule,48696768-5369-4646-9553-77697463684d,rev?*%
%TF.SameCoordinates,Original*%
%TF.FileFunction,Copper,L1,Top*%
%TF.FilePolarity,Positive*%
%FSLAX46Y46*%
G04 Gerber Fmt 4.6, Leading zero omitted, Abs format (unit mm)*
G04 Created by KiCad (PCBNEW 7.0.5) date 2023-09-16 15:34:49*
%MOMM*%
%LPD*%
G01*
G04 APERTURE LIST*
G04 Aperture macros list*
%AMRoundRect*
0 Rectangle with rounded corners*
0 $1 Rounding radius*
0 $2 $3 $4 $5 $6 $7 $8 $9 X,Y pos of 4 corners*
0 Add a 4 corners polygon primitive as box body*
4,1,4,$2,$3,$4,$5,$6,$7,$8,$9,$2,$3,0*
0 Add four circle primitives for the rounded corners*
1,1,$1+$1,$2,$3*
1,1,$1+$1,$4,$5*
1,1,$1+$1,$6,$7*
1,1,$1+$1,$8,$9*
0 Add four rect primitives between the rounded corners*
20,1,$1+$1,$2,$3,$4,$5,0*
20,1,$1+$1,$4,$5,$6,$7,0*
20,1,$1+$1,$6,$7,$8,$9,0*
20,1,$1+$1,$8,$9,$2,$3,0*%
G04 Aperture macros list end*
%TA.AperFunction,SMDPad,CuDef*%
%ADD10RoundRect,0.250000X-0.250000X-0.475000X0.250000X-0.475000X0.250000X0.475000X-0.250000X0.475000X0*%
%TD*%
%TA.AperFunction,SMDPad,CuDef*%
%ADD11RoundRect,0.150000X-0.587500X-0.150000X0.587500X-0.150000X0.587500X0.150000X-0.587500X0.150000X0*%
%TD*%
%TA.AperFunction,ComponentPad*%
%ADD12C,5.600000*%
%TD*%
%TA.AperFunction,SMDPad,CuDef*%
%ADD13RoundRect,0.225000X0.225000X0.375000X-0.225000X0.375000X-0.225000X-0.375000X0.225000X-0.375000X0*%
%TD*%
%TA.AperFunction,SMDPad,CuDef*%
%ADD14RoundRect,0.150000X-0.512500X-0.150000X0.512500X-0.150000X0.512500X0.150000X-0.512500X0.150000X0*%
%TD*%
%TA.AperFunction,SMDPad,CuDef*%
%ADD15RoundRect,0.250000X-0.450000X0.262500X-0.450000X-0.262500X0.450000X-0.262500X0.450000X0.262500X0*%
%TD*%
%TA.AperFunction,SMDPad,CuDef*%
%ADD16RoundRect,0.243750X-0.243750X-0.456250X0.243750X-0.456250X0.243750X0.456250X-0.243750X0.456250X0*%
%TD*%
%TA.AperFunction,SMDPad,CuDef*%
%ADD17RoundRect,0.250000X-0.262500X-0.450000X0.262500X-0.450000X0.262500X0.450000X-0.262500X0.450000X0*%
%TD*%
%TA.AperFunction,SMDPad,CuDef*%
%ADD18RoundRect,0.250000X1.825000X0.700000X-1.825000X0.700000X-1.825000X-0.700000X1.825000X-0.700000X0*%
%TD*%
%TA.AperFunction,SMDPad,CuDef*%
%ADD19RoundRect,0.250000X0.450000X-0.262500X0.450000X0.262500X-0.450000X0.262500X-0.450000X-0.262500X0*%
%TD*%
%TA.AperFunction,ComponentPad*%
%ADD20R,3.000000X3.000000*%
%TD*%
%TA.AperFunction,ComponentPad*%
%ADD21C,3.000000*%
%TD*%
%TA.AperFunction,SMDPad,CuDef*%
%ADD22RoundRect,0.250000X0.262500X0.450000X-0.262500X0.450000X-0.262500X-0.450000X0.262500X-0.450000X0*%
%TD*%
%TA.AperFunction,SMDPad,CuDef*%
%ADD23RoundRect,0.225000X0.375000X-0.225000X0.375000X0.225000X-0.375000X0.225000X-0.375000X-0.225000X0*%
%TD*%
%TA.AperFunction,SMDPad,CuDef*%
%ADD24RoundRect,0.250000X0.250000X0.475000X-0.250000X0.475000X-0.250000X-0.475000X0.250000X-0.475000X0*%
%TD*%
%TA.AperFunction,SMDPad,CuDef*%
%ADD25RoundRect,0.250000X0.475000X-0.250000X0.475000X0.250000X-0.475000X0.250000X-0.475000X-0.250000X0*%
%TD*%
%TA.AperFunction,SMDPad,CuDef*%
%ADD26RoundRect,0.243750X-0.456250X0.243750X-0.456250X-0.243750X0.456250X-0.243750X0.456250X0.243750X0*%
%TD*%
%TA.AperFunction,SMDPad,CuDef*%
%ADD27RoundRect,0.243750X0.243750X0.456250X-0.243750X0.456250X-0.243750X-0.456250X0.243750X-0.456250X0*%
%TD*%
%TA.AperFunction,ComponentPad*%
%ADD28R,1.700000X1.700000*%
%TD*%
%TA.AperFunction,ComponentPad*%
%ADD29O,1.700000X1.700000*%
%TD*%
%TA.AperFunction,SMDPad,CuDef*%
%ADD30RoundRect,0.250000X-0.850000X-0.350000X0.850000X-0.350000X0.850000X0.350000X-0.850000X0.350000X0*%
%TD*%
%TA.AperFunction,SMDPad,CuDef*%
%ADD31RoundRect,0.250000X-1.275000X-1.125000X1.275000X-1.125000X1.275000X1.125000X-1.275000X1.125000X0*%
%TD*%
%TA.AperFunction,SMDPad,CuDef*%
%ADD32RoundRect,0.249997X-2.950003X-2.650003X2.950003X-2.650003X2.950003X2.650003X-2.950003X2.650003X0*%
%TD*%
%TA.AperFunction,ViaPad*%
%ADD33C,0.700000*%
%TD*%
%TA.AperFunction,Conductor*%
%ADD34C,0.500000*%
%TD*%
%TA.AperFunction,Conductor*%
%ADD35C,1.000000*%
%TD*%
%TA.AperFunction,Conductor*%
%ADD36C,0.300000*%
%TD*%
G04 APERTURE END LIST*
D10*
%TO.P,C6,1*%
%TO.N,Net-(D8-A)*%
X169050000Y-72000000D03*
%TO.P,C6,2*%
%TO.N,GND*%
X170950000Y-72000000D03*
%TD*%
D11*
%TO.P,Q3,1,G*%
%TO.N,Net-(D19-A)*%
X149125000Y-80050000D03*
%TO.P,Q3,2,S*%
%TO.N,+12V*%
X149125000Y-81950000D03*
%TO.P,Q3,3,D*%
%TO.N,Net-(J7-Pin_2)*%
X151000000Y-81000000D03*
%TD*%
D12*
%TO.P,J1,1,Pin_1*%
%TO.N,GND*%
X139700000Y-57150000D03*
%TD*%
D13*
%TO.P,D3,1,K*%
%TO.N,Net-(D2-A)*%
X151000000Y-66000000D03*
%TO.P,D3,2,A*%
%TO.N,GND*%
X147700000Y-66000000D03*
%TD*%
D14*
%TO.P,D8,1,K*%
%TO.N,GND*%
X154725000Y-80050000D03*
%TO.P,D8,2,K*%
%TO.N,+12V*%
X154725000Y-81950000D03*
%TO.P,D8,3,A*%
%TO.N,Net-(D8-A)*%
X157000000Y-81000000D03*
%TD*%
D15*
%TO.P,R47,1*%
%TO.N,Net-(D21-A)*%
X150000000Y-75087500D03*
%TO.P,R47,2*%
%TO.N,+12V*%
X150000000Y-76912500D03*
%TD*%
D16*
%TO.P,D2,1,K*%
%TO.N,GND*%
X150062500Y-62000000D03*
%TO.P,D2,2,A*%
%TO.N,Net-(D2-A)*%
X151937500Y-62000000D03*
%TD*%
D12*
%TO.P,J3,1,Pin_1*%
%TO.N,GND*%
X139700000Y-88900000D03*
%TD*%
D17*
%TO.P,R1,1*%
%TO.N,Net-(D2-A)*%
X154087500Y-62000000D03*
%TO.P,R1,2*%
%TO.N,Net-(J5-Pin_3)*%
X155912500Y-62000000D03*
%TD*%
%TO.P,R19,1*%
%TO.N,Net-(Q5-G)*%
X159175000Y-72000000D03*
%TO.P,R19,2*%
%TO.N,Net-(U3-HO)*%
X161000000Y-72000000D03*
%TD*%
D18*
%TO.P,C15,1*%
%TO.N,+12V*%
X144950000Y-71000000D03*
%TO.P,C15,2*%
%TO.N,GND*%
X138000000Y-71000000D03*
%TD*%
D19*
%TO.P,R45,1*%
%TO.N,GND*%
X141000000Y-81912500D03*
%TO.P,R45,2*%
%TO.N,Net-(D19-A)*%
X141000000Y-80087500D03*
%TD*%
D12*
%TO.P,J4,1,Pin_1*%
%TO.N,GND*%
X171450000Y-88900000D03*
%TD*%
D20*
%TO.P,J6,1,Pin_1*%
%TO.N,GND*%
X160020000Y-89174500D03*
D21*
%TO.P,J6,2,Pin_2*%
%TO.N,Net-(D8-A)*%
X165100000Y-89174500D03*
%TD*%
D22*
%TO.P,R17,1*%
%TO.N,Net-(D1-A)*%
X156000000Y-69000000D03*
%TO.P,R17,2*%
%TO.N,/HighSideGate/IN*%
X154175000Y-69000000D03*
%TD*%
D12*
%TO.P,J2,1,Pin_1*%
%TO.N,GND*%
X171450000Y-57150000D03*
%TD*%
D23*
%TO.P,D19,1,K*%
%TO.N,+12V*%
X145000000Y-82650000D03*
%TO.P,D19,2,A*%
%TO.N,Net-(D19-A)*%
X145000000Y-79350000D03*
%TD*%
D20*
%TO.P,J7,1,Pin_1*%
%TO.N,GND*%
X146408000Y-89174500D03*
D21*
%TO.P,J7,2,Pin_2*%
%TO.N,Net-(J7-Pin_2)*%
X151488000Y-89174500D03*
%TD*%
D24*
%TO.P,C5,1*%
%TO.N,Net-(D8-A)*%
X165950000Y-72000000D03*
%TO.P,C5,2*%
%TO.N,GND*%
X164050000Y-72000000D03*
%TD*%
D25*
%TO.P,C17,1*%
%TO.N,+12V*%
X154000000Y-76950000D03*
%TO.P,C17,2*%
%TO.N,GND*%
X154000000Y-75050000D03*
%TD*%
D22*
%TO.P,R15,1*%
%TO.N,GND*%
X155912500Y-66174500D03*
%TO.P,R15,2*%
%TO.N,/HighSideGate/IN*%
X154087500Y-66174500D03*
%TD*%
D26*
%TO.P,D9,1,K*%
%TO.N,GND*%
X171000000Y-63062500D03*
%TO.P,D9,2,A*%
%TO.N,Net-(D9-A)*%
X171000000Y-64937500D03*
%TD*%
D15*
%TO.P,R20,1*%
%TO.N,Net-(D9-A)*%
X171000000Y-67087500D03*
%TO.P,R20,2*%
%TO.N,Net-(D8-A)*%
X171000000Y-68912500D03*
%TD*%
D24*
%TO.P,C2,1*%
%TO.N,Net-(D7-A)*%
X160950000Y-62000000D03*
%TO.P,C2,2*%
%TO.N,GND*%
X159050000Y-62000000D03*
%TD*%
D27*
%TO.P,D21,1,K*%
%TO.N,GND*%
X151000000Y-72000000D03*
%TO.P,D21,2,A*%
%TO.N,Net-(D21-A)*%
X149125000Y-72000000D03*
%TD*%
D28*
%TO.P,J5,1,Pin_1*%
%TO.N,GND*%
X152400000Y-57150000D03*
D29*
%TO.P,J5,2,Pin_2*%
%TO.N,/HighSideGate/IN*%
X154940000Y-57150000D03*
%TO.P,J5,3,Pin_3*%
%TO.N,Net-(J5-Pin_3)*%
X157480000Y-57150000D03*
%TD*%
D24*
%TO.P,C3,1*%
%TO.N,Net-(D7-K)*%
X167000000Y-67000000D03*
%TO.P,C3,2*%
%TO.N,Net-(D8-A)*%
X165100000Y-67000000D03*
%TD*%
D23*
%TO.P,D7,1,K*%
%TO.N,Net-(D7-K)*%
X165000000Y-63300000D03*
%TO.P,D7,2,A*%
%TO.N,Net-(D7-A)*%
X165000000Y-60000000D03*
%TD*%
D16*
%TO.P,D1,1,K*%
%TO.N,GND*%
X154125000Y-72000000D03*
%TO.P,D1,2,A*%
%TO.N,Net-(D1-A)*%
X156000000Y-72000000D03*
%TD*%
D30*
%TO.P,Q5,1,G*%
%TO.N,Net-(Q5-G)*%
X163375000Y-77245000D03*
%TO.P,Q5,2,D*%
%TO.N,+12V*%
X163375000Y-79525000D03*
D31*
X168000000Y-78000000D03*
X168000000Y-81050000D03*
D32*
X169675000Y-79525000D03*
D31*
X171350000Y-78000000D03*
X171350000Y-81050000D03*
D30*
%TO.P,Q5,3,S*%
%TO.N,Net-(D8-A)*%
X163375000Y-81805000D03*
%TD*%
D14*
%TO.P,U3,1,V_{CC}*%
%TO.N,Net-(D7-A)*%
X160173000Y-66000000D03*
%TO.P,U3,2,COM*%
%TO.N,GND*%
X160173000Y-66950000D03*
%TO.P,U3,3,IN*%
%TO.N,/HighSideGate/IN*%
X160173000Y-67900000D03*
%TO.P,U3,4,VS*%
%TO.N,Net-(D8-A)*%
X162448000Y-67900000D03*
%TO.P,U3,5,HO*%
%TO.N,Net-(U3-HO)*%
X162448000Y-66950000D03*
%TO.P,U3,6,VB*%
%TO.N,Net-(D7-K)*%
X162448000Y-66000000D03*
%TD*%
D33*
%TO.N,GND*%
X151000000Y-78500000D03*
X156000000Y-75000000D03*
X164000000Y-84000000D03*
X163500000Y-70500000D03*
X156000000Y-79000000D03*
X159000000Y-83500000D03*
X143000000Y-81000000D03*
X164500000Y-65500000D03*
X172500000Y-71500000D03*
%TO.N,/HighSideGate/IN*%
X155000000Y-64000000D03*
%TO.N,Net-(D8-A)*%
X160000000Y-81805000D03*
X167000000Y-75000000D03*
%TD*%
D34*
%TO.N,Net-(D7-K)*%
X162448000Y-66000000D02*
X162448000Y-65852000D01*
D35*
X165000000Y-63300000D02*
X167000000Y-65300000D01*
D34*
X162448000Y-65852000D02*
X165000000Y-63300000D01*
D35*
X167000000Y-65300000D02*
X167000000Y-67000000D01*
%TO.N,GND*%
X154725000Y-80050000D02*
X154950000Y-80050000D01*
X154000000Y-75050000D02*
X154000000Y-72125000D01*
X154000000Y-53000000D02*
X152400000Y-54600000D01*
D34*
X156087000Y-66000000D02*
X155912500Y-66174500D01*
D35*
X175000000Y-61500000D02*
X175000000Y-60700000D01*
X141000000Y-81912500D02*
X142087500Y-81912500D01*
X160000000Y-93000000D02*
X167350000Y-93000000D01*
X146408000Y-89174500D02*
X146408000Y-90408000D01*
X160000000Y-59000000D02*
X160000000Y-53000000D01*
X154125000Y-72000000D02*
X151000000Y-72000000D01*
X171450000Y-71500000D02*
X170950000Y-72000000D01*
X159050000Y-59950000D02*
X160000000Y-59000000D01*
X155912500Y-65137500D02*
X159050000Y-62000000D01*
X159050000Y-62000000D02*
X159050000Y-59950000D01*
X164000000Y-71000000D02*
X163500000Y-70500000D01*
X167350000Y-93000000D02*
X171450000Y-88900000D01*
X154050000Y-75000000D02*
X154000000Y-75050000D01*
X156000000Y-75000000D02*
X154050000Y-75000000D01*
X164050000Y-72000000D02*
X164000000Y-72000000D01*
X151000000Y-72000000D02*
X151000000Y-71000000D01*
X175000000Y-60700000D02*
X171450000Y-57150000D01*
X171000000Y-63062500D02*
X173437500Y-63062500D01*
D34*
X157000000Y-66000000D02*
X156087000Y-66000000D01*
D35*
X154950000Y-80050000D02*
X156000000Y-79000000D01*
X155912500Y-66174500D02*
X155912500Y-65137500D01*
X160000000Y-53000000D02*
X154000000Y-53000000D01*
X150062500Y-59487500D02*
X152400000Y-57150000D01*
X146133500Y-88900000D02*
X146408000Y-89174500D01*
X175000000Y-71000000D02*
X175000000Y-61500000D01*
X175000000Y-85350000D02*
X175000000Y-71000000D01*
X149000000Y-93000000D02*
X160000000Y-93000000D01*
X171450000Y-57150000D02*
X167300000Y-53000000D01*
X154000000Y-72125000D02*
X154125000Y-72000000D01*
X136000000Y-85200000D02*
X139700000Y-88900000D01*
X152400000Y-57150000D02*
X139700000Y-57150000D01*
X171450000Y-88900000D02*
X175000000Y-85350000D01*
X142087500Y-81912500D02*
X143000000Y-81000000D01*
X136000000Y-60850000D02*
X136000000Y-85200000D01*
D34*
X157950000Y-66950000D02*
X157000000Y-66000000D01*
D35*
X147700000Y-64362500D02*
X150062500Y-62000000D01*
X172500000Y-71500000D02*
X174500000Y-71500000D01*
D34*
X160173000Y-66950000D02*
X157950000Y-66950000D01*
D35*
X160020000Y-89174500D02*
X160020000Y-92980000D01*
X167300000Y-53000000D02*
X160000000Y-53000000D01*
X174500000Y-71500000D02*
X175000000Y-71000000D01*
X139700000Y-57150000D02*
X136000000Y-60850000D01*
X151000000Y-71000000D02*
X147700000Y-67700000D01*
X147700000Y-67700000D02*
X147700000Y-66000000D01*
X173437500Y-63062500D02*
X175000000Y-61500000D01*
X150062500Y-62000000D02*
X150062500Y-59487500D01*
X147700000Y-66000000D02*
X147700000Y-64362500D01*
X172500000Y-71500000D02*
X171450000Y-71500000D01*
X152400000Y-54600000D02*
X152400000Y-57150000D01*
X139700000Y-88900000D02*
X146133500Y-88900000D01*
X160020000Y-92980000D02*
X160000000Y-93000000D01*
X146408000Y-90408000D02*
X149000000Y-93000000D01*
X164000000Y-72000000D02*
X164000000Y-71000000D01*
%TO.N,/HighSideGate/IN*%
X154087500Y-64912500D02*
X154087500Y-66174500D01*
D34*
X157510051Y-67500000D02*
X154675000Y-67500000D01*
X160173000Y-67900000D02*
X157910051Y-67900000D01*
X157910051Y-67900000D02*
X157510051Y-67500000D01*
D35*
X155000000Y-64000000D02*
X154087500Y-64912500D01*
X154175000Y-69000000D02*
X154175000Y-68000000D01*
X154175000Y-68000000D02*
X154175000Y-66262000D01*
D34*
X154675000Y-67500000D02*
X154175000Y-68000000D01*
D35*
X154175000Y-66262000D02*
X154087500Y-66174500D01*
%TO.N,+12V*%
X149125000Y-81950000D02*
X145700000Y-81950000D01*
X159000000Y-77000000D02*
X154050000Y-77000000D01*
X163375000Y-79525000D02*
X161525000Y-79525000D01*
X150000000Y-76912500D02*
X147912500Y-76912500D01*
X153962500Y-76912500D02*
X154000000Y-76950000D01*
X161525000Y-79525000D02*
X159000000Y-77000000D01*
X144950000Y-72050000D02*
X144950000Y-71000000D01*
X154050000Y-77000000D02*
X154000000Y-76950000D01*
X153000000Y-81000000D02*
X153950000Y-81950000D01*
X153000000Y-76912500D02*
X153962500Y-76912500D01*
X145700000Y-81950000D02*
X145000000Y-82650000D01*
X153950000Y-81950000D02*
X154725000Y-81950000D01*
X144950000Y-73950000D02*
X144950000Y-71000000D01*
X150000000Y-76912500D02*
X153000000Y-76912500D01*
X138000000Y-79000000D02*
X144950000Y-72050000D01*
X138000000Y-84000000D02*
X138000000Y-79000000D01*
X147912500Y-76912500D02*
X144950000Y-73950000D01*
X144350000Y-82650000D02*
X143000000Y-84000000D01*
X143000000Y-84000000D02*
X138000000Y-84000000D01*
X153000000Y-76912500D02*
X153000000Y-81000000D01*
X163375000Y-79525000D02*
X169675000Y-79525000D01*
X145000000Y-82650000D02*
X144350000Y-82650000D01*
%TO.N,Net-(J5-Pin_3)*%
X157480000Y-57150000D02*
X157480000Y-60432500D01*
X157480000Y-60432500D02*
X155912500Y-62000000D01*
%TO.N,Net-(J7-Pin_2)*%
X151488000Y-81488000D02*
X151000000Y-81000000D01*
X151488000Y-89174500D02*
X151488000Y-81488000D01*
%TO.N,Net-(D1-A)*%
X156000000Y-69000000D02*
X156000000Y-72000000D01*
D34*
%TO.N,Net-(D8-A)*%
X162448000Y-67900000D02*
X165000000Y-67900000D01*
D35*
X165100000Y-69100000D02*
X165950000Y-69950000D01*
X168000000Y-73050000D02*
X169050000Y-72000000D01*
X167000000Y-73050000D02*
X165950000Y-72000000D01*
X165100000Y-67000000D02*
X165100000Y-68000000D01*
X165950000Y-69950000D02*
X165950000Y-72000000D01*
X163375000Y-81805000D02*
X157805000Y-81805000D01*
X169050000Y-70862500D02*
X171000000Y-68912500D01*
X169050000Y-72000000D02*
X169050000Y-70862500D01*
X157805000Y-81805000D02*
X157000000Y-81000000D01*
X167000000Y-73050000D02*
X168000000Y-73050000D01*
X162000000Y-83180000D02*
X163375000Y-81805000D01*
X165100000Y-89174500D02*
X162000000Y-86074500D01*
D34*
X165000000Y-67900000D02*
X165100000Y-68000000D01*
D35*
X165100000Y-68000000D02*
X165100000Y-69100000D01*
X167000000Y-75000000D02*
X167000000Y-73050000D01*
X162000000Y-86074500D02*
X162000000Y-83180000D01*
%TO.N,Net-(D2-A)*%
X151937500Y-65062500D02*
X151000000Y-66000000D01*
X151937500Y-62000000D02*
X151937500Y-65062500D01*
X154087500Y-62000000D02*
X151937500Y-62000000D01*
%TO.N,Net-(D7-A)*%
X165000000Y-60000000D02*
X162950000Y-60000000D01*
D34*
X160173000Y-64827000D02*
X161000000Y-64000000D01*
D35*
X162950000Y-60000000D02*
X160950000Y-62000000D01*
D34*
X160950000Y-63950000D02*
X160950000Y-62000000D01*
X161000000Y-64000000D02*
X160950000Y-63950000D01*
X160173000Y-66000000D02*
X160173000Y-64827000D01*
D35*
%TO.N,Net-(D9-A)*%
X171000000Y-67087500D02*
X171000000Y-64937500D01*
%TO.N,Net-(D19-A)*%
X145000000Y-79350000D02*
X141737500Y-79350000D01*
X149125000Y-80050000D02*
X145700000Y-80050000D01*
X141737500Y-79350000D02*
X141000000Y-80087500D01*
X145700000Y-80050000D02*
X145000000Y-79350000D01*
%TO.N,Net-(D21-A)*%
X149125000Y-72000000D02*
X149125000Y-74212500D01*
X149125000Y-74212500D02*
X150000000Y-75087500D01*
%TO.N,Net-(Q5-G)*%
X163375000Y-77245000D02*
X159175000Y-73045000D01*
X159175000Y-73045000D02*
X159175000Y-72000000D01*
D34*
%TO.N,Net-(U3-HO)*%
X161285500Y-69000000D02*
X161285500Y-71714500D01*
D36*
X161285500Y-67203696D02*
X161285500Y-69000000D01*
X161539196Y-66950000D02*
X161285500Y-67203696D01*
D34*
X161285500Y-71714500D02*
X161000000Y-72000000D01*
D36*
X162448000Y-66950000D02*
X161539196Y-66950000D01*
%TD*%
%TA.AperFunction,Conductor*%
%TO.N,GND*%
G36*
X144055733Y-74461700D02*
G01*
X144111666Y-74503572D01*
X144120819Y-74517707D01*
X144124586Y-74524495D01*
X144124589Y-74524499D01*
X144124591Y-74524502D01*
X144146968Y-74550567D01*
X144151693Y-74556835D01*
X144164263Y-74575906D01*
X144170598Y-74585519D01*
X144213978Y-74628899D01*
X144217169Y-74632343D01*
X144256466Y-74678117D01*
X144257134Y-74678895D01*
X144284294Y-74699918D01*
X144290190Y-74705110D01*
X147195542Y-77610463D01*
X147196601Y-77611550D01*
X147257437Y-77675550D01*
X147257441Y-77675553D01*
X147307781Y-77710592D01*
X147311543Y-77713428D01*
X147359087Y-77752194D01*
X147359090Y-77752195D01*
X147359093Y-77752198D01*
X147389545Y-77768104D01*
X147396258Y-77772172D01*
X147424451Y-77791795D01*
X147480829Y-77815989D01*
X147485078Y-77818007D01*
X147539451Y-77846409D01*
X147566989Y-77854288D01*
X147572474Y-77855858D01*
X147579868Y-77858490D01*
X147611442Y-77872040D01*
X147611445Y-77872040D01*
X147611446Y-77872041D01*
X147671522Y-77884387D01*
X147676100Y-77885510D01*
X147690001Y-77889487D01*
X147735082Y-77902387D01*
X147769339Y-77904995D01*
X147777114Y-77906086D01*
X147810755Y-77913000D01*
X147810759Y-77913000D01*
X147872099Y-77913000D01*
X147876805Y-77913178D01*
X147911563Y-77915825D01*
X147937976Y-77917837D01*
X147937976Y-77917836D01*
X147937977Y-77917837D01*
X147972060Y-77913496D01*
X147979890Y-77913000D01*
X149374741Y-77913000D01*
X149390433Y-77914660D01*
X149390469Y-77914311D01*
X149397202Y-77914998D01*
X149397203Y-77914999D01*
X149499991Y-77925500D01*
X150500008Y-77925499D01*
X150500016Y-77925498D01*
X150500019Y-77925498D01*
X150609532Y-77914311D01*
X150609567Y-77914660D01*
X150625258Y-77913000D01*
X151875500Y-77913000D01*
X151942539Y-77932685D01*
X151988294Y-77985489D01*
X151999500Y-78037000D01*
X151999500Y-80127147D01*
X151979815Y-80194186D01*
X151927011Y-80239941D01*
X151857853Y-80249885D01*
X151840905Y-80246224D01*
X151760650Y-80222908D01*
X151690069Y-80202402D01*
X151690066Y-80202401D01*
X151690067Y-80202401D01*
X151653201Y-80199500D01*
X151653194Y-80199500D01*
X151645626Y-80199500D01*
X151578587Y-80179815D01*
X151567265Y-80171602D01*
X151553407Y-80160302D01*
X151489935Y-80127147D01*
X151373048Y-80066090D01*
X151210359Y-80019539D01*
X151177418Y-80010113D01*
X151177417Y-80010112D01*
X151177416Y-80010112D01*
X150974525Y-79994662D01*
X150974522Y-79994662D01*
X150772678Y-80020368D01*
X150772670Y-80020370D01*
X150580129Y-80086183D01*
X150580120Y-80086187D01*
X150549904Y-80103975D01*
X150482145Y-80121020D01*
X150415928Y-80098726D01*
X150372275Y-80044171D01*
X150363000Y-79997115D01*
X150363000Y-79834313D01*
X150362999Y-79834298D01*
X150360098Y-79797432D01*
X150360097Y-79797426D01*
X150314245Y-79639606D01*
X150314244Y-79639603D01*
X150314244Y-79639602D01*
X150230581Y-79498135D01*
X150230579Y-79498133D01*
X150230576Y-79498129D01*
X150114370Y-79381923D01*
X150114362Y-79381917D01*
X149972896Y-79298255D01*
X149972893Y-79298254D01*
X149815073Y-79252402D01*
X149815067Y-79252401D01*
X149778201Y-79249500D01*
X149778194Y-79249500D01*
X149765162Y-79249500D01*
X149698123Y-79229815D01*
X149694325Y-79227275D01*
X149613050Y-79170705D01*
X149426056Y-79090459D01*
X149226741Y-79049500D01*
X146203818Y-79049500D01*
X146136779Y-79029815D01*
X146091024Y-78977011D01*
X146086112Y-78964504D01*
X146064160Y-78898258D01*
X146037003Y-78816303D01*
X146036999Y-78816297D01*
X146036998Y-78816294D01*
X145947970Y-78671959D01*
X145947967Y-78671955D01*
X145828044Y-78552032D01*
X145828040Y-78552029D01*
X145683705Y-78463001D01*
X145683699Y-78462998D01*
X145683697Y-78462997D01*
X145567520Y-78424500D01*
X145522709Y-78409651D01*
X145423352Y-78399500D01*
X145423345Y-78399500D01*
X145347605Y-78399500D01*
X145307396Y-78391235D01*
X145307050Y-78392341D01*
X145301061Y-78390461D01*
X145301058Y-78390460D01*
X145301053Y-78390459D01*
X145301047Y-78390457D01*
X145240966Y-78378109D01*
X145236391Y-78376986D01*
X145177420Y-78360113D01*
X145177425Y-78360113D01*
X145143158Y-78357503D01*
X145135380Y-78356412D01*
X145101742Y-78349500D01*
X145101741Y-78349500D01*
X145040402Y-78349500D01*
X145035695Y-78349321D01*
X145030121Y-78348896D01*
X144974524Y-78344662D01*
X144954589Y-78347201D01*
X144940440Y-78349003D01*
X144932611Y-78349500D01*
X141750993Y-78349500D01*
X141749430Y-78349480D01*
X141661137Y-78347243D01*
X141661136Y-78347243D01*
X141661127Y-78347243D01*
X141600753Y-78358065D01*
X141596087Y-78358719D01*
X141535063Y-78364925D01*
X141535062Y-78364925D01*
X141502286Y-78375208D01*
X141494659Y-78377080D01*
X141460850Y-78383140D01*
X141460847Y-78383141D01*
X141403868Y-78405899D01*
X141399431Y-78407478D01*
X141340917Y-78425838D01*
X141340906Y-78425843D01*
X141310882Y-78442507D01*
X141303790Y-78445875D01*
X141277762Y-78456273D01*
X141271883Y-78458622D01*
X141271882Y-78458622D01*
X141271881Y-78458623D01*
X141271873Y-78458627D01*
X141220655Y-78492383D01*
X141216626Y-78494824D01*
X141163002Y-78524588D01*
X141162999Y-78524590D01*
X141136927Y-78546970D01*
X141130660Y-78551695D01*
X141101982Y-78570598D01*
X141101975Y-78570603D01*
X141058616Y-78613962D01*
X141055161Y-78617164D01*
X141008606Y-78657132D01*
X141008605Y-78657133D01*
X140987576Y-78684300D01*
X140982384Y-78690194D01*
X140634397Y-79038181D01*
X140573074Y-79071666D01*
X140546718Y-79074500D01*
X140500000Y-79074500D01*
X140499980Y-79074501D01*
X140397203Y-79085000D01*
X140397200Y-79085001D01*
X140230668Y-79140185D01*
X140230663Y-79140187D01*
X140081342Y-79232289D01*
X139957289Y-79356342D01*
X139865187Y-79505663D01*
X139865185Y-79505666D01*
X139865186Y-79505666D01*
X139810001Y-79672203D01*
X139810001Y-79672204D01*
X139810000Y-79672204D01*
X139799500Y-79774983D01*
X139799500Y-80400001D01*
X139799501Y-80400019D01*
X139810000Y-80502796D01*
X139810001Y-80502799D01*
X139845992Y-80611410D01*
X139865186Y-80669334D01*
X139957288Y-80818656D01*
X140081344Y-80942712D01*
X140230666Y-81034814D01*
X140397203Y-81089999D01*
X140499991Y-81100500D01*
X141500008Y-81100499D01*
X141500016Y-81100498D01*
X141500019Y-81100498D01*
X141566811Y-81093675D01*
X141602797Y-81089999D01*
X141769334Y-81034814D01*
X141918656Y-80942712D01*
X142042712Y-80818656D01*
X142134814Y-80669334D01*
X142189999Y-80502797D01*
X142194177Y-80461896D01*
X142220573Y-80397207D01*
X142277753Y-80357055D01*
X142317535Y-80350500D01*
X144534217Y-80350500D01*
X144601256Y-80370185D01*
X144621898Y-80386819D01*
X144983005Y-80747926D01*
X144984070Y-80749017D01*
X145017607Y-80784298D01*
X145044939Y-80813051D01*
X145044945Y-80813056D01*
X145095295Y-80848101D01*
X145099047Y-80850929D01*
X145146592Y-80889697D01*
X145149675Y-80891307D01*
X145151059Y-80892641D01*
X145151848Y-80893161D01*
X145151751Y-80893308D01*
X145199982Y-80939794D01*
X145216089Y-81007782D01*
X145192882Y-81073685D01*
X145152444Y-81109633D01*
X145125502Y-81124587D01*
X145099434Y-81146965D01*
X145093165Y-81151692D01*
X145064484Y-81170595D01*
X145064478Y-81170600D01*
X145021110Y-81213967D01*
X145017656Y-81217168D01*
X144971104Y-81257134D01*
X144950075Y-81284300D01*
X144944884Y-81290193D01*
X144796890Y-81438188D01*
X144621897Y-81613182D01*
X144560577Y-81646666D01*
X144534218Y-81649500D01*
X144363452Y-81649500D01*
X144361889Y-81649480D01*
X144273636Y-81647244D01*
X144273635Y-81647244D01*
X144273626Y-81647244D01*
X144213263Y-81658064D01*
X144208597Y-81658718D01*
X144147564Y-81664925D01*
X144114780Y-81675210D01*
X144107153Y-81677082D01*
X144073349Y-81683141D01*
X144016381Y-81705895D01*
X144011945Y-81707474D01*
X143953414Y-81725840D01*
X143953410Y-81725842D01*
X143923378Y-81742510D01*
X143916284Y-81745879D01*
X143884382Y-81758623D01*
X143884377Y-81758625D01*
X143833156Y-81792381D01*
X143829128Y-81794822D01*
X143775501Y-81824588D01*
X143749434Y-81846965D01*
X143743165Y-81851692D01*
X143714484Y-81870595D01*
X143714478Y-81870600D01*
X143671109Y-81913968D01*
X143667655Y-81917169D01*
X143621104Y-81957134D01*
X143600075Y-81984300D01*
X143594884Y-81990193D01*
X142621899Y-82963181D01*
X142560576Y-82996666D01*
X142534218Y-82999500D01*
X139124500Y-82999500D01*
X139057461Y-82979815D01*
X139011706Y-82927011D01*
X139000500Y-82875500D01*
X139000500Y-79465782D01*
X139020185Y-79398743D01*
X139036814Y-79378106D01*
X143924720Y-74490199D01*
X143986041Y-74456716D01*
X144055733Y-74461700D01*
G37*
%TD.AperFunction*%
%TA.AperFunction,Conductor*%
G36*
X158601256Y-78020185D02*
G01*
X158621898Y-78036819D01*
X160807987Y-80222908D01*
X160809050Y-80223997D01*
X160832109Y-80248255D01*
X160869938Y-80288051D01*
X160869943Y-80288055D01*
X160900545Y-80309354D01*
X160920303Y-80323106D01*
X160924044Y-80325926D01*
X160971593Y-80364698D01*
X161002045Y-80380604D01*
X161008756Y-80384671D01*
X161036951Y-80404295D01*
X161093332Y-80428490D01*
X161097567Y-80430501D01*
X161151951Y-80458909D01*
X161184973Y-80468356D01*
X161192365Y-80470989D01*
X161223940Y-80484539D01*
X161223941Y-80484540D01*
X161237054Y-80487234D01*
X161284055Y-80496892D01*
X161288595Y-80498006D01*
X161347582Y-80514886D01*
X161381841Y-80517494D01*
X161389609Y-80518585D01*
X161423255Y-80525500D01*
X161423259Y-80525500D01*
X161484601Y-80525500D01*
X161489308Y-80525678D01*
X161525651Y-80528446D01*
X161550475Y-80530337D01*
X161550475Y-80530336D01*
X161550476Y-80530337D01*
X161584559Y-80525996D01*
X161592389Y-80525500D01*
X162114868Y-80525500D01*
X162179966Y-80543962D01*
X162205095Y-80559462D01*
X162251819Y-80611410D01*
X162263040Y-80680373D01*
X162235196Y-80744455D01*
X162205095Y-80770538D01*
X162179966Y-80786038D01*
X162114868Y-80804500D01*
X158270783Y-80804500D01*
X158203744Y-80784815D01*
X158183102Y-80768181D01*
X158181687Y-80766766D01*
X158150293Y-80713682D01*
X158114244Y-80589602D01*
X158030581Y-80448135D01*
X158030579Y-80448133D01*
X158030576Y-80448129D01*
X157914370Y-80331923D01*
X157914362Y-80331917D01*
X157836181Y-80285681D01*
X157772898Y-80248256D01*
X157772897Y-80248255D01*
X157772896Y-80248255D01*
X157772893Y-80248253D01*
X157623704Y-80204910D01*
X157579936Y-80181934D01*
X157553409Y-80160302D01*
X157373048Y-80066090D01*
X157210359Y-80019539D01*
X157177418Y-80010113D01*
X157177417Y-80010112D01*
X157177416Y-80010112D01*
X156974525Y-79994662D01*
X156974522Y-79994662D01*
X156772678Y-80020368D01*
X156772670Y-80020370D01*
X156580129Y-80086183D01*
X156580125Y-80086185D01*
X156399354Y-80192600D01*
X156398961Y-80191933D01*
X156367394Y-80207496D01*
X156227106Y-80248253D01*
X156227103Y-80248255D01*
X156085637Y-80331917D01*
X156085629Y-80331923D01*
X155969423Y-80448129D01*
X155969417Y-80448137D01*
X155885755Y-80589603D01*
X155885754Y-80589606D01*
X155839902Y-80747426D01*
X155839901Y-80747432D01*
X155837000Y-80784298D01*
X155837000Y-81182104D01*
X155817315Y-81249143D01*
X155764511Y-81294898D01*
X155695353Y-81304842D01*
X155647002Y-81284330D01*
X155646080Y-81285890D01*
X155564599Y-81237702D01*
X155497898Y-81198256D01*
X155497897Y-81198255D01*
X155497896Y-81198255D01*
X155497895Y-81198254D01*
X155343057Y-81153269D01*
X155306816Y-81135968D01*
X155213050Y-81070705D01*
X155026056Y-80990459D01*
X154826741Y-80949500D01*
X154415783Y-80949500D01*
X154348744Y-80929815D01*
X154328102Y-80913181D01*
X154036819Y-80621898D01*
X154003334Y-80560575D01*
X154000500Y-80534217D01*
X154000500Y-78124500D01*
X154020185Y-78057461D01*
X154072989Y-78011706D01*
X154124500Y-78000500D01*
X158534217Y-78000500D01*
X158601256Y-78020185D01*
G37*
%TD.AperFunction*%
%TA.AperFunction,Conductor*%
G36*
X164042539Y-68670185D02*
G01*
X164088294Y-68722989D01*
X164099500Y-68774500D01*
X164099500Y-69086506D01*
X164099480Y-69088076D01*
X164097243Y-69176362D01*
X164097243Y-69176370D01*
X164108064Y-69236739D01*
X164108718Y-69241404D01*
X164114925Y-69302430D01*
X164114927Y-69302444D01*
X164125208Y-69335213D01*
X164127079Y-69342837D01*
X164132433Y-69372697D01*
X164132934Y-69375495D01*
X164133142Y-69376652D01*
X164133142Y-69376655D01*
X164155894Y-69433612D01*
X164157474Y-69438051D01*
X164175841Y-69496588D01*
X164175844Y-69496595D01*
X164192509Y-69526619D01*
X164195879Y-69533714D01*
X164208622Y-69565614D01*
X164208627Y-69565624D01*
X164230808Y-69599280D01*
X164241291Y-69615186D01*
X164242377Y-69616833D01*
X164244818Y-69620863D01*
X164274588Y-69674498D01*
X164274589Y-69674499D01*
X164274591Y-69674502D01*
X164296968Y-69700567D01*
X164301693Y-69706835D01*
X164314263Y-69725906D01*
X164320598Y-69735519D01*
X164363978Y-69778899D01*
X164367169Y-69782343D01*
X164407131Y-69828892D01*
X164407134Y-69828895D01*
X164410298Y-69831344D01*
X164434294Y-69849918D01*
X164440190Y-69855111D01*
X164689334Y-70104255D01*
X164913181Y-70328101D01*
X164946666Y-70389424D01*
X164949500Y-70415782D01*
X164949500Y-71986506D01*
X164949480Y-71988076D01*
X164947243Y-72076359D01*
X164947243Y-72076365D01*
X164947556Y-72078108D01*
X164949500Y-72099981D01*
X164949500Y-72525001D01*
X164949501Y-72525019D01*
X164960000Y-72627796D01*
X164960001Y-72627799D01*
X165006901Y-72769331D01*
X165015186Y-72794334D01*
X165107288Y-72943656D01*
X165231344Y-73067712D01*
X165380666Y-73159814D01*
X165547203Y-73214999D01*
X165649991Y-73225500D01*
X165709216Y-73225499D01*
X165776255Y-73245182D01*
X165796898Y-73261818D01*
X165963181Y-73428101D01*
X165996666Y-73489424D01*
X165999500Y-73515782D01*
X165999500Y-75050743D01*
X166014925Y-75202439D01*
X166075837Y-75396579D01*
X166075844Y-75396594D01*
X166174589Y-75574499D01*
X166174592Y-75574504D01*
X166307132Y-75728893D01*
X166307134Y-75728895D01*
X166468037Y-75853445D01*
X166468040Y-75853446D01*
X166468042Y-75853448D01*
X166580229Y-75908478D01*
X166631747Y-75955674D01*
X166649572Y-76023231D01*
X166628042Y-76089701D01*
X166573994Y-76133980D01*
X166564623Y-76137511D01*
X166405666Y-76190184D01*
X166405655Y-76190189D01*
X166256346Y-76282285D01*
X166256342Y-76282288D01*
X166132288Y-76406342D01*
X166132285Y-76406346D01*
X166040189Y-76555655D01*
X166040184Y-76555666D01*
X165985001Y-76722198D01*
X165974500Y-76824980D01*
X165974500Y-78400500D01*
X165954815Y-78467539D01*
X165902011Y-78513294D01*
X165850500Y-78524500D01*
X164635132Y-78524500D01*
X164570033Y-78506037D01*
X164544903Y-78490536D01*
X164498180Y-78438588D01*
X164486959Y-78369625D01*
X164514803Y-78305543D01*
X164544901Y-78279464D01*
X164693656Y-78187712D01*
X164817712Y-78063656D01*
X164909814Y-77914334D01*
X164964999Y-77747797D01*
X164975500Y-77645009D01*
X164975499Y-76844992D01*
X164964999Y-76742203D01*
X164909814Y-76575666D01*
X164817712Y-76426344D01*
X164693656Y-76302288D01*
X164544334Y-76210186D01*
X164377797Y-76155001D01*
X164377795Y-76155000D01*
X164275016Y-76144500D01*
X164275009Y-76144500D01*
X163740783Y-76144500D01*
X163673744Y-76124815D01*
X163653102Y-76108181D01*
X160957101Y-73412180D01*
X160923616Y-73350857D01*
X160928600Y-73281165D01*
X160970472Y-73225232D01*
X161035936Y-73200815D01*
X161044782Y-73200499D01*
X161312502Y-73200499D01*
X161312508Y-73200499D01*
X161415297Y-73189999D01*
X161581834Y-73134814D01*
X161731156Y-73042712D01*
X161855212Y-72918656D01*
X161947314Y-72769334D01*
X162002499Y-72602797D01*
X162013000Y-72500009D01*
X162012999Y-71915234D01*
X162015560Y-71890163D01*
X162018110Y-71877814D01*
X162018493Y-71876083D01*
X162036000Y-71802221D01*
X162036000Y-71802215D01*
X162036838Y-71795048D01*
X162036898Y-71795055D01*
X162037664Y-71787555D01*
X162037605Y-71787550D01*
X162038234Y-71780360D01*
X162036026Y-71704468D01*
X162036000Y-71702665D01*
X162036000Y-68956298D01*
X162036000Y-68956291D01*
X162022278Y-68838894D01*
X162034047Y-68770024D01*
X162081183Y-68718448D01*
X162145440Y-68700500D01*
X163026186Y-68700500D01*
X163026194Y-68700500D01*
X163063069Y-68697598D01*
X163063071Y-68697597D01*
X163063073Y-68697597D01*
X163208233Y-68655424D01*
X163242828Y-68650500D01*
X163975500Y-68650500D01*
X164042539Y-68670185D01*
G37*
%TD.AperFunction*%
%TA.AperFunction,Conductor*%
G36*
X164866557Y-64597323D02*
G01*
X164910901Y-64625822D01*
X165422947Y-65137867D01*
X165963181Y-65678101D01*
X165996666Y-65739424D01*
X165999500Y-65765782D01*
X165999500Y-65821659D01*
X165979815Y-65888698D01*
X165927011Y-65934453D01*
X165857853Y-65944397D01*
X165810404Y-65927198D01*
X165669340Y-65840189D01*
X165669335Y-65840187D01*
X165669334Y-65840186D01*
X165502797Y-65785001D01*
X165502795Y-65785000D01*
X165400010Y-65774500D01*
X164799998Y-65774500D01*
X164799980Y-65774501D01*
X164697203Y-65785000D01*
X164697200Y-65785001D01*
X164530668Y-65840185D01*
X164530663Y-65840187D01*
X164381342Y-65932289D01*
X164257289Y-66056342D01*
X164165187Y-66205663D01*
X164165185Y-66205668D01*
X164142568Y-66273921D01*
X164110001Y-66372203D01*
X164110001Y-66372204D01*
X164110000Y-66372204D01*
X164099500Y-66474983D01*
X164099500Y-67025500D01*
X164079815Y-67092539D01*
X164027011Y-67138294D01*
X163975500Y-67149500D01*
X163735000Y-67149500D01*
X163667961Y-67129815D01*
X163622206Y-67077011D01*
X163611000Y-67025500D01*
X163611000Y-66734313D01*
X163610999Y-66734298D01*
X163610646Y-66729815D01*
X163608098Y-66697431D01*
X163604110Y-66683705D01*
X163562245Y-66539606D01*
X163562245Y-66539605D01*
X163562244Y-66539604D01*
X163562244Y-66539602D01*
X163561366Y-66538118D01*
X163561033Y-66536804D01*
X163559147Y-66532446D01*
X163559850Y-66532141D01*
X163544185Y-66470396D01*
X163559639Y-66417770D01*
X163559146Y-66417557D01*
X163560876Y-66413558D01*
X163561371Y-66411874D01*
X163562244Y-66410398D01*
X163597477Y-66289128D01*
X163608097Y-66252573D01*
X163608098Y-66252567D01*
X163610084Y-66227328D01*
X163611000Y-66215694D01*
X163611000Y-65801728D01*
X163630685Y-65734689D01*
X163647314Y-65714052D01*
X164735544Y-64625822D01*
X164796865Y-64592339D01*
X164866557Y-64597323D01*
G37*
%TD.AperFunction*%
%TA.AperFunction,Conductor*%
G36*
X171451132Y-50800542D02*
G01*
X171717225Y-50810498D01*
X171927583Y-50818764D01*
X171932032Y-50819102D01*
X172185974Y-50847715D01*
X172411099Y-50874360D01*
X172415303Y-50875006D01*
X172663451Y-50921958D01*
X172888986Y-50966819D01*
X172892853Y-50967721D01*
X173135652Y-51032779D01*
X173358288Y-51095569D01*
X173361911Y-51096713D01*
X173598532Y-51179511D01*
X173816363Y-51259873D01*
X173819661Y-51261200D01*
X174048568Y-51361071D01*
X174049704Y-51361581D01*
X174260484Y-51458752D01*
X174263428Y-51460207D01*
X174484014Y-51576790D01*
X174485262Y-51577469D01*
X174688027Y-51691023D01*
X174690662Y-51692587D01*
X174896667Y-51822028D01*
X174901743Y-51825218D01*
X174903185Y-51826152D01*
X175096495Y-51955318D01*
X175098867Y-51956984D01*
X175299333Y-52104935D01*
X175300874Y-52106110D01*
X175483553Y-52250123D01*
X175485549Y-52251767D01*
X175674378Y-52414267D01*
X175676007Y-52415721D01*
X175846852Y-52573648D01*
X175848594Y-52575324D01*
X176024674Y-52751404D01*
X176026362Y-52753159D01*
X176184277Y-52923991D01*
X176185738Y-52925628D01*
X176348223Y-53114440D01*
X176349883Y-53116456D01*
X176493868Y-53299099D01*
X176495063Y-53300665D01*
X176643014Y-53501131D01*
X176644680Y-53503503D01*
X176773834Y-53696795D01*
X176774780Y-53698255D01*
X176907390Y-53909301D01*
X176908988Y-53911993D01*
X177022508Y-54114698D01*
X177023228Y-54116022D01*
X177139777Y-54336542D01*
X177141259Y-54339541D01*
X177238414Y-54550288D01*
X177238936Y-54551451D01*
X177338796Y-54780333D01*
X177340138Y-54783668D01*
X177420486Y-55001463D01*
X177503284Y-55238086D01*
X177504436Y-55241735D01*
X177567221Y-55464353D01*
X177632270Y-55707118D01*
X177633188Y-55711057D01*
X177678039Y-55936534D01*
X177724989Y-56184677D01*
X177725640Y-56188917D01*
X177752279Y-56413983D01*
X177780894Y-56667950D01*
X177781237Y-56672459D01*
X177789521Y-56883300D01*
X177799457Y-57148868D01*
X177799500Y-57151152D01*
X177799500Y-88898847D01*
X177799457Y-88901132D01*
X177790985Y-89127555D01*
X177789521Y-89166699D01*
X177781237Y-89377539D01*
X177780894Y-89382048D01*
X177752279Y-89636015D01*
X177725640Y-89861081D01*
X177724989Y-89865321D01*
X177678039Y-90113464D01*
X177633192Y-90338927D01*
X177632270Y-90342880D01*
X177567221Y-90585645D01*
X177504436Y-90808263D01*
X177503284Y-90811912D01*
X177420486Y-91048535D01*
X177340138Y-91266330D01*
X177338796Y-91269665D01*
X177238936Y-91498547D01*
X177238414Y-91499710D01*
X177141259Y-91710457D01*
X177139769Y-91713472D01*
X177023228Y-91933976D01*
X177022508Y-91935300D01*
X176908988Y-92138005D01*
X176907390Y-92140697D01*
X176774780Y-92351743D01*
X176773834Y-92353203D01*
X176644680Y-92546495D01*
X176643014Y-92548867D01*
X176495063Y-92749333D01*
X176493868Y-92750899D01*
X176349906Y-92933515D01*
X176348210Y-92935574D01*
X176185743Y-93124364D01*
X176184277Y-93126007D01*
X176026362Y-93296839D01*
X176024674Y-93298594D01*
X175848594Y-93474674D01*
X175846839Y-93476362D01*
X175676007Y-93634277D01*
X175674364Y-93635743D01*
X175485574Y-93798210D01*
X175483515Y-93799906D01*
X175300899Y-93943868D01*
X175299333Y-93945063D01*
X175098867Y-94093014D01*
X175096495Y-94094680D01*
X174903203Y-94223834D01*
X174901743Y-94224780D01*
X174690697Y-94357390D01*
X174688005Y-94358988D01*
X174485300Y-94472508D01*
X174483976Y-94473228D01*
X174263472Y-94589769D01*
X174260457Y-94591259D01*
X174049710Y-94688414D01*
X174048547Y-94688936D01*
X173819665Y-94788796D01*
X173816330Y-94790138D01*
X173598535Y-94870486D01*
X173361912Y-94953284D01*
X173358263Y-94954436D01*
X173135645Y-95017221D01*
X172892880Y-95082270D01*
X172888927Y-95083192D01*
X172663464Y-95128039D01*
X172415321Y-95174989D01*
X172411081Y-95175640D01*
X172186015Y-95202279D01*
X171932048Y-95230894D01*
X171927538Y-95231237D01*
X171716889Y-95239513D01*
X171553648Y-95245621D01*
X171451132Y-95249457D01*
X171448848Y-95249500D01*
X139701152Y-95249500D01*
X139698867Y-95249457D01*
X139591409Y-95245436D01*
X139433109Y-95239513D01*
X139222460Y-95231237D01*
X139217950Y-95230894D01*
X138963983Y-95202279D01*
X138738917Y-95175640D01*
X138734677Y-95174989D01*
X138486534Y-95128039D01*
X138261057Y-95083188D01*
X138257118Y-95082270D01*
X138014353Y-95017221D01*
X137791735Y-94954436D01*
X137788086Y-94953284D01*
X137551463Y-94870486D01*
X137333668Y-94790138D01*
X137330333Y-94788796D01*
X137101451Y-94688936D01*
X137100288Y-94688414D01*
X136889541Y-94591259D01*
X136886542Y-94589777D01*
X136751687Y-94518504D01*
X136666022Y-94473228D01*
X136664698Y-94472508D01*
X136461993Y-94358988D01*
X136459313Y-94357397D01*
X136337545Y-94280885D01*
X136248255Y-94224780D01*
X136246795Y-94223834D01*
X136053503Y-94094680D01*
X136051131Y-94093014D01*
X135850665Y-93945063D01*
X135849099Y-93943868D01*
X135666456Y-93799883D01*
X135664440Y-93798223D01*
X135475628Y-93635738D01*
X135473991Y-93634277D01*
X135303159Y-93476362D01*
X135301404Y-93474674D01*
X135125324Y-93298594D01*
X135123648Y-93296852D01*
X134965721Y-93126007D01*
X134964255Y-93124364D01*
X134801767Y-92935549D01*
X134800123Y-92933553D01*
X134656110Y-92750874D01*
X134654935Y-92749333D01*
X134506984Y-92548867D01*
X134505318Y-92546495D01*
X134376164Y-92353203D01*
X134375218Y-92351743D01*
X134372028Y-92346667D01*
X134242587Y-92140662D01*
X134241023Y-92138027D01*
X134127469Y-91935262D01*
X134126790Y-91934014D01*
X134010207Y-91713428D01*
X134008752Y-91710484D01*
X133911581Y-91499704D01*
X133911062Y-91498547D01*
X133811202Y-91269665D01*
X133809873Y-91266363D01*
X133729507Y-91048521D01*
X133712132Y-90998867D01*
X133646713Y-90811911D01*
X133645569Y-90808288D01*
X133582779Y-90585652D01*
X133517721Y-90342853D01*
X133516819Y-90338986D01*
X133471958Y-90113451D01*
X133425006Y-89865303D01*
X133424360Y-89861099D01*
X133397715Y-89635974D01*
X133369102Y-89382032D01*
X133368764Y-89377581D01*
X133360488Y-89166962D01*
X133350540Y-88901078D01*
X133350499Y-88898901D01*
X133350499Y-79025474D01*
X136994662Y-79025474D01*
X136995354Y-79030905D01*
X136999003Y-79059560D01*
X136999500Y-79067388D01*
X136999500Y-83973070D01*
X136999420Y-83976210D01*
X136995631Y-84050935D01*
X136995631Y-84050936D01*
X137006957Y-84124877D01*
X137007354Y-84127991D01*
X137014925Y-84202437D01*
X137014926Y-84202440D01*
X137019749Y-84217814D01*
X137024003Y-84236147D01*
X137026442Y-84252064D01*
X137026443Y-84252068D01*
X137052427Y-84322232D01*
X137053441Y-84325198D01*
X137075841Y-84396588D01*
X137075842Y-84396589D01*
X137075843Y-84396592D01*
X137083657Y-84410670D01*
X137091517Y-84427777D01*
X137097111Y-84442881D01*
X137097114Y-84442887D01*
X137136694Y-84506390D01*
X137138288Y-84509096D01*
X137174592Y-84574503D01*
X137174593Y-84574504D01*
X137185078Y-84586718D01*
X137196222Y-84601894D01*
X137204745Y-84615567D01*
X137204745Y-84615568D01*
X137204748Y-84615571D01*
X137256315Y-84669819D01*
X137258392Y-84672118D01*
X137276204Y-84692866D01*
X137307132Y-84728894D01*
X137307133Y-84728895D01*
X137319869Y-84738753D01*
X137333844Y-84751379D01*
X137344940Y-84763052D01*
X137406340Y-84805789D01*
X137408873Y-84807648D01*
X137430502Y-84824390D01*
X137468042Y-84853448D01*
X137482515Y-84860547D01*
X137498726Y-84870090D01*
X137511951Y-84879295D01*
X137569788Y-84904115D01*
X137580696Y-84908796D01*
X137583552Y-84910108D01*
X137650724Y-84943058D01*
X137650726Y-84943058D01*
X137650729Y-84943060D01*
X137666316Y-84947095D01*
X137684128Y-84953182D01*
X137698942Y-84959540D01*
X137772265Y-84974607D01*
X137775260Y-84975302D01*
X137847711Y-84994062D01*
X137847715Y-84994063D01*
X137863807Y-84994879D01*
X137882480Y-84997257D01*
X137891413Y-84999093D01*
X137898258Y-85000500D01*
X137898259Y-85000500D01*
X137973071Y-85000500D01*
X137976211Y-85000580D01*
X138002842Y-85001930D01*
X138050936Y-85004369D01*
X138066856Y-85001930D01*
X138085633Y-85000500D01*
X142986507Y-85000500D01*
X142988069Y-85000519D01*
X143025283Y-85001462D01*
X143076358Y-85002757D01*
X143076358Y-85002756D01*
X143076363Y-85002757D01*
X143136753Y-84991932D01*
X143141412Y-84991280D01*
X143183607Y-84986988D01*
X143202438Y-84985074D01*
X143235227Y-84974786D01*
X143242840Y-84972918D01*
X143276653Y-84966858D01*
X143333621Y-84944101D01*
X143338053Y-84942524D01*
X143396588Y-84924159D01*
X143426627Y-84907484D01*
X143433708Y-84904122D01*
X143465617Y-84891377D01*
X143516854Y-84857608D01*
X143520851Y-84855187D01*
X143574502Y-84825409D01*
X143600568Y-84803030D01*
X143606843Y-84798300D01*
X143635519Y-84779402D01*
X143678917Y-84736002D01*
X143682336Y-84732834D01*
X143728895Y-84692866D01*
X143749931Y-84665688D01*
X143755101Y-84659818D01*
X144728101Y-83686819D01*
X144789425Y-83653334D01*
X144815783Y-83650500D01*
X144986507Y-83650500D01*
X144988069Y-83650519D01*
X145025283Y-83651462D01*
X145076358Y-83652757D01*
X145076358Y-83652756D01*
X145076363Y-83652757D01*
X145136753Y-83641932D01*
X145141412Y-83641280D01*
X145183607Y-83636988D01*
X145202438Y-83635074D01*
X145235227Y-83624786D01*
X145242840Y-83622918D01*
X145276653Y-83616858D01*
X145290663Y-83611261D01*
X145295459Y-83609346D01*
X145341457Y-83600499D01*
X145423338Y-83600499D01*
X145423344Y-83600499D01*
X145423352Y-83600498D01*
X145423355Y-83600498D01*
X145482845Y-83594421D01*
X145522708Y-83590349D01*
X145683697Y-83537003D01*
X145828044Y-83447968D01*
X145947968Y-83328044D01*
X146037003Y-83183697D01*
X146071942Y-83078258D01*
X146086112Y-83035496D01*
X146125885Y-82978051D01*
X146190401Y-82951228D01*
X146203818Y-82950500D01*
X149175743Y-82950500D01*
X149327439Y-82935074D01*
X149521579Y-82874162D01*
X149521580Y-82874161D01*
X149521588Y-82874159D01*
X149699502Y-82775409D01*
X149699508Y-82775403D01*
X149703358Y-82772725D01*
X149769627Y-82750584D01*
X149774195Y-82750500D01*
X149778186Y-82750500D01*
X149778194Y-82750500D01*
X149815069Y-82747598D01*
X149815071Y-82747597D01*
X149815073Y-82747597D01*
X149856691Y-82735505D01*
X149972898Y-82701744D01*
X150114365Y-82618081D01*
X150230581Y-82501865D01*
X150256767Y-82457585D01*
X150307834Y-82409903D01*
X150376575Y-82397397D01*
X150441165Y-82424042D01*
X150481097Y-82481377D01*
X150487499Y-82520706D01*
X150487499Y-87367935D01*
X150467814Y-87434974D01*
X150422928Y-87476766D01*
X150403683Y-87487274D01*
X150174612Y-87658754D01*
X150174594Y-87658770D01*
X149972270Y-87861094D01*
X149972254Y-87861112D01*
X149800775Y-88090182D01*
X149800770Y-88090190D01*
X149663635Y-88341333D01*
X149563628Y-88609462D01*
X149502804Y-88889066D01*
X149482390Y-89174498D01*
X149482390Y-89174501D01*
X149502804Y-89459933D01*
X149563628Y-89739537D01*
X149563630Y-89739543D01*
X149563631Y-89739546D01*
X149608968Y-89861099D01*
X149663635Y-90007666D01*
X149800770Y-90258809D01*
X149800775Y-90258817D01*
X149972254Y-90487887D01*
X149972270Y-90487905D01*
X150174594Y-90690229D01*
X150174612Y-90690245D01*
X150403682Y-90861724D01*
X150403690Y-90861729D01*
X150654833Y-90998864D01*
X150654832Y-90998864D01*
X150654836Y-90998865D01*
X150654839Y-90998867D01*
X150922954Y-91098869D01*
X150922960Y-91098870D01*
X150922962Y-91098871D01*
X151202566Y-91159695D01*
X151202568Y-91159695D01*
X151202572Y-91159696D01*
X151456220Y-91177837D01*
X151487999Y-91180110D01*
X151488000Y-91180110D01*
X151488001Y-91180110D01*
X151516595Y-91178064D01*
X151773428Y-91159696D01*
X152053046Y-91098869D01*
X152321161Y-90998867D01*
X152572315Y-90861726D01*
X152801395Y-90690239D01*
X153003739Y-90487895D01*
X153175226Y-90258815D01*
X153312367Y-90007661D01*
X153412369Y-89739546D01*
X153473196Y-89459928D01*
X153493610Y-89174500D01*
X153473196Y-88889072D01*
X153473194Y-88889064D01*
X153412371Y-88609462D01*
X153412370Y-88609460D01*
X153412369Y-88609454D01*
X153312367Y-88341339D01*
X153175226Y-88090185D01*
X153175224Y-88090182D01*
X153003745Y-87861112D01*
X153003729Y-87861094D01*
X152801405Y-87658770D01*
X152801387Y-87658754D01*
X152572317Y-87487275D01*
X152572309Y-87487270D01*
X152553071Y-87476765D01*
X152503667Y-87427359D01*
X152488500Y-87367934D01*
X152488500Y-82202781D01*
X152508185Y-82135742D01*
X152560989Y-82089987D01*
X152630147Y-82080043D01*
X152693703Y-82109068D01*
X152700166Y-82115086D01*
X153233025Y-82647945D01*
X153234084Y-82649032D01*
X153294940Y-82713052D01*
X153294947Y-82713058D01*
X153329053Y-82736795D01*
X153345303Y-82748106D01*
X153349044Y-82750926D01*
X153396593Y-82789698D01*
X153427045Y-82805604D01*
X153433758Y-82809672D01*
X153461951Y-82829295D01*
X153518329Y-82853489D01*
X153522578Y-82855507D01*
X153576951Y-82883909D01*
X153604489Y-82891788D01*
X153609974Y-82893358D01*
X153617368Y-82895990D01*
X153648942Y-82909540D01*
X153648945Y-82909540D01*
X153648946Y-82909541D01*
X153709022Y-82921887D01*
X153713600Y-82923010D01*
X153727501Y-82926987D01*
X153772582Y-82939887D01*
X153806839Y-82942495D01*
X153814614Y-82943586D01*
X153848255Y-82950500D01*
X153848259Y-82950500D01*
X153909598Y-82950500D01*
X153914304Y-82950678D01*
X153949062Y-82953325D01*
X153975475Y-82955337D01*
X153975475Y-82955336D01*
X153975476Y-82955337D01*
X154009559Y-82950996D01*
X154017389Y-82950500D01*
X154775743Y-82950500D01*
X154927439Y-82935074D01*
X155121579Y-82874162D01*
X155121580Y-82874161D01*
X155121588Y-82874159D01*
X155299502Y-82775409D01*
X155307334Y-82768684D01*
X155353511Y-82743693D01*
X155410968Y-82726999D01*
X155497898Y-82701744D01*
X155639365Y-82618081D01*
X155755581Y-82501865D01*
X155839244Y-82360398D01*
X155884389Y-82205009D01*
X155885097Y-82202573D01*
X155885098Y-82202567D01*
X155887999Y-82165701D01*
X155888000Y-82165694D01*
X155888000Y-81767895D01*
X155907685Y-81700856D01*
X155960489Y-81655101D01*
X156029647Y-81645157D01*
X156077996Y-81665671D01*
X156078920Y-81664110D01*
X156099681Y-81676388D01*
X156227102Y-81751744D01*
X156351182Y-81787793D01*
X156404266Y-81819187D01*
X157087987Y-82502907D01*
X157089052Y-82503998D01*
X157146501Y-82564434D01*
X157149940Y-82568052D01*
X157149947Y-82568058D01*
X157184053Y-82591795D01*
X157200303Y-82603106D01*
X157204044Y-82605926D01*
X157251593Y-82644698D01*
X157282045Y-82660604D01*
X157288758Y-82664672D01*
X157316951Y-82684295D01*
X157373329Y-82708489D01*
X157377578Y-82710507D01*
X157431951Y-82738909D01*
X157459489Y-82746788D01*
X157464974Y-82748358D01*
X157472368Y-82750990D01*
X157503942Y-82764540D01*
X157503945Y-82764540D01*
X157503946Y-82764541D01*
X157564022Y-82776887D01*
X157568600Y-82778010D01*
X157582501Y-82781987D01*
X157627582Y-82794887D01*
X157661839Y-82797495D01*
X157669614Y-82798586D01*
X157703255Y-82805500D01*
X157703259Y-82805500D01*
X157764598Y-82805500D01*
X157769304Y-82805678D01*
X157792222Y-82807424D01*
X157830475Y-82810337D01*
X157830475Y-82810336D01*
X157830476Y-82810337D01*
X157864559Y-82805996D01*
X157872389Y-82805500D01*
X160902048Y-82805500D01*
X160969087Y-82825185D01*
X161014842Y-82877989D01*
X161024786Y-82947147D01*
X161021266Y-82963602D01*
X161013296Y-82991457D01*
X161010113Y-83002581D01*
X161007503Y-83036841D01*
X161006414Y-83044608D01*
X161000980Y-83071052D01*
X160999500Y-83078258D01*
X160999500Y-83139597D01*
X160999321Y-83144306D01*
X160994662Y-83205474D01*
X160996707Y-83221527D01*
X160999003Y-83239560D01*
X160999500Y-83247388D01*
X160999500Y-86061006D01*
X160999480Y-86062576D01*
X160997243Y-86150862D01*
X160997243Y-86150870D01*
X161008064Y-86211239D01*
X161008718Y-86215904D01*
X161014925Y-86276930D01*
X161014927Y-86276944D01*
X161025208Y-86309713D01*
X161027079Y-86317337D01*
X161033142Y-86351152D01*
X161033142Y-86351155D01*
X161055894Y-86408112D01*
X161057474Y-86412551D01*
X161075841Y-86471088D01*
X161075844Y-86471095D01*
X161092509Y-86501119D01*
X161095879Y-86508214D01*
X161108622Y-86540114D01*
X161108627Y-86540124D01*
X161142377Y-86591333D01*
X161144818Y-86595363D01*
X161174588Y-86648998D01*
X161174589Y-86648999D01*
X161174591Y-86649002D01*
X161196968Y-86675067D01*
X161201693Y-86681335D01*
X161214263Y-86700406D01*
X161220598Y-86710019D01*
X161263978Y-86753399D01*
X161267169Y-86756843D01*
X161307131Y-86803392D01*
X161307130Y-86803392D01*
X161334299Y-86824423D01*
X161340186Y-86829607D01*
X162371674Y-87861094D01*
X163117819Y-88607239D01*
X163151304Y-88668562D01*
X163151304Y-88721278D01*
X163114805Y-88889064D01*
X163114804Y-88889071D01*
X163094390Y-89174498D01*
X163094390Y-89174501D01*
X163114804Y-89459933D01*
X163175628Y-89739537D01*
X163175630Y-89739543D01*
X163175631Y-89739546D01*
X163220968Y-89861099D01*
X163275635Y-90007666D01*
X163412770Y-90258809D01*
X163412775Y-90258817D01*
X163584254Y-90487887D01*
X163584270Y-90487905D01*
X163786594Y-90690229D01*
X163786612Y-90690245D01*
X164015682Y-90861724D01*
X164015690Y-90861729D01*
X164266833Y-90998864D01*
X164266832Y-90998864D01*
X164266836Y-90998865D01*
X164266839Y-90998867D01*
X164534954Y-91098869D01*
X164534960Y-91098870D01*
X164534962Y-91098871D01*
X164814566Y-91159695D01*
X164814568Y-91159695D01*
X164814572Y-91159696D01*
X165068220Y-91177837D01*
X165099999Y-91180110D01*
X165100000Y-91180110D01*
X165100001Y-91180110D01*
X165128595Y-91178064D01*
X165385428Y-91159696D01*
X165665046Y-91098869D01*
X165933161Y-90998867D01*
X166184315Y-90861726D01*
X166413395Y-90690239D01*
X166615739Y-90487895D01*
X166787226Y-90258815D01*
X166924367Y-90007661D01*
X167024369Y-89739546D01*
X167085196Y-89459928D01*
X167105610Y-89174500D01*
X167085196Y-88889072D01*
X167085194Y-88889064D01*
X167024371Y-88609462D01*
X167024370Y-88609460D01*
X167024369Y-88609454D01*
X166924367Y-88341339D01*
X166787226Y-88090185D01*
X166787224Y-88090182D01*
X166615745Y-87861112D01*
X166615729Y-87861094D01*
X166413405Y-87658770D01*
X166413387Y-87658754D01*
X166184317Y-87487275D01*
X166184309Y-87487270D01*
X165933166Y-87350135D01*
X165933167Y-87350135D01*
X165825914Y-87310132D01*
X165665046Y-87250131D01*
X165665043Y-87250130D01*
X165665037Y-87250128D01*
X165385433Y-87189304D01*
X165100001Y-87168890D01*
X165099999Y-87168890D01*
X164814571Y-87189304D01*
X164814564Y-87189305D01*
X164646779Y-87225804D01*
X164577087Y-87220820D01*
X164532740Y-87192319D01*
X163036819Y-85696398D01*
X163003334Y-85635075D01*
X163000500Y-85608717D01*
X163000500Y-83645782D01*
X163020185Y-83578743D01*
X163036815Y-83558105D01*
X163653102Y-82941817D01*
X163714425Y-82908333D01*
X163740783Y-82905499D01*
X164275002Y-82905499D01*
X164275008Y-82905499D01*
X164377797Y-82894999D01*
X164544334Y-82839814D01*
X164693656Y-82747712D01*
X164817712Y-82623656D01*
X164909814Y-82474334D01*
X164964999Y-82307797D01*
X164975500Y-82205009D01*
X164975499Y-81404992D01*
X164964999Y-81302203D01*
X164909814Y-81135666D01*
X164817712Y-80986344D01*
X164693656Y-80862288D01*
X164693655Y-80862287D01*
X164570034Y-80786038D01*
X164544905Y-80770538D01*
X164498181Y-80718591D01*
X164486958Y-80649629D01*
X164514801Y-80585546D01*
X164544906Y-80559461D01*
X164570036Y-80543961D01*
X164635132Y-80525500D01*
X165850500Y-80525500D01*
X165917539Y-80545185D01*
X165963294Y-80597989D01*
X165974500Y-80649500D01*
X165974500Y-82225019D01*
X165985001Y-82327801D01*
X166040184Y-82494333D01*
X166040189Y-82494344D01*
X166132285Y-82643653D01*
X166132288Y-82643657D01*
X166256342Y-82767711D01*
X166256346Y-82767714D01*
X166405655Y-82859810D01*
X166405658Y-82859811D01*
X166405664Y-82859815D01*
X166572200Y-82914999D01*
X166674988Y-82925500D01*
X166674991Y-82925500D01*
X166674993Y-82925500D01*
X172675007Y-82925500D01*
X172675012Y-82925500D01*
X172777800Y-82914999D01*
X172944336Y-82859815D01*
X173093657Y-82767712D01*
X173217712Y-82643657D01*
X173309815Y-82494336D01*
X173364999Y-82327800D01*
X173375500Y-82225012D01*
X173375500Y-76824988D01*
X173364999Y-76722200D01*
X173309815Y-76555664D01*
X173309811Y-76555658D01*
X173309810Y-76555655D01*
X173217714Y-76406346D01*
X173217711Y-76406342D01*
X173093657Y-76282288D01*
X173093653Y-76282285D01*
X172944344Y-76190189D01*
X172944338Y-76190186D01*
X172944336Y-76190185D01*
X172944333Y-76190184D01*
X172777801Y-76135001D01*
X172675019Y-76124500D01*
X172675012Y-76124500D01*
X167520699Y-76124500D01*
X167453660Y-76104815D01*
X167407905Y-76052011D01*
X167397961Y-75982853D01*
X167426986Y-75919297D01*
X167455105Y-75895270D01*
X167615571Y-75795252D01*
X167763053Y-75655059D01*
X167879295Y-75488049D01*
X167959540Y-75301058D01*
X168000500Y-75101741D01*
X168000500Y-74170104D01*
X168020185Y-74103065D01*
X168072989Y-74057310D01*
X168102615Y-74048051D01*
X168133287Y-74042553D01*
X168136747Y-74041934D01*
X168141401Y-74041280D01*
X168202438Y-74035074D01*
X168235227Y-74024786D01*
X168242840Y-74022918D01*
X168276653Y-74016858D01*
X168333621Y-73994101D01*
X168338053Y-73992524D01*
X168396588Y-73974159D01*
X168426627Y-73957484D01*
X168433708Y-73954122D01*
X168465617Y-73941377D01*
X168516854Y-73907608D01*
X168520851Y-73905187D01*
X168574502Y-73875409D01*
X168600568Y-73853030D01*
X168606843Y-73848300D01*
X168627938Y-73834398D01*
X168635519Y-73829402D01*
X168678892Y-73786027D01*
X168682350Y-73782823D01*
X168693705Y-73773075D01*
X168728895Y-73742866D01*
X168749928Y-73715691D01*
X168755098Y-73709821D01*
X169203102Y-73261817D01*
X169264425Y-73228333D01*
X169290783Y-73225499D01*
X169350002Y-73225499D01*
X169350008Y-73225499D01*
X169452797Y-73214999D01*
X169619334Y-73159814D01*
X169768656Y-73067712D01*
X169892712Y-72943656D01*
X169984814Y-72794334D01*
X170039999Y-72627797D01*
X170050500Y-72525009D01*
X170050499Y-72040404D01*
X170050678Y-72035695D01*
X170051924Y-72019331D01*
X170055337Y-71974524D01*
X170050997Y-71940443D01*
X170050500Y-71932603D01*
X170050500Y-71702665D01*
X170050500Y-71328278D01*
X170070183Y-71261243D01*
X170086813Y-71240606D01*
X171365601Y-69961818D01*
X171426925Y-69928333D01*
X171453283Y-69925499D01*
X171500002Y-69925499D01*
X171500008Y-69925499D01*
X171602797Y-69914999D01*
X171769334Y-69859814D01*
X171918656Y-69767712D01*
X172042712Y-69643656D01*
X172134814Y-69494334D01*
X172189999Y-69327797D01*
X172200500Y-69225009D01*
X172200499Y-68599992D01*
X172198003Y-68575561D01*
X172189999Y-68497203D01*
X172189998Y-68497200D01*
X172154863Y-68391170D01*
X172134814Y-68330666D01*
X172042712Y-68181344D01*
X171949048Y-68087680D01*
X171915564Y-68026358D01*
X171920548Y-67956666D01*
X171949049Y-67912319D01*
X171963109Y-67898259D01*
X172042712Y-67818656D01*
X172134814Y-67669334D01*
X172189999Y-67502797D01*
X172200500Y-67400009D01*
X172200499Y-66774992D01*
X172189999Y-66672203D01*
X172134814Y-66505666D01*
X172042712Y-66356344D01*
X172036819Y-66350451D01*
X172003334Y-66289128D01*
X172000500Y-66262770D01*
X172000500Y-65740891D01*
X172020185Y-65673852D01*
X172036819Y-65653210D01*
X172036824Y-65653205D01*
X172044026Y-65646003D01*
X172135362Y-65497925D01*
X172190087Y-65332775D01*
X172200500Y-65230848D01*
X172200500Y-64644152D01*
X172190087Y-64542225D01*
X172135362Y-64377075D01*
X172135358Y-64377069D01*
X172135357Y-64377066D01*
X172044028Y-64229000D01*
X172044025Y-64228996D01*
X171921003Y-64105974D01*
X171920999Y-64105971D01*
X171772933Y-64014642D01*
X171772927Y-64014639D01*
X171772925Y-64014638D01*
X171772922Y-64014637D01*
X171607776Y-63959913D01*
X171505855Y-63949500D01*
X171505848Y-63949500D01*
X171191496Y-63949500D01*
X171160417Y-63945542D01*
X171152290Y-63943438D01*
X171152287Y-63943437D01*
X171016804Y-63936566D01*
X170949064Y-63933131D01*
X170949063Y-63933131D01*
X170949061Y-63933131D01*
X170881784Y-63943438D01*
X170851547Y-63948070D01*
X170832772Y-63949500D01*
X170494144Y-63949500D01*
X170392223Y-63959913D01*
X170227077Y-64014637D01*
X170227066Y-64014642D01*
X170079000Y-64105971D01*
X170078996Y-64105974D01*
X169955974Y-64228996D01*
X169955971Y-64229000D01*
X169864642Y-64377066D01*
X169864637Y-64377077D01*
X169809913Y-64542223D01*
X169799500Y-64644144D01*
X169799500Y-65230855D01*
X169809913Y-65332776D01*
X169864637Y-65497922D01*
X169864642Y-65497933D01*
X169937410Y-65615907D01*
X169955974Y-65646003D01*
X169963180Y-65653209D01*
X169996665Y-65714527D01*
X169999500Y-65740890D01*
X169999500Y-66262769D01*
X169979815Y-66329808D01*
X169963185Y-66350446D01*
X169957286Y-66356345D01*
X169865189Y-66505659D01*
X169865185Y-66505668D01*
X169856413Y-66532141D01*
X169810001Y-66672203D01*
X169810001Y-66672204D01*
X169810000Y-66672204D01*
X169799500Y-66774983D01*
X169799500Y-67400001D01*
X169799501Y-67400019D01*
X169810000Y-67502796D01*
X169810001Y-67502799D01*
X169851421Y-67627795D01*
X169865186Y-67669334D01*
X169942287Y-67794336D01*
X169957289Y-67818657D01*
X170050951Y-67912319D01*
X170084436Y-67973642D01*
X170079452Y-68043334D01*
X170050951Y-68087681D01*
X169957289Y-68181342D01*
X169865187Y-68330663D01*
X169865185Y-68330666D01*
X169865186Y-68330666D01*
X169810001Y-68497203D01*
X169810001Y-68497204D01*
X169810000Y-68497204D01*
X169799500Y-68599983D01*
X169799500Y-68646717D01*
X169779815Y-68713756D01*
X169763181Y-68734398D01*
X168352090Y-70145488D01*
X168350966Y-70146584D01*
X168286946Y-70207442D01*
X168251899Y-70257794D01*
X168249062Y-70261556D01*
X168210302Y-70309092D01*
X168210299Y-70309097D01*
X168194392Y-70339547D01*
X168190324Y-70346261D01*
X168170702Y-70374454D01*
X168146509Y-70430830D01*
X168144488Y-70435084D01*
X168116091Y-70489451D01*
X168116090Y-70489452D01*
X168106640Y-70522475D01*
X168104007Y-70529871D01*
X168090459Y-70561443D01*
X168078113Y-70621519D01*
X168076990Y-70626095D01*
X168060113Y-70685077D01*
X168060113Y-70685079D01*
X168057503Y-70719341D01*
X168056414Y-70727108D01*
X168054397Y-70736929D01*
X168049500Y-70760758D01*
X168049500Y-70822097D01*
X168049321Y-70826806D01*
X168044662Y-70887974D01*
X168046707Y-70904027D01*
X168049003Y-70922060D01*
X168049500Y-70929888D01*
X168049500Y-71534217D01*
X168029815Y-71601256D01*
X168013181Y-71621898D01*
X167621899Y-72013181D01*
X167560576Y-72046666D01*
X167534218Y-72049500D01*
X167465783Y-72049500D01*
X167398744Y-72029815D01*
X167378102Y-72013181D01*
X166986819Y-71621898D01*
X166953334Y-71560575D01*
X166950500Y-71534217D01*
X166950500Y-70760758D01*
X166950500Y-69963412D01*
X166950517Y-69962010D01*
X166952757Y-69873637D01*
X166941930Y-69813234D01*
X166941280Y-69808599D01*
X166935074Y-69747562D01*
X166924790Y-69714786D01*
X166922920Y-69707168D01*
X166916859Y-69673348D01*
X166916858Y-69673346D01*
X166916858Y-69673344D01*
X166894098Y-69616366D01*
X166892517Y-69611925D01*
X166874160Y-69553415D01*
X166874159Y-69553414D01*
X166874159Y-69553412D01*
X166857482Y-69523366D01*
X166854122Y-69516288D01*
X166841378Y-69484383D01*
X166841375Y-69484378D01*
X166841374Y-69484376D01*
X166828853Y-69465378D01*
X166807605Y-69433139D01*
X166805183Y-69429142D01*
X166775409Y-69375498D01*
X166753034Y-69349434D01*
X166748306Y-69343163D01*
X166729404Y-69314484D01*
X166729399Y-69314478D01*
X166707715Y-69292795D01*
X166686019Y-69271099D01*
X166682828Y-69267655D01*
X166642865Y-69221104D01*
X166615694Y-69200072D01*
X166609807Y-69194887D01*
X166136819Y-68721899D01*
X166103334Y-68660576D01*
X166100500Y-68634218D01*
X166100500Y-68178340D01*
X166120185Y-68111301D01*
X166172989Y-68065546D01*
X166242147Y-68055602D01*
X166289591Y-68072798D01*
X166430666Y-68159814D01*
X166597203Y-68214999D01*
X166699991Y-68225500D01*
X167300008Y-68225499D01*
X167300016Y-68225498D01*
X167300019Y-68225498D01*
X167356302Y-68219748D01*
X167402797Y-68214999D01*
X167569334Y-68159814D01*
X167718656Y-68067712D01*
X167842712Y-67943656D01*
X167934814Y-67794334D01*
X167989999Y-67627797D01*
X168000500Y-67525009D01*
X168000500Y-67002757D01*
X168000500Y-65313474D01*
X168000520Y-65311904D01*
X168000793Y-65301154D01*
X168002757Y-65223637D01*
X167991933Y-65163249D01*
X167991280Y-65158587D01*
X167985074Y-65097563D01*
X167985074Y-65097562D01*
X167974784Y-65064768D01*
X167972917Y-65057155D01*
X167971998Y-65052029D01*
X167966858Y-65023347D01*
X167944100Y-64966374D01*
X167942521Y-64961938D01*
X167925804Y-64908657D01*
X167924159Y-64903412D01*
X167924158Y-64903410D01*
X167924157Y-64903407D01*
X167907488Y-64873378D01*
X167904117Y-64866278D01*
X167891378Y-64834386D01*
X167891377Y-64834383D01*
X167857620Y-64783163D01*
X167855180Y-64779134D01*
X167841198Y-64753945D01*
X167825409Y-64725498D01*
X167825407Y-64725495D01*
X167803033Y-64699434D01*
X167798302Y-64693159D01*
X167785567Y-64673836D01*
X167779402Y-64664481D01*
X167736012Y-64621091D01*
X167732822Y-64617648D01*
X167692867Y-64571106D01*
X167692863Y-64571102D01*
X167665698Y-64550074D01*
X167659811Y-64544890D01*
X166127018Y-63012098D01*
X166093534Y-62950776D01*
X166091342Y-62937015D01*
X166090349Y-62927292D01*
X166037003Y-62766303D01*
X166036999Y-62766297D01*
X166036998Y-62766294D01*
X165947970Y-62621959D01*
X165947967Y-62621955D01*
X165828044Y-62502032D01*
X165828040Y-62502029D01*
X165683705Y-62413001D01*
X165683699Y-62412998D01*
X165683697Y-62412997D01*
X165640681Y-62398743D01*
X165522709Y-62359651D01*
X165423352Y-62349500D01*
X165423345Y-62349500D01*
X165332460Y-62349500D01*
X165298348Y-62344716D01*
X165213260Y-62320369D01*
X165177418Y-62310113D01*
X165177417Y-62310112D01*
X165177416Y-62310112D01*
X164974525Y-62294662D01*
X164974522Y-62294662D01*
X164772674Y-62320369D01*
X164772670Y-62320370D01*
X164706945Y-62342835D01*
X164666841Y-62349500D01*
X164576663Y-62349500D01*
X164576644Y-62349501D01*
X164477292Y-62359650D01*
X164477289Y-62359651D01*
X164316305Y-62412996D01*
X164316294Y-62413001D01*
X164171959Y-62502029D01*
X164171955Y-62502032D01*
X164052032Y-62621955D01*
X164052029Y-62621959D01*
X163963001Y-62766294D01*
X163962996Y-62766305D01*
X163909651Y-62927290D01*
X163899500Y-63026647D01*
X163899500Y-63287769D01*
X163879815Y-63354808D01*
X163863181Y-63375450D01*
X162075451Y-65163181D01*
X162014128Y-65196666D01*
X161987770Y-65199500D01*
X161869798Y-65199500D01*
X161832932Y-65202401D01*
X161832926Y-65202402D01*
X161675106Y-65248254D01*
X161675103Y-65248255D01*
X161533637Y-65331917D01*
X161533629Y-65331923D01*
X161417423Y-65448129D01*
X161417414Y-65448140D01*
X161417229Y-65448455D01*
X161417019Y-65448650D01*
X161412639Y-65454298D01*
X161411727Y-65453591D01*
X161366157Y-65496136D01*
X161297415Y-65508637D01*
X161232827Y-65481988D01*
X161208643Y-65454078D01*
X161208361Y-65454298D01*
X161204323Y-65449092D01*
X161203771Y-65448455D01*
X161203585Y-65448140D01*
X161203576Y-65448129D01*
X161087370Y-65331923D01*
X161087361Y-65331916D01*
X161000055Y-65280284D01*
X160952372Y-65229215D01*
X160939868Y-65160473D01*
X160966513Y-65095884D01*
X160975487Y-65085879D01*
X161513974Y-64547391D01*
X161516551Y-64544959D01*
X161564460Y-64502326D01*
X161601239Y-64449798D01*
X161603358Y-64446952D01*
X161643111Y-64396677D01*
X161647848Y-64386516D01*
X161658655Y-64367798D01*
X161665088Y-64358612D01*
X161688755Y-64299034D01*
X161690161Y-64295775D01*
X161717257Y-64237672D01*
X161719523Y-64226694D01*
X161725726Y-64205976D01*
X161729671Y-64196047D01*
X161729862Y-64195567D01*
X161739155Y-64132119D01*
X161739764Y-64128665D01*
X161752734Y-64065855D01*
X161752408Y-64054652D01*
X161753664Y-64033070D01*
X161755289Y-64021974D01*
X161749705Y-63958153D01*
X161749495Y-63954551D01*
X161747631Y-63890485D01*
X161744730Y-63879661D01*
X161740975Y-63858372D01*
X161739999Y-63847203D01*
X161719844Y-63786378D01*
X161718809Y-63782922D01*
X161704725Y-63730362D01*
X161700500Y-63698268D01*
X161700500Y-63398361D01*
X161700500Y-63087226D01*
X161720183Y-63020191D01*
X161736809Y-62999558D01*
X161792712Y-62943656D01*
X161884814Y-62794334D01*
X161939999Y-62627797D01*
X161950500Y-62525009D01*
X161950499Y-62465781D01*
X161970182Y-62398743D01*
X161986813Y-62378105D01*
X163328100Y-61036819D01*
X163389424Y-61003334D01*
X163415782Y-61000500D01*
X165050743Y-61000500D01*
X165126590Y-60992787D01*
X165202438Y-60985074D01*
X165294509Y-60956185D01*
X165331631Y-60950499D01*
X165423338Y-60950499D01*
X165423344Y-60950499D01*
X165423352Y-60950498D01*
X165423355Y-60950498D01*
X165477760Y-60944940D01*
X165522708Y-60940349D01*
X165683697Y-60887003D01*
X165828044Y-60797968D01*
X165947968Y-60678044D01*
X166037003Y-60533697D01*
X166090349Y-60372708D01*
X166100500Y-60273345D01*
X166100499Y-59726656D01*
X166090349Y-59627292D01*
X166037003Y-59466303D01*
X166036999Y-59466297D01*
X166036998Y-59466294D01*
X165947970Y-59321959D01*
X165947967Y-59321955D01*
X165828044Y-59202032D01*
X165828040Y-59202029D01*
X165683705Y-59113001D01*
X165683699Y-59112998D01*
X165683697Y-59112997D01*
X165571564Y-59075840D01*
X165522709Y-59059651D01*
X165423352Y-59049500D01*
X165423345Y-59049500D01*
X165347605Y-59049500D01*
X165307399Y-59041236D01*
X165307053Y-59042341D01*
X165301061Y-59040460D01*
X165101741Y-58999500D01*
X162963476Y-58999500D01*
X162961914Y-58999480D01*
X162952556Y-58999242D01*
X162873638Y-58997242D01*
X162873635Y-58997242D01*
X162821823Y-59006529D01*
X162813254Y-59008064D01*
X162808595Y-59008718D01*
X162747564Y-59014925D01*
X162747562Y-59014926D01*
X162714780Y-59025210D01*
X162707156Y-59027081D01*
X162699308Y-59028488D01*
X162673349Y-59033141D01*
X162616381Y-59055895D01*
X162611945Y-59057474D01*
X162553414Y-59075840D01*
X162553410Y-59075842D01*
X162523378Y-59092510D01*
X162516284Y-59095879D01*
X162484382Y-59108623D01*
X162484377Y-59108625D01*
X162433156Y-59142381D01*
X162429128Y-59144822D01*
X162375501Y-59174588D01*
X162349434Y-59196965D01*
X162343165Y-59201692D01*
X162314484Y-59220595D01*
X162314478Y-59220600D01*
X162271109Y-59263968D01*
X162267655Y-59267169D01*
X162221102Y-59307136D01*
X162200076Y-59334298D01*
X162194885Y-59340192D01*
X160796896Y-60738181D01*
X160735573Y-60771666D01*
X160709217Y-60774500D01*
X160649999Y-60774500D01*
X160649980Y-60774501D01*
X160547203Y-60785000D01*
X160547200Y-60785001D01*
X160380668Y-60840185D01*
X160380663Y-60840187D01*
X160231342Y-60932289D01*
X160107289Y-61056342D01*
X160015187Y-61205663D01*
X160015185Y-61205668D01*
X160008091Y-61227077D01*
X159960001Y-61372203D01*
X159960001Y-61372204D01*
X159960000Y-61372204D01*
X159949500Y-61474983D01*
X159949500Y-61959592D01*
X159949321Y-61964300D01*
X159944663Y-62025476D01*
X159949003Y-62059557D01*
X159949500Y-62067397D01*
X159949500Y-62525001D01*
X159949501Y-62525019D01*
X159960000Y-62627796D01*
X159960001Y-62627799D01*
X160005894Y-62766294D01*
X160015186Y-62794334D01*
X160107288Y-62943656D01*
X160163183Y-62999551D01*
X160196666Y-63060870D01*
X160199500Y-63087229D01*
X160199500Y-63687769D01*
X160179815Y-63754808D01*
X160163181Y-63775450D01*
X159687358Y-64251272D01*
X159673729Y-64263051D01*
X159654468Y-64277390D01*
X159620898Y-64317397D01*
X159617253Y-64321376D01*
X159611407Y-64327223D01*
X159591618Y-64352251D01*
X159590481Y-64353647D01*
X159541694Y-64411790D01*
X159537729Y-64417819D01*
X159537682Y-64417788D01*
X159533630Y-64424147D01*
X159533679Y-64424177D01*
X159529889Y-64430321D01*
X159497812Y-64499110D01*
X159497027Y-64500731D01*
X159462957Y-64568572D01*
X159460488Y-64575357D01*
X159460432Y-64575336D01*
X159457960Y-64582450D01*
X159458015Y-64582469D01*
X159455743Y-64589325D01*
X159440391Y-64663670D01*
X159440001Y-64665428D01*
X159422499Y-64739279D01*
X159421661Y-64746454D01*
X159421601Y-64746447D01*
X159420835Y-64753945D01*
X159420895Y-64753951D01*
X159420265Y-64761140D01*
X159422474Y-64837030D01*
X159422500Y-64838833D01*
X159422500Y-65164281D01*
X159402815Y-65231320D01*
X159361621Y-65271013D01*
X159258638Y-65331916D01*
X159258629Y-65331923D01*
X159142423Y-65448129D01*
X159142417Y-65448137D01*
X159058755Y-65589603D01*
X159058754Y-65589606D01*
X159012902Y-65747426D01*
X159012901Y-65747432D01*
X159010000Y-65784298D01*
X159010000Y-66215701D01*
X159012901Y-66252567D01*
X159012902Y-66252573D01*
X159058754Y-66410393D01*
X159058755Y-66410396D01*
X159058756Y-66410398D01*
X159066412Y-66423344D01*
X159142417Y-66551862D01*
X159142423Y-66551870D01*
X159258629Y-66668076D01*
X159258633Y-66668079D01*
X159258635Y-66668081D01*
X159400102Y-66751744D01*
X159441724Y-66763836D01*
X159557926Y-66797597D01*
X159557929Y-66797597D01*
X159557931Y-66797598D01*
X159594806Y-66800500D01*
X159594814Y-66800500D01*
X160557563Y-66800500D01*
X160624602Y-66820185D01*
X160670357Y-66872989D01*
X160680301Y-66942147D01*
X160677667Y-66955340D01*
X160670592Y-66982893D01*
X160664290Y-67001298D01*
X160654144Y-67024745D01*
X160609455Y-67078453D01*
X160542823Y-67099475D01*
X160540342Y-67099500D01*
X159594798Y-67099500D01*
X159557932Y-67102401D01*
X159557926Y-67102402D01*
X159412767Y-67144576D01*
X159378172Y-67149500D01*
X158272281Y-67149500D01*
X158205242Y-67129815D01*
X158184600Y-67113181D01*
X158085780Y-67014361D01*
X158074000Y-67000730D01*
X158066533Y-66990701D01*
X158059663Y-66981472D01*
X158045437Y-66969535D01*
X158019638Y-66947886D01*
X158015663Y-66944244D01*
X158012741Y-66941322D01*
X158009830Y-66938410D01*
X157984787Y-66918609D01*
X157983389Y-66917470D01*
X157925265Y-66868698D01*
X157919231Y-66864729D01*
X157919263Y-66864680D01*
X157912904Y-66860628D01*
X157912873Y-66860679D01*
X157906731Y-66856891D01*
X157906729Y-66856890D01*
X157906728Y-66856889D01*
X157837923Y-66824804D01*
X157836303Y-66824019D01*
X157785988Y-66798751D01*
X157768484Y-66789960D01*
X157768482Y-66789959D01*
X157768481Y-66789959D01*
X157761696Y-66787489D01*
X157761716Y-66787433D01*
X157754600Y-66784959D01*
X157754582Y-66785015D01*
X157747725Y-66782743D01*
X157673379Y-66767391D01*
X157671620Y-66767001D01*
X157597769Y-66749499D01*
X157590598Y-66748661D01*
X157590604Y-66748601D01*
X157583106Y-66747835D01*
X157583101Y-66747895D01*
X157575911Y-66747265D01*
X157500019Y-66749474D01*
X157498216Y-66749500D01*
X155299500Y-66749500D01*
X155232461Y-66729815D01*
X155186706Y-66677011D01*
X155175500Y-66625500D01*
X155175500Y-66275491D01*
X155175520Y-66273921D01*
X155177757Y-66185641D01*
X155177756Y-66185640D01*
X155177757Y-66185637D01*
X155166933Y-66125253D01*
X155166280Y-66120587D01*
X155163034Y-66088674D01*
X155160074Y-66059562D01*
X155149788Y-66026780D01*
X155147918Y-66019166D01*
X155141858Y-65985348D01*
X155119095Y-65928360D01*
X155117524Y-65923946D01*
X155106184Y-65887804D01*
X155100499Y-65850687D01*
X155100499Y-65674498D01*
X155100498Y-65674481D01*
X155089311Y-65564968D01*
X155089660Y-65564932D01*
X155088000Y-65549241D01*
X155088000Y-65378281D01*
X155107685Y-65311242D01*
X155124314Y-65290605D01*
X155743340Y-64671580D01*
X155839698Y-64553407D01*
X155933909Y-64373049D01*
X155989887Y-64177418D01*
X156005337Y-63974524D01*
X156002793Y-63954551D01*
X155979631Y-63772678D01*
X155979630Y-63772676D01*
X155979630Y-63772672D01*
X155913816Y-63580128D01*
X155913815Y-63580126D01*
X155810592Y-63404774D01*
X155806871Y-63399707D01*
X155808703Y-63398361D01*
X155782833Y-63344683D01*
X155791342Y-63275334D01*
X155835994Y-63221594D01*
X155902612Y-63200526D01*
X155905179Y-63200499D01*
X156225002Y-63200499D01*
X156225008Y-63200499D01*
X156327797Y-63189999D01*
X156494334Y-63134814D01*
X156643656Y-63042712D01*
X156767712Y-62918656D01*
X156859814Y-62769334D01*
X156914999Y-62602797D01*
X156925500Y-62500009D01*
X156925499Y-62453282D01*
X156945182Y-62386245D01*
X156961813Y-62365606D01*
X158178001Y-61149418D01*
X158179014Y-61148431D01*
X158243053Y-61087559D01*
X158278112Y-61037186D01*
X158280925Y-61033457D01*
X158319698Y-60985907D01*
X158335607Y-60955448D01*
X158339667Y-60948748D01*
X158359295Y-60920549D01*
X158383492Y-60864160D01*
X158385498Y-60859935D01*
X158413909Y-60805549D01*
X158423360Y-60772515D01*
X158425991Y-60765128D01*
X158426827Y-60763181D01*
X158439540Y-60733558D01*
X158451893Y-60673440D01*
X158453006Y-60668912D01*
X158469887Y-60609918D01*
X158472495Y-60575655D01*
X158473587Y-60567876D01*
X158480500Y-60534239D01*
X158480500Y-60472901D01*
X158480679Y-60468192D01*
X158485337Y-60407025D01*
X158480997Y-60372941D01*
X158480500Y-60365102D01*
X158480500Y-58110758D01*
X158500185Y-58043719D01*
X158516827Y-58023069D01*
X158516897Y-58022998D01*
X158518495Y-58021401D01*
X158654035Y-57827830D01*
X158753903Y-57613663D01*
X158815063Y-57385408D01*
X158835659Y-57150000D01*
X158815063Y-56914592D01*
X158753903Y-56686337D01*
X158654035Y-56472171D01*
X158648425Y-56464158D01*
X158518494Y-56278597D01*
X158351402Y-56111506D01*
X158351395Y-56111501D01*
X158157834Y-55975967D01*
X158157830Y-55975965D01*
X158073270Y-55936534D01*
X157943663Y-55876097D01*
X157943659Y-55876096D01*
X157943655Y-55876094D01*
X157715413Y-55814938D01*
X157715403Y-55814936D01*
X157480001Y-55794341D01*
X157479999Y-55794341D01*
X157244596Y-55814936D01*
X157244586Y-55814938D01*
X157016344Y-55876094D01*
X157016335Y-55876098D01*
X156802171Y-55975964D01*
X156802169Y-55975965D01*
X156608597Y-56111505D01*
X156441505Y-56278597D01*
X156311575Y-56464158D01*
X156256998Y-56507783D01*
X156187500Y-56514977D01*
X156125145Y-56483454D01*
X156108425Y-56464158D01*
X155978494Y-56278597D01*
X155811402Y-56111506D01*
X155811395Y-56111501D01*
X155617834Y-55975967D01*
X155617830Y-55975965D01*
X155533270Y-55936534D01*
X155403663Y-55876097D01*
X155403659Y-55876096D01*
X155403655Y-55876094D01*
X155175413Y-55814938D01*
X155175403Y-55814936D01*
X154940001Y-55794341D01*
X154939999Y-55794341D01*
X154704596Y-55814936D01*
X154704586Y-55814938D01*
X154476344Y-55876094D01*
X154476335Y-55876098D01*
X154262171Y-55975964D01*
X154262169Y-55975965D01*
X154068597Y-56111505D01*
X153901505Y-56278597D01*
X153765965Y-56472169D01*
X153765964Y-56472171D01*
X153666098Y-56686335D01*
X153666094Y-56686344D01*
X153604938Y-56914586D01*
X153604936Y-56914596D01*
X153584341Y-57149999D01*
X153584341Y-57150000D01*
X153604936Y-57385403D01*
X153604938Y-57385413D01*
X153666094Y-57613655D01*
X153666096Y-57613659D01*
X153666097Y-57613663D01*
X153670000Y-57622032D01*
X153765965Y-57827830D01*
X153765967Y-57827834D01*
X153874281Y-57982521D01*
X153901505Y-58021401D01*
X154068599Y-58188495D01*
X154165384Y-58256265D01*
X154262165Y-58324032D01*
X154262167Y-58324033D01*
X154262170Y-58324035D01*
X154476337Y-58423903D01*
X154704592Y-58485063D01*
X154892918Y-58501539D01*
X154939999Y-58505659D01*
X154940000Y-58505659D01*
X154940001Y-58505659D01*
X154979234Y-58502226D01*
X155175408Y-58485063D01*
X155403663Y-58423903D01*
X155617830Y-58324035D01*
X155811401Y-58188495D01*
X155978495Y-58021401D01*
X156108426Y-57835841D01*
X156163002Y-57792217D01*
X156232500Y-57785023D01*
X156294855Y-57816546D01*
X156311571Y-57835837D01*
X156441505Y-58021401D01*
X156441506Y-58021402D01*
X156441507Y-58021403D01*
X156443173Y-58023069D01*
X156443675Y-58023988D01*
X156444987Y-58025552D01*
X156444673Y-58025815D01*
X156476664Y-58084389D01*
X156479500Y-58110758D01*
X156479500Y-59966717D01*
X156459815Y-60033756D01*
X156443181Y-60054398D01*
X155734397Y-60763181D01*
X155673074Y-60796666D01*
X155646718Y-60799500D01*
X155600000Y-60799500D01*
X155599980Y-60799501D01*
X155497203Y-60810000D01*
X155497200Y-60810001D01*
X155330668Y-60865185D01*
X155330663Y-60865187D01*
X155181342Y-60957289D01*
X155087681Y-61050951D01*
X155026358Y-61084436D01*
X154956666Y-61079452D01*
X154912319Y-61050951D01*
X154818657Y-60957289D01*
X154818656Y-60957288D01*
X154669334Y-60865186D01*
X154502797Y-60810001D01*
X154502795Y-60810000D01*
X154400010Y-60799500D01*
X153774998Y-60799500D01*
X153774980Y-60799501D01*
X153672203Y-60810000D01*
X153672200Y-60810001D01*
X153505668Y-60865185D01*
X153505663Y-60865187D01*
X153356342Y-60957289D01*
X153350451Y-60963181D01*
X153289128Y-60996666D01*
X153262770Y-60999500D01*
X152740891Y-60999500D01*
X152673852Y-60979815D01*
X152653210Y-60963181D01*
X152646003Y-60955974D01*
X152645999Y-60955971D01*
X152497933Y-60864642D01*
X152497927Y-60864639D01*
X152497925Y-60864638D01*
X152483690Y-60859921D01*
X152332776Y-60809913D01*
X152230855Y-60799500D01*
X152230848Y-60799500D01*
X151644152Y-60799500D01*
X151644144Y-60799500D01*
X151542223Y-60809913D01*
X151377077Y-60864637D01*
X151377066Y-60864642D01*
X151229000Y-60955971D01*
X151228996Y-60955974D01*
X151105974Y-61078996D01*
X151105971Y-61079000D01*
X151014642Y-61227066D01*
X151014637Y-61227077D01*
X150959913Y-61392223D01*
X150949500Y-61494144D01*
X150949500Y-61808503D01*
X150945542Y-61839582D01*
X150943436Y-61847715D01*
X150942619Y-61863811D01*
X150940243Y-61882474D01*
X150937000Y-61898260D01*
X150937000Y-61973070D01*
X150936920Y-61976210D01*
X150933131Y-62050935D01*
X150933131Y-62050936D01*
X150935570Y-62066857D01*
X150937000Y-62085633D01*
X150937000Y-64596717D01*
X150917315Y-64663756D01*
X150900681Y-64684398D01*
X150712098Y-64872980D01*
X150650775Y-64906465D01*
X150637021Y-64908657D01*
X150627290Y-64909651D01*
X150466305Y-64962996D01*
X150466294Y-64963001D01*
X150321959Y-65052029D01*
X150321955Y-65052032D01*
X150202032Y-65171955D01*
X150202029Y-65171959D01*
X150113001Y-65316294D01*
X150112996Y-65316305D01*
X150059651Y-65477290D01*
X150049500Y-65576647D01*
X150049500Y-65667539D01*
X150044716Y-65701651D01*
X150010112Y-65822584D01*
X149994662Y-66025474D01*
X149994662Y-66025477D01*
X150020369Y-66227325D01*
X150020370Y-66227329D01*
X150042835Y-66293054D01*
X150049500Y-66333158D01*
X150049500Y-66423336D01*
X150049501Y-66423355D01*
X150059650Y-66522707D01*
X150059651Y-66522710D01*
X150112996Y-66683694D01*
X150113001Y-66683705D01*
X150202029Y-66828040D01*
X150202032Y-66828044D01*
X150321955Y-66947967D01*
X150321959Y-66947970D01*
X150466294Y-67036998D01*
X150466297Y-67036999D01*
X150466303Y-67037003D01*
X150627292Y-67090349D01*
X150726655Y-67100500D01*
X151273344Y-67100499D01*
X151273352Y-67100498D01*
X151273355Y-67100498D01*
X151327760Y-67094940D01*
X151372708Y-67090349D01*
X151533697Y-67037003D01*
X151678044Y-66947968D01*
X151797968Y-66828044D01*
X151887003Y-66683697D01*
X151940349Y-66522708D01*
X151941342Y-66512982D01*
X151967734Y-66448293D01*
X151977010Y-66437908D01*
X152635482Y-65779436D01*
X152636495Y-65778449D01*
X152700553Y-65717559D01*
X152728016Y-65678101D01*
X152735599Y-65667206D01*
X152738438Y-65663441D01*
X152752662Y-65645997D01*
X152777198Y-65615907D01*
X152793101Y-65585460D01*
X152797174Y-65578739D01*
X152806758Y-65564969D01*
X152816795Y-65550549D01*
X152840997Y-65494150D01*
X152842999Y-65489934D01*
X152853094Y-65470609D01*
X152901583Y-65420305D01*
X152969572Y-65404201D01*
X153035474Y-65427411D01*
X153078366Y-65482566D01*
X153087000Y-65528027D01*
X153087000Y-65549240D01*
X153085339Y-65564933D01*
X153085689Y-65564969D01*
X153074500Y-65674483D01*
X153074500Y-66674501D01*
X153074501Y-66674519D01*
X153085000Y-66777296D01*
X153085001Y-66777299D01*
X153140185Y-66943831D01*
X153140187Y-66943836D01*
X153142735Y-66947967D01*
X153156039Y-66969536D01*
X153174500Y-67034632D01*
X153174500Y-68374740D01*
X153172839Y-68390433D01*
X153173189Y-68390469D01*
X153162000Y-68499983D01*
X153162000Y-69500001D01*
X153162001Y-69500019D01*
X153172500Y-69602796D01*
X153172501Y-69602799D01*
X153227685Y-69769331D01*
X153227687Y-69769336D01*
X153234612Y-69780563D01*
X153319788Y-69918656D01*
X153443844Y-70042712D01*
X153593166Y-70134814D01*
X153759703Y-70189999D01*
X153862491Y-70200500D01*
X154487508Y-70200499D01*
X154487516Y-70200498D01*
X154487519Y-70200498D01*
X154543802Y-70194748D01*
X154590297Y-70189999D01*
X154756834Y-70134814D01*
X154810404Y-70101771D01*
X154877796Y-70083332D01*
X154944459Y-70104255D01*
X154989229Y-70157897D01*
X154999500Y-70207311D01*
X154999500Y-72050743D01*
X155011682Y-72170535D01*
X155012000Y-72176812D01*
X155012000Y-72505855D01*
X155022413Y-72607776D01*
X155077137Y-72772922D01*
X155077142Y-72772933D01*
X155168471Y-72920999D01*
X155168474Y-72921003D01*
X155291496Y-73044025D01*
X155291500Y-73044028D01*
X155439566Y-73135357D01*
X155439569Y-73135358D01*
X155439575Y-73135362D01*
X155604725Y-73190087D01*
X155706652Y-73200500D01*
X155706657Y-73200500D01*
X156293343Y-73200500D01*
X156293348Y-73200500D01*
X156395275Y-73190087D01*
X156560425Y-73135362D01*
X156708503Y-73044026D01*
X156831526Y-72921003D01*
X156922862Y-72772925D01*
X156977587Y-72607775D01*
X156988000Y-72505848D01*
X156988000Y-72175176D01*
X156990538Y-72150216D01*
X157000500Y-72101741D01*
X157000500Y-69625259D01*
X157002161Y-69609567D01*
X157001811Y-69609532D01*
X157007944Y-69549500D01*
X157013000Y-69500009D01*
X157012999Y-68499992D01*
X157004677Y-68418529D01*
X157001811Y-68390467D01*
X157003956Y-68390247D01*
X157008418Y-68330763D01*
X157050484Y-68274976D01*
X157116032Y-68250786D01*
X157124449Y-68250500D01*
X157147822Y-68250500D01*
X157214861Y-68270185D01*
X157235503Y-68286819D01*
X157334318Y-68385634D01*
X157346100Y-68399267D01*
X157360440Y-68418529D01*
X157400457Y-68452108D01*
X157404443Y-68455760D01*
X157410271Y-68461587D01*
X157410271Y-68461588D01*
X157435297Y-68481375D01*
X157436679Y-68482501D01*
X157457524Y-68499992D01*
X157494837Y-68531302D01*
X157500874Y-68535272D01*
X157500840Y-68535322D01*
X157507195Y-68539370D01*
X157507228Y-68539318D01*
X157513369Y-68543106D01*
X157513374Y-68543110D01*
X157582195Y-68575201D01*
X157583711Y-68575935D01*
X157651618Y-68610040D01*
X157651623Y-68610041D01*
X157658406Y-68612510D01*
X157658385Y-68612567D01*
X157665502Y-68615040D01*
X157665521Y-68614984D01*
X157672375Y-68617254D01*
X157672378Y-68617256D01*
X157746766Y-68632615D01*
X157748403Y-68632978D01*
X157822330Y-68650500D01*
X157822336Y-68650500D01*
X157829503Y-68651338D01*
X157829496Y-68651397D01*
X157836997Y-68652163D01*
X157837003Y-68652104D01*
X157844192Y-68652733D01*
X157844194Y-68652732D01*
X157844195Y-68652733D01*
X157865815Y-68652104D01*
X157920063Y-68650526D01*
X157921866Y-68650500D01*
X159378172Y-68650500D01*
X159412767Y-68655424D01*
X159557926Y-68697597D01*
X159557929Y-68697597D01*
X159557931Y-68697598D01*
X159594806Y-68700500D01*
X160428369Y-68700500D01*
X160495408Y-68720185D01*
X160541163Y-68772989D01*
X160551107Y-68842147D01*
X160549027Y-68853096D01*
X160535000Y-68912280D01*
X160535000Y-70736929D01*
X160515315Y-70803968D01*
X160462511Y-70849723D01*
X160450007Y-70854634D01*
X160418167Y-70865185D01*
X160268842Y-70957289D01*
X160175181Y-71050951D01*
X160113858Y-71084436D01*
X160044166Y-71079452D01*
X159999819Y-71050951D01*
X159906157Y-70957289D01*
X159906157Y-70957288D01*
X159906156Y-70957288D01*
X159793783Y-70887976D01*
X159756836Y-70865187D01*
X159756831Y-70865185D01*
X159724990Y-70854634D01*
X159590297Y-70810001D01*
X159590295Y-70810000D01*
X159487510Y-70799500D01*
X158862498Y-70799500D01*
X158862480Y-70799501D01*
X158759703Y-70810000D01*
X158759700Y-70810001D01*
X158593168Y-70865185D01*
X158593163Y-70865187D01*
X158443842Y-70957289D01*
X158319789Y-71081342D01*
X158227687Y-71230663D01*
X158227685Y-71230666D01*
X158227686Y-71230666D01*
X158172501Y-71397203D01*
X158172501Y-71397204D01*
X158172500Y-71397204D01*
X158162000Y-71499983D01*
X158162000Y-72500001D01*
X158162001Y-72500019D01*
X158173189Y-72609533D01*
X158172839Y-72609568D01*
X158174500Y-72625259D01*
X158174500Y-73031506D01*
X158174480Y-73033070D01*
X158174202Y-73044028D01*
X158172243Y-73121362D01*
X158172243Y-73121370D01*
X158183064Y-73181739D01*
X158183718Y-73186404D01*
X158189925Y-73247430D01*
X158189927Y-73247444D01*
X158200208Y-73280213D01*
X158202079Y-73287837D01*
X158208142Y-73321652D01*
X158208142Y-73321655D01*
X158230894Y-73378612D01*
X158232474Y-73383051D01*
X158250841Y-73441588D01*
X158250844Y-73441595D01*
X158267509Y-73471619D01*
X158270879Y-73478714D01*
X158283622Y-73510614D01*
X158283627Y-73510624D01*
X158317377Y-73561833D01*
X158319818Y-73565863D01*
X158349588Y-73619498D01*
X158349589Y-73619499D01*
X158349591Y-73619502D01*
X158371968Y-73645567D01*
X158376693Y-73651835D01*
X158389263Y-73670906D01*
X158395598Y-73680519D01*
X158438978Y-73723899D01*
X158442169Y-73727343D01*
X158482131Y-73773892D01*
X158482130Y-73773892D01*
X158509299Y-73794923D01*
X158515186Y-73800107D01*
X160203129Y-75488049D01*
X161738181Y-77023101D01*
X161771666Y-77084424D01*
X161774500Y-77110782D01*
X161774500Y-77645001D01*
X161774501Y-77645019D01*
X161785000Y-77747796D01*
X161785001Y-77747799D01*
X161840185Y-77914331D01*
X161840187Y-77914336D01*
X161847073Y-77925500D01*
X161932288Y-78063656D01*
X162056344Y-78187712D01*
X162205094Y-78279461D01*
X162251818Y-78331408D01*
X162263041Y-78400370D01*
X162235198Y-78464452D01*
X162205098Y-78490535D01*
X162179969Y-78506036D01*
X162114868Y-78524500D01*
X161990783Y-78524500D01*
X161923744Y-78504815D01*
X161903102Y-78488181D01*
X161025346Y-77610425D01*
X159716972Y-76302051D01*
X159715914Y-76300965D01*
X159655064Y-76236951D01*
X159655060Y-76236948D01*
X159655059Y-76236947D01*
X159616612Y-76210187D01*
X159604709Y-76201902D01*
X159600946Y-76199064D01*
X159553413Y-76160305D01*
X159553406Y-76160300D01*
X159522959Y-76144397D01*
X159516251Y-76140334D01*
X159488049Y-76120705D01*
X159488046Y-76120703D01*
X159488045Y-76120703D01*
X159488041Y-76120701D01*
X159431680Y-76096514D01*
X159427424Y-76094493D01*
X159373057Y-76066094D01*
X159373050Y-76066091D01*
X159373049Y-76066091D01*
X159367008Y-76064362D01*
X159340030Y-76056642D01*
X159332630Y-76054008D01*
X159301057Y-76040459D01*
X159301058Y-76040459D01*
X159240966Y-76028109D01*
X159236391Y-76026986D01*
X159177420Y-76010113D01*
X159177425Y-76010113D01*
X159143158Y-76007503D01*
X159135380Y-76006412D01*
X159101742Y-75999500D01*
X159101741Y-75999500D01*
X159040402Y-75999500D01*
X159035695Y-75999321D01*
X159030121Y-75998896D01*
X158974524Y-75994662D01*
X158954589Y-75997201D01*
X158940440Y-75999003D01*
X158932611Y-75999500D01*
X154767007Y-75999500D01*
X154728003Y-75993206D01*
X154726028Y-75992551D01*
X154627797Y-75960001D01*
X154627795Y-75960000D01*
X154525016Y-75949500D01*
X154525009Y-75949500D01*
X154259334Y-75949500D01*
X154234368Y-75946961D01*
X154203465Y-75940609D01*
X154198891Y-75939486D01*
X154139920Y-75922613D01*
X154139925Y-75922613D01*
X154105658Y-75920003D01*
X154097880Y-75918912D01*
X154064242Y-75912000D01*
X154064241Y-75912000D01*
X154002902Y-75912000D01*
X153998195Y-75911821D01*
X153992621Y-75911396D01*
X153937024Y-75907162D01*
X153917089Y-75909701D01*
X153902940Y-75911503D01*
X153895111Y-75912000D01*
X153026929Y-75912000D01*
X153023789Y-75911920D01*
X152949064Y-75908131D01*
X152949060Y-75908131D01*
X152933143Y-75910570D01*
X152914367Y-75912000D01*
X151207311Y-75912000D01*
X151140272Y-75892315D01*
X151094517Y-75839511D01*
X151084573Y-75770353D01*
X151101771Y-75722905D01*
X151134814Y-75669334D01*
X151189999Y-75502797D01*
X151200500Y-75400009D01*
X151200499Y-74774992D01*
X151189999Y-74672203D01*
X151134814Y-74505666D01*
X151042712Y-74356344D01*
X150918656Y-74232288D01*
X150769334Y-74140186D01*
X150602797Y-74085001D01*
X150602795Y-74085000D01*
X150500016Y-74074500D01*
X150500009Y-74074500D01*
X150453282Y-74074500D01*
X150386243Y-74054815D01*
X150365601Y-74038181D01*
X150161819Y-73834398D01*
X150128334Y-73773075D01*
X150125500Y-73746717D01*
X150125500Y-71949256D01*
X150113318Y-71829463D01*
X150113000Y-71823186D01*
X150113000Y-71494157D01*
X150112999Y-71494144D01*
X150102587Y-71392225D01*
X150047862Y-71227075D01*
X150047858Y-71227069D01*
X150047857Y-71227066D01*
X149956528Y-71079000D01*
X149956525Y-71078996D01*
X149833503Y-70955974D01*
X149833499Y-70955971D01*
X149685433Y-70864642D01*
X149685427Y-70864639D01*
X149685425Y-70864638D01*
X149655235Y-70854634D01*
X149520276Y-70809913D01*
X149418355Y-70799500D01*
X149418348Y-70799500D01*
X148831652Y-70799500D01*
X148831644Y-70799500D01*
X148729723Y-70809913D01*
X148564577Y-70864637D01*
X148564566Y-70864642D01*
X148416500Y-70955971D01*
X148416496Y-70955974D01*
X148293474Y-71078996D01*
X148293471Y-71079000D01*
X148202142Y-71227066D01*
X148202137Y-71227077D01*
X148147413Y-71392223D01*
X148137000Y-71494144D01*
X148137000Y-71824821D01*
X148134462Y-71849782D01*
X148124500Y-71898258D01*
X148124500Y-74199006D01*
X148124480Y-74200576D01*
X148122243Y-74288862D01*
X148122243Y-74288870D01*
X148133064Y-74349239D01*
X148133718Y-74353904D01*
X148139925Y-74414930D01*
X148139927Y-74414944D01*
X148150208Y-74447713D01*
X148152079Y-74455337D01*
X148158142Y-74489152D01*
X148158142Y-74489155D01*
X148180894Y-74546112D01*
X148182474Y-74550551D01*
X148200841Y-74609088D01*
X148200844Y-74609095D01*
X148217509Y-74639119D01*
X148220879Y-74646214D01*
X148231259Y-74672200D01*
X148233622Y-74678114D01*
X148233627Y-74678124D01*
X148267377Y-74729333D01*
X148269818Y-74733363D01*
X148299588Y-74786998D01*
X148299589Y-74786999D01*
X148299591Y-74787002D01*
X148321968Y-74813067D01*
X148326693Y-74819335D01*
X148339263Y-74838406D01*
X148345598Y-74848019D01*
X148388983Y-74891404D01*
X148392174Y-74894848D01*
X148432130Y-74941391D01*
X148432132Y-74941392D01*
X148432134Y-74941395D01*
X148432137Y-74941397D01*
X148459299Y-74962423D01*
X148465186Y-74967607D01*
X148700017Y-75202438D01*
X148763181Y-75265602D01*
X148796666Y-75326925D01*
X148799500Y-75353281D01*
X148799500Y-75399999D01*
X148799501Y-75400019D01*
X148810000Y-75502796D01*
X148810001Y-75502799D01*
X148833762Y-75574504D01*
X148865186Y-75669334D01*
X148898228Y-75722904D01*
X148916668Y-75790296D01*
X148895745Y-75856959D01*
X148842103Y-75901729D01*
X148792689Y-75912000D01*
X148378282Y-75912000D01*
X148311243Y-75892315D01*
X148290601Y-75875681D01*
X145986819Y-73571898D01*
X145953334Y-73510575D01*
X145950500Y-73484217D01*
X145950500Y-72574499D01*
X145970185Y-72507460D01*
X146022989Y-72461705D01*
X146074500Y-72450499D01*
X146825002Y-72450499D01*
X146825008Y-72450499D01*
X146927797Y-72439999D01*
X147094334Y-72384814D01*
X147243656Y-72292712D01*
X147367712Y-72168656D01*
X147459814Y-72019334D01*
X147514999Y-71852797D01*
X147525500Y-71750009D01*
X147525499Y-70249992D01*
X147521152Y-70207442D01*
X147514999Y-70147203D01*
X147514998Y-70147200D01*
X147500767Y-70104255D01*
X147459814Y-69980666D01*
X147367712Y-69831344D01*
X147243656Y-69707288D01*
X147140493Y-69643657D01*
X147094336Y-69615187D01*
X147094331Y-69615185D01*
X147075150Y-69608829D01*
X146927797Y-69560001D01*
X146927795Y-69560000D01*
X146825010Y-69549500D01*
X143074998Y-69549500D01*
X143074981Y-69549501D01*
X142972203Y-69560000D01*
X142972200Y-69560001D01*
X142805668Y-69615185D01*
X142805663Y-69615187D01*
X142656342Y-69707289D01*
X142532289Y-69831342D01*
X142440187Y-69980663D01*
X142440185Y-69980666D01*
X142440186Y-69980666D01*
X142385001Y-70147203D01*
X142385001Y-70147204D01*
X142385000Y-70147204D01*
X142374500Y-70249983D01*
X142374500Y-71750001D01*
X142374501Y-71750018D01*
X142385000Y-71852796D01*
X142385001Y-71852799D01*
X142440185Y-72019331D01*
X142440187Y-72019336D01*
X142457044Y-72046666D01*
X142532288Y-72168656D01*
X142656344Y-72292712D01*
X142805666Y-72384814D01*
X142911224Y-72419792D01*
X142968667Y-72459563D01*
X142995490Y-72524079D01*
X142983175Y-72592855D01*
X142959899Y-72625178D01*
X137302091Y-78282987D01*
X137300967Y-78284083D01*
X137236946Y-78344942D01*
X137201899Y-78395294D01*
X137199062Y-78399056D01*
X137160302Y-78446592D01*
X137160299Y-78446597D01*
X137144392Y-78477047D01*
X137140324Y-78483761D01*
X137120702Y-78511954D01*
X137096509Y-78568330D01*
X137094488Y-78572584D01*
X137066091Y-78626951D01*
X137066090Y-78626952D01*
X137056640Y-78659975D01*
X137054007Y-78667371D01*
X137040459Y-78698943D01*
X137028113Y-78759019D01*
X137026990Y-78763595D01*
X137010113Y-78822577D01*
X137010113Y-78822579D01*
X137007503Y-78856841D01*
X137006414Y-78864608D01*
X137000980Y-78891052D01*
X136999500Y-78898258D01*
X136999500Y-78959597D01*
X136999321Y-78964306D01*
X136994662Y-79025474D01*
X133350499Y-79025474D01*
X133350499Y-57151149D01*
X133350541Y-57148868D01*
X133360488Y-56883039D01*
X133368764Y-56672414D01*
X133369102Y-56667972D01*
X133397725Y-56413937D01*
X133424361Y-56188891D01*
X133425004Y-56184705D01*
X133471966Y-55936503D01*
X133516822Y-55710999D01*
X133517718Y-55707159D01*
X133582778Y-55464353D01*
X133645575Y-55241692D01*
X133646707Y-55238106D01*
X133729524Y-55001429D01*
X133809882Y-54783612D01*
X133811190Y-54780361D01*
X133911104Y-54551355D01*
X133911547Y-54550369D01*
X134008766Y-54339485D01*
X134010191Y-54336601D01*
X134126829Y-54115913D01*
X134127432Y-54114804D01*
X134241042Y-53911937D01*
X134242565Y-53909372D01*
X134375260Y-53698189D01*
X134376109Y-53696878D01*
X134505345Y-53503463D01*
X134506950Y-53501179D01*
X134654984Y-53300600D01*
X134656063Y-53299186D01*
X134800160Y-53116399D01*
X134801728Y-53114496D01*
X134964317Y-52925564D01*
X134965670Y-52924047D01*
X135123696Y-52753096D01*
X135125273Y-52751456D01*
X135301456Y-52575273D01*
X135303096Y-52573696D01*
X135474047Y-52415670D01*
X135475564Y-52414317D01*
X135664496Y-52251728D01*
X135666399Y-52250160D01*
X135849186Y-52106063D01*
X135850600Y-52104984D01*
X136051179Y-51956950D01*
X136053463Y-51955345D01*
X136246878Y-51826109D01*
X136248189Y-51825260D01*
X136459372Y-51692565D01*
X136461937Y-51691042D01*
X136664804Y-51577432D01*
X136665913Y-51576829D01*
X136886601Y-51460191D01*
X136889485Y-51458766D01*
X137100369Y-51361547D01*
X137101355Y-51361104D01*
X137330361Y-51261190D01*
X137333612Y-51259882D01*
X137551429Y-51179524D01*
X137788106Y-51096707D01*
X137791692Y-51095575D01*
X138014378Y-51032771D01*
X138257159Y-50967718D01*
X138260999Y-50966822D01*
X138486503Y-50921966D01*
X138734705Y-50875004D01*
X138738891Y-50874361D01*
X138963937Y-50847725D01*
X139217972Y-50819102D01*
X139222412Y-50818764D01*
X139433056Y-50810488D01*
X139698867Y-50800542D01*
X139701152Y-50800500D01*
X171448848Y-50800500D01*
X171451132Y-50800542D01*
G37*
%TD.AperFunction*%
%TD*%
M02*
