M48
; DRILL file {KiCad 7.0.5} date Mon Nov  6 15:38:17 2023
; FORMAT={-:-/ absolute / inch / decimal}
; #@! TF.CreationDate,2023-11-06T15:38:17-08:00
; #@! TF.GenerationSoftware,Kicad,Pcbnew,7.0.5
; #@! TF.FileFunction,Plated,1,2,PTH
FMAT,2
INCH
; #@! TA.AperFunction,Plated,PTH,ViaDrill
T1C0.0118
; #@! TA.AperFunction,Plated,PTH,ComponentDrill
T2C0.0394
; #@! TA.AperFunction,Plated,PTH,ComponentDrill
T3C0.0598
; #@! TA.AperFunction,Plated,PTH,ComponentDrill
T4C0.1260
%
G90
G05
T1
X5.4331Y-2.9016
X5.7598Y-2.3425
X5.7913Y-3.2992
X5.7992Y-2.622
X5.8031Y-2.878
X5.8071Y-3.122
X5.8735Y-2.6457
X5.9921Y-2.4331
X6.0079Y-2.8346
X6.0157Y-3.1024
X6.1772Y-2.5118
X6.2008Y-2.9567
X6.2047Y-2.4528
X6.2126Y-2.5709
X6.2362Y-2.7323
X6.2362Y-3.1457
X6.3425Y-3.2392
X6.3622Y-3.311
X6.3898Y-2.9606
X6.3976Y-2.5118
X6.4331Y-2.7638
X6.4882Y-2.5709
X6.5197Y-3.2992
X6.5315Y-2.9685
X6.5945Y-2.7638
T2
X6.0Y-2.25
X6.1Y-2.25
X6.2Y-2.25
T3
X5.7641Y-3.5108
X5.9641Y-3.5108
X6.3Y-3.5108
X6.5Y-3.5108
T4
X5.5Y-2.25
X5.5Y-3.5
X6.75Y-2.25
X6.75Y-3.5
T0
M30
